<svg width="34" height="31" viewBox="0 0 34 31" fill="none" xmlns="http://www.w3.org/2000/svg">
<path d="M32.5986 21.043H12.4411C12.1441 21.043 11.8593 21.161 11.6493 21.371C11.4393 21.581 11.3213 21.8658 11.3213 22.1628C11.3213 22.4598 11.4393 22.7447 11.6493 22.9547C11.8593 23.1647 12.1441 23.2827 12.4411 23.2827H32.5986C32.8956 23.2827 33.1805 23.1647 33.3905 22.9547C33.6005 22.7447 33.7185 22.4598 33.7185 22.1628C33.7185 21.8658 33.6005 21.581 33.3905 21.371C33.1805 21.161 32.8956 21.043 32.5986 21.043Z" fill="black"/>
<path d="M11.3213 15.4402C11.3213 15.7372 11.4393 16.022 11.6493 16.232C11.8593 16.442 12.1441 16.56 12.4411 16.56H32.5986C32.8956 16.56 33.1805 16.442 33.3905 16.232C33.6005 16.022 33.7185 15.7372 33.7185 15.4402C33.7185 15.1432 33.6005 14.8583 33.3905 14.6483C33.1805 14.4383 32.8956 14.3203 32.5986 14.3203H12.4411C12.1441 14.3203 11.8593 14.4383 11.6493 14.6483C11.4393 14.8583 11.3213 15.1432 11.3213 15.4402Z" fill="black"/>
<path d="M28.1192 27.7617H12.4411C12.1441 27.7617 11.8593 27.8797 11.6493 28.0897C11.4393 28.2997 11.3213 28.5846 11.3213 28.8816C11.3213 29.1786 11.4393 29.4634 11.6493 29.6734C11.8593 29.8835 12.1441 30.0014 12.4411 30.0014H28.1192C28.4162 30.0014 28.701 29.8835 28.9111 29.6734C29.1211 29.4634 29.239 29.1786 29.239 28.8816C29.239 28.5846 29.1211 28.2997 28.9111 28.0897C28.701 27.8797 28.4162 27.7617 28.1192 27.7617Z" fill="black"/>
<path d="M15.678 7.60385C15.678 7.30684 15.5601 7.022 15.35 6.81199C15.14 6.60197 14.8552 6.48399 14.5582 6.48399H9.08206V1.11986C9.08206 0.822855 8.96408 0.538014 8.75407 0.327999C8.54405 0.117985 8.25921 0 7.9622 0C7.6652 0 7.38036 0.117985 7.17034 0.327999C6.96033 0.538014 6.84235 0.822855 6.84235 1.11986V6.48399H1.11986C0.822855 6.48399 0.538014 6.60197 0.328 6.81199C0.117985 7.022 0 7.30684 0 7.60385C0 7.90086 0.117985 8.1857 0.328 8.39571C0.538014 8.60572 0.822855 8.72371 1.11986 8.72371H6.84235V14.5582C6.84235 14.8552 6.96033 15.14 7.17034 15.35C7.38036 15.5601 7.6652 15.678 7.9622 15.678C8.25921 15.678 8.54405 15.5601 8.75407 15.35C8.96408 15.14 9.08206 14.8552 9.08206 14.5582V8.72371H14.5582C14.8552 8.72371 15.14 8.60572 15.35 8.39571C15.5601 8.1857 15.678 7.90086 15.678 7.60385Z" fill="black"/>
</svg>
