<svg width="17" height="10" viewBox="0 0 17 10" fill="none" xmlns="http://www.w3.org/2000/svg">
<path d="M11.4326 0.228371L11.4938 0.154585C11.581 0.0672769 11.696 0.0133374 11.8189 0.00216527C11.9418 -0.00900683 12.0647 0.0232973 12.1663 0.0934479L12.239 0.154585L16.741 4.65975L16.7726 4.6998L16.8158 4.77675L16.8401 4.83894L16.8538 4.88849L16.8654 5.00022L16.8569 5.09298L16.8327 5.18152L16.8085 5.23844L16.7821 5.28482L16.7431 5.33753L16.7115 5.37231L12.239 9.8448C12.146 9.93817 12.0215 9.99334 11.8899 9.99944C11.7582 10.0055 11.6291 9.9621 11.5279 9.87771C11.4267 9.79332 11.3608 9.67409 11.3432 9.54352C11.3255 9.41295 11.3575 9.28051 11.4326 9.17229L11.4938 9.09851L15.065 5.52515L0.527043 5.52726C0.403688 5.5273 0.284227 5.48407 0.189463 5.4051C0.0946987 5.32613 0.0306365 5.21643 0.00843261 5.09509L2.93144e-08 4.99916C-4.10947e-05 4.87581 0.0431874 4.75635 0.122157 4.66158C0.201127 4.56682 0.310835 4.50276 0.432175 4.48055L0.527043 4.47212H15.065L11.4938 0.89877C11.4067 0.811629 11.3529 0.696756 11.3418 0.574098C11.3306 0.45144 11.3627 0.328745 11.4326 0.227317L11.4938 0.153531L11.4326 0.227317V0.228371Z" fill="white"/>
</svg>
