<svg width="25" height="25" viewBox="0 0 25 25" fill="none" xmlns="http://www.w3.org/2000/svg">
<path d="M0 12.6299C0.118753 5.7821 4.91183 0.906994 10.7791 0.117914C17.7785 -0.818826 23.6662 3.94222 24.7974 10.258C25.8717 16.248 22.5794 21.8551 17.1512 24.077C16.6832 24.2677 16.4269 24.1622 16.248 23.6864L13.5503 16.6792C13.3964 16.2675 13.5011 16.0112 13.9042 15.8292C15.1253 15.2753 15.8855 14.3479 16.0894 13.0166C16.1653 12.5285 16.1401 12.0299 16.0154 11.5519C15.8906 11.0739 15.6689 10.6266 15.3641 10.2378C15.0593 9.84903 14.6778 9.52704 14.2434 9.29182C13.8089 9.05661 13.3308 8.91318 12.8386 8.87045C11.9269 8.78217 11.0158 9.04418 10.2903 9.60326C9.56474 10.1623 9.0792 10.9766 8.93223 11.8807C8.66738 13.5456 9.48927 15.0956 11.0393 15.7995C11.5237 16.019 11.6214 16.2347 11.4338 16.7277L8.72363 23.7833C8.59316 24.1294 8.30878 24.252 7.94236 24.1091C5.0815 22.9898 2.73436 20.8541 1.35081 18.1113C0.0937522 15.6292 0.0820331 13.6885 0 12.626V12.6299ZM1.05393 12.533C1.07502 12.8666 1.08596 13.2526 1.11956 13.6479C1.43597 17.273 3.61727 20.8824 7.72283 22.8801C7.88611 22.9528 7.94705 22.9208 8.00799 22.7669C8.75723 20.7926 9.51349 18.8199 10.2744 16.8456C10.3393 16.6831 10.3065 16.6058 10.1557 16.512C8.56113 15.5065 7.76736 14.0659 7.85642 12.1744C7.90564 11.0877 8.32518 10.1314 9.05723 9.33374C10.5666 7.68605 12.9386 7.32745 14.88 8.44701C15.6643 8.90127 16.2981 9.57555 16.703 10.3864C17.1079 11.1972 17.2662 12.109 17.1582 13.0088C16.9746 14.5464 16.1863 15.7269 14.8511 16.5245C14.7167 16.6058 14.6761 16.6706 14.7378 16.8284C15.5027 18.8066 16.2636 20.784 17.016 22.7622C17.0777 22.9208 17.1387 22.9528 17.2973 22.8755C19.0918 22.0411 20.5848 20.8449 21.7411 19.2504C23.4943 16.8167 24.2185 14.1104 23.8724 11.1322C23.1849 5.20709 17.8543 0.299949 10.9901 1.14684C5.64309 1.80233 1.14299 6.31493 1.05315 12.5323L1.05393 12.533Z" fill="black"/>
</svg>
