<svg width="30" height="30" viewBox="0 0 30 30" fill="none" xmlns="http://www.w3.org/2000/svg">
<path d="M22 8H28C28.5304 8 29.0391 7.78929 29.4142 7.41421C29.7893 7.03914 30 6.53043 30 6V2C30 1.46957 29.7893 0.960859 29.4142 0.585786C29.0391 0.210714 28.5304 0 28 0H22C21.4696 0 20.9609 0.210714 20.5858 0.585786C20.2107 0.960859 20 1.46957 20 2V3H10V2C10 1.46957 9.78929 0.960859 9.41421 0.585786C9.03914 0.210714 8.53043 0 8 0H2C1.46957 0 0.960859 0.210714 0.585786 0.585786C0.210714 0.960859 0 1.46957 0 2V6C0 6.53043 0.210714 7.03914 0.585786 7.41421C0.960859 7.78929 1.46957 8 2 8H8C8.53043 8 9.03914 7.78929 9.41421 7.41421C9.78929 7.03914 10 6.53043 10 6V5H14V25C14.0005 25.5303 14.2114 26.0387 14.5864 26.4136C14.9613 26.7886 15.4697 26.9995 16 27H20V28C20 28.5304 20.2107 29.0391 20.5858 29.4142C20.9609 29.7893 21.4696 30 22 30H28C28.5304 30 29.0391 29.7893 29.4142 29.4142C29.7893 29.0391 30 28.5304 30 28V24C30 23.4696 29.7893 22.9609 29.4142 22.5858C29.0391 22.2107 28.5304 22 28 22H22C21.4696 22 20.9609 22.2107 20.5858 22.5858C20.2107 22.9609 20 23.4696 20 24V25H16V16H20V17C20 17.5304 20.2107 18.0391 20.5858 18.4142C20.9609 18.7893 21.4696 19 22 19H28C28.5304 19 29.0391 18.7893 29.4142 18.4142C29.7893 18.0391 30 17.5304 30 17V13C30 12.4696 29.7893 11.9609 29.4142 11.5858C29.0391 11.2107 28.5304 11 28 11H22C21.4696 11 20.9609 11.2107 20.5858 11.5858C20.2107 11.9609 20 12.4696 20 13V14H16V5H20V6C20 6.53043 20.2107 7.03914 20.5858 7.41421C20.9609 7.78929 21.4696 8 22 8ZM22 2H28V6H22V2ZM8 6H2V2H8V6ZM22 24H28V28H22V24ZM22 13H28V17H22V13Z" fill="black"/>
</svg>
