<svg width="61" height="32" viewBox="0 0 61 32" fill="none" xmlns="http://www.w3.org/2000/svg">
<path d="M22.291 3.58203H38.6398V28.2845H22.291V3.58203Z" fill="#FF5F00"/>
<path d="M23.3285 15.9345C23.3285 10.9155 26.1311 6.46372 30.4387 3.58315C27.273 1.48829 23.2767 0.222656 18.9171 0.222656C8.58837 0.222656 0.232422 7.24922 0.232422 15.9345C0.232422 24.6195 8.58837 31.6463 18.9168 31.6463C23.2765 31.6463 27.2728 30.3807 30.4387 28.2856C26.1311 25.4488 23.3285 20.9534 23.3285 15.9345Z" fill="#6FABE6"/>
<path d="M60.6965 15.9345C60.6965 24.6195 52.3406 31.6463 42.0121 31.6463C37.6525 31.6463 33.6562 30.3807 30.4902 28.2856C34.8499 25.4052 37.6007 20.9534 37.6007 15.9345C37.6007 10.9155 34.7979 6.46372 30.4902 3.58315C33.656 1.48829 37.6525 0.222656 42.0121 0.222656C52.3406 0.222656 60.6968 7.29296 60.6968 15.9345H60.6965Z" fill="#F7D41B"/>
</svg>
