<svg width="131" height="111" viewBox="0 0 131 111" fill="none" xmlns="http://www.w3.org/2000/svg">
<path d="M0.730471 85.0865V53.9628C0.727939 48.0963 2.75101 42.4089 6.45774 37.8619C10.1645 33.3148 15.3275 30.187 21.0741 29.0072C21.8245 28.8571 22.6038 29.0113 23.2405 29.4358C23.8773 29.8603 24.3193 30.5203 24.4694 31.2708C24.6195 32.0212 24.4653 32.8005 24.0408 33.4372C23.6163 34.074 22.9563 34.516 22.2059 34.6661C17.7564 35.581 13.7567 37.9976 10.8771 41.5108C7.99749 45.024 6.41305 49.4203 6.38933 53.9628V85.0865C6.38933 85.837 6.09123 86.5566 5.56061 87.0873C5.02999 87.6179 4.31031 87.916 3.5599 87.916C2.80949 87.916 2.08981 87.6179 1.55919 87.0873C1.02857 86.5566 0.730471 85.837 0.730471 85.0865Z" fill="#A87E6B"/>
<path d="M130.884 36.3353C130.884 42.5317 122.396 45.2763 116.312 43.9181L111.078 42.6449C107.344 55.7011 100.926 67.8341 92.2338 78.2674C90.904 79.8802 91.2718 76.0039 91.2718 102.063C94.1452 103.676 96.493 106.083 98.0341 108.995L97.1287 110.551H90.4513C89.8148 110.555 89.184 110.432 88.5953 110.191C88.0066 109.949 87.4717 109.593 87.0217 109.142C86.5717 108.692 86.2154 108.158 85.9736 107.569C85.7318 106.98 85.6092 106.349 85.6129 105.713C85.6129 85.1712 85.9242 83.0775 84.9339 79.5973C82.3308 80.248 82.2742 80.2763 79.558 80.8139C78.7374 75.155 73.2483 65.1389 69.4569 68.9303C69.1917 69.1933 68.9812 69.5063 68.8376 69.8511C68.6939 70.1959 68.62 70.5657 68.62 70.9392C68.62 71.3127 68.6939 71.6825 68.8376 72.0273C68.9812 72.3721 69.1917 72.6851 69.4569 72.9481C71.6208 75.1207 73.1559 77.8389 73.8991 80.8139C62.5615 83.1615 50.875 83.2768 39.4932 81.1534C43.6976 75.825 45.9895 69.2383 46.0009 62.4509C46.0009 61.7005 45.7028 60.9808 45.1722 60.4502C44.6416 59.9196 43.9219 59.6215 43.1715 59.6215C42.4211 59.6215 41.7014 59.9196 41.1708 60.4502C40.6401 60.9808 40.342 61.7005 40.342 62.4509C40.342 73.5423 34.0041 77.4752 34.0041 79.9651C31.1747 83.5019 29.477 84.3507 20.536 90.7452V102.063C23.4094 103.676 25.7572 106.083 27.2984 108.995L26.3929 110.551H19.7155C19.0791 110.555 18.4482 110.432 17.8595 110.191C17.2708 109.949 16.7359 109.593 16.2859 109.142C15.8359 108.692 15.4796 108.158 15.2378 107.569C14.996 106.98 14.8734 106.349 14.8772 105.713V85.0863C16.1989 84.2032 17.2827 83.0081 18.0328 81.6066C18.7829 80.2051 19.1762 78.6404 19.1779 77.0508C19.1779 71.2221 14.8772 70.9392 14.8772 64.1769C14.8772 41.1453 13.6605 37.2973 18.6686 32.2892C20.4753 30.4895 22.7827 29.2767 25.2895 28.809C56.102 34.4678 75.9646 29.969 91.2718 28.4977C88.8017 27.6732 86.6532 26.0932 85.13 23.981C83.6068 21.8689 82.786 19.3314 82.7835 16.7273V11.5211C88.3009 11.5211 92.6865 10.927 96.9307 15.3126L102.59 11.5211H113.907C130.714 33.9302 130.884 33.3927 130.884 36.3353Z" fill="#BE927C"/>
<path d="M94.1033 20.0091C93.5069 20.0053 92.927 19.8131 92.4464 19.46C91.9657 19.107 91.6089 18.6111 91.427 18.0431C91.245 17.4752 91.2471 16.8643 91.433 16.2976C91.6189 15.7309 91.9792 15.2375 92.4622 14.8878L112.268 0.740646C112.877 0.379861 113.6 0.260566 114.293 0.40631C114.985 0.552054 115.598 0.952246 116.011 1.52788C116.423 2.10352 116.604 2.81277 116.519 3.51562C116.434 4.21847 116.088 4.86384 115.55 5.32432C94.2731 20.5467 95.4048 20.0091 94.1033 20.0091Z" fill="#A07765"/>
</svg>
