<svg width="70" height="70" viewBox="0 0 70 70" fill="none" xmlns="http://www.w3.org/2000/svg">
<circle cx="35" cy="35" r="35" fill="#F0FFF5"/>
<path d="M48.0437 40.2179C48.0345 40.7791 47.8034 41.3138 47.4008 41.705C46.9983 42.0961 46.4571 42.3118 45.8959 42.3049H35.0002V33.6092H31.5219V42.3049H24.1046C23.7333 42.3233 23.364 42.2392 23.0373 42.0618C22.7106 41.8844 22.439 41.6205 22.2523 41.2991C22.0655 40.9777 21.9708 40.611 21.9785 40.2393C21.9862 39.8677 22.096 39.5053 22.2959 39.1918C24.5841 35.9124 26.2794 32.257 27.3046 28.3918H29.7828V24.9136H28.0437C28.0959 24.6063 28.1393 24.302 28.1741 24.0005C28.3833 22.3357 29.1916 20.8041 30.4478 19.6919C31.7041 18.5797 33.3224 17.963 35.0002 17.957V23.1744H38.4785V18.8962C42.235 21.1136 41.5393 24.044 42.6959 28.3918H40.2176V31.0005C40.2176 31.2311 40.3092 31.4523 40.4723 31.6154C40.6354 31.7785 40.8565 31.8701 41.0872 31.8701H43.8176C45.9741 37.557 47.9828 38.8266 48.0437 40.2179Z" fill="#7C7D7D"/>
<path d="M32.3912 33.6091C32.1606 33.6091 31.9394 33.7007 31.7763 33.8638C31.6133 34.0269 31.5216 34.2481 31.5216 34.4787H30.6521C30.4215 34.4787 30.2003 34.5703 30.0372 34.7334C29.8741 34.8965 29.7825 35.1176 29.7825 35.3483V40.5656H26.713C26.3416 40.5841 25.9724 40.5 25.6457 40.3226C25.319 40.1452 25.0474 39.8813 24.8606 39.5599C24.6739 39.2384 24.5792 38.8718 24.5869 38.5001C24.5946 38.1284 24.7044 37.766 24.9043 37.4526C26.4914 35.1797 27.7939 32.7208 28.7825 30.1309H31.7564C32.5216 31.4004 32.3912 29.4178 32.3912 33.6091Z" fill="#919191"/>
<path d="M32.3914 18.5996C32.3914 30.2257 32.6001 26.9822 31.7566 28.3909H29.7827C29.7827 25.9822 30.0958 26.7909 30.6523 23.1735C30.9566 21.304 30.8958 20.5648 32.3914 18.5996Z" fill="#919191"/>
<path d="M42.6956 28.3919C32.4695 28.3919 35.5391 28.6006 34.1304 27.7571V18.018C34.4183 17.9758 34.709 17.9554 34.9999 17.9571V23.1745H38.4782V18.8963C42.2347 21.1136 41.5391 24.0441 42.6956 28.3919Z" fill="#919191"/>
<path d="M48.0433 40.3048C48.0433 40.6787 49.2781 40.5656 34.9998 40.5656V33.6091H34.1303C34.1303 29.4439 34.0085 31.4004 34.765 30.1309H38.4781V31.87C38.4781 32.1006 38.5697 32.3218 38.7328 32.4849C38.8959 32.6479 39.117 32.7396 39.3477 32.7396H44.1564C46.365 38.0352 48.0433 38.8874 48.0433 40.3048Z" fill="#919191"/>
<path d="M46.3045 42.3047V51.0003H23.6958V42.3047H31.5219V44.9134C31.5219 45.144 31.6135 45.3652 31.7766 45.5283C31.9397 45.6913 32.1608 45.7829 32.3915 45.7829H35.0001V42.3047H46.3045Z" fill="#DF8761"/>
<path d="M46.3042 42.3047V48.3916H32.3912C30.7768 48.3916 29.2286 47.7503 28.087 46.6088C26.9455 45.4673 26.3042 43.919 26.3042 42.3047H29.7825V45.7829C29.7825 46.0136 29.8741 46.2347 30.0371 46.3978C30.2002 46.5609 30.4214 46.6525 30.652 46.6525H33.2607C33.4913 46.6525 33.7125 46.5609 33.8756 46.3978C34.0387 46.2347 34.1303 46.0136 34.1303 45.7829H34.9999V42.3047H46.3042Z" fill="#F29B75"/>
<path d="M29.7828 24.9121V27.5208H20.2176C19.5257 27.5208 18.8622 27.246 18.373 26.7567C17.8837 26.2675 17.6089 25.604 17.6089 24.9121H29.7828Z" fill="#FFDE76"/>
<path d="M34.1306 29.2606H18.4785C18.2478 29.2606 18.0267 29.169 17.8636 29.0059C17.7005 28.8429 17.6089 28.6217 17.6089 28.391C17.6089 28.1604 17.7005 27.9392 17.8636 27.7762C18.0267 27.6131 18.2478 27.5215 18.4785 27.5215H34.1306C34.3612 27.5215 34.5824 27.6131 34.7455 27.7762C34.9086 27.9392 35.0002 28.1604 35.0002 28.391C35.0002 28.6217 34.9086 28.8429 34.7455 29.0059C34.5824 29.169 34.3612 29.2606 34.1306 29.2606Z" fill="#FFCC66"/>
<path d="M34.1304 26.6522V11.8696C34.1304 11.6389 34.222 11.4178 34.3851 11.2547C34.5481 11.0916 34.7693 11 34.9999 11C35.2306 11 35.4517 11.0916 35.6148 11.2547C35.7779 11.4178 35.8695 11.6389 35.8695 11.8696V26.6522C35.8695 26.8828 35.7779 27.104 35.6148 27.267C35.4517 27.4301 35.2306 27.5217 34.9999 27.5217C34.7693 27.5217 34.5481 27.4301 34.3851 27.267C34.222 27.104 34.1304 26.8828 34.1304 26.6522Z" fill="#FFCC66"/>
<path d="M52.3912 28.3906V30.9993C52.3912 31.2299 52.2996 31.4511 52.1365 31.6142C51.9734 31.7773 51.7523 31.8689 51.5216 31.8689H41.0869C40.8562 31.8689 40.635 31.7773 40.472 31.6142C40.3089 31.4511 40.2173 31.2299 40.2173 30.9993V28.3906H52.3912Z" fill="#FFCC66"/>
<path d="M35.0002 33.6094V45.7833H32.3915C32.1609 45.7833 31.9397 45.6917 31.7767 45.5286C31.6136 45.3655 31.522 45.1443 31.522 44.9137V34.4789C31.522 34.2483 31.6136 34.0271 31.7767 33.8641C31.9397 33.701 32.1609 33.6094 32.3915 33.6094H35.0002Z" fill="#FFCC66"/>
<path d="M35.8694 30.1313C35.8694 44.7574 35.7825 44.0443 35.8694 44.0443C35.1776 44.0443 34.514 43.7695 34.0248 43.2803C33.5356 42.791 33.2607 42.1275 33.2607 41.4356V33.6095H34.1303V30.1313C34.1303 29.9007 34.2219 29.6795 34.385 29.5164C34.5481 29.3533 34.7692 29.2617 34.9999 29.2617C35.2305 29.2617 35.4517 29.3533 35.6147 29.5164C35.7778 29.6795 35.8694 29.9007 35.8694 30.1313Z" fill="#FFDE76"/>
<path d="M36.7392 27.5215H51.5218C51.7524 27.5215 51.9736 27.6131 52.1367 27.7762C52.2998 27.9392 52.3914 28.1604 52.3914 28.391V30.1302H40.2175V29.2606H36.7392C36.5086 29.2606 36.2874 29.169 36.1243 29.0059C35.9612 28.8429 35.8696 28.6217 35.8696 28.391C35.8696 28.1604 35.9612 27.9392 36.1243 27.7762C36.2874 27.6131 36.5086 27.5215 36.7392 27.5215Z" fill="#FFDE76"/>
<path d="M54.1304 51.0008H15.8696C15.6389 51.0008 15.4178 50.9092 15.2547 50.7462C15.0916 50.5831 15 50.3619 15 50.1313C15 49.9007 15.0916 49.6795 15.2547 49.5164C15.4178 49.3533 15.6389 49.2617 15.8696 49.2617H54.1304C54.3611 49.2617 54.5822 49.3533 54.7453 49.5164C54.9084 49.6795 55 49.9007 55 50.1313C55 50.3619 54.9084 50.5831 54.7453 50.7462C54.5822 50.9092 54.3611 51.0008 54.1304 51.0008Z" fill="#374F68"/>
<path d="M38.4783 11C38.4783 23.8174 38.3914 23.1739 38.4783 23.1739C37.7865 23.1739 37.1229 22.8991 36.6337 22.4098C36.1445 21.9206 35.8696 21.2571 35.8696 20.5652V11H38.4783Z" fill="#FFDE76"/>
</svg>
