<svg width="17" height="14" viewBox="0 0 17 14" fill="none" xmlns="http://www.w3.org/2000/svg">
<path d="M14.4181 1.75057C15.0968 2.31873 15.5957 3.07197 15.8541 3.91857C16.069 4.68003 16.069 5.4861 15.8541 6.24757C15.6602 7.00071 15.2767 7.69166 14.7401 8.25457L9.61309 13.4696C9.46935 13.6194 9.29644 13.7382 9.10502 13.8187C8.9136 13.8992 8.70773 13.9397 8.50009 13.9376C8.29245 13.9397 8.08658 13.8992 7.89517 13.8187C7.70375 13.7382 7.53084 13.6194 7.38709 13.4696L2.26009 8.25457C1.72348 7.69166 1.33996 7.00071 1.14609 6.24757C0.931131 5.48461 0.94155 4.67574 1.17609 3.91857C1.4155 3.07069 1.9056 2.31498 2.58209 1.75057C3.12081 1.28572 3.77905 0.981203 4.48209 0.871569C5.2034 0.754556 5.94236 0.814963 6.63509 1.04757C7.33875 1.27445 7.97812 1.66596 8.50009 2.18957C9.02053 1.66627 9.65812 1.27446 10.3601 1.04657C11.0528 0.813962 11.7918 0.753555 12.5131 0.870568C13.218 0.979595 13.8781 1.28452 14.4181 1.75057ZM13.7441 7.25857C14.1024 6.87528 14.3592 6.40845 14.4911 5.90057C14.6383 5.37665 14.6331 4.82164 14.4761 4.30057C14.3132 3.7239 13.9753 3.21201 13.5091 2.83557C13.2323 2.60465 12.9122 2.4313 12.5676 2.32569C12.223 2.22009 11.8607 2.18435 11.5021 2.22057C10.7478 2.2707 10.0407 2.60565 9.52409 3.15757L8.50009 4.18257L7.47509 3.15657C6.95922 2.60533 6.25335 2.27045 5.50009 2.21957C5.14147 2.18335 4.77921 2.21909 4.43458 2.32469C4.08994 2.4303 3.76986 2.60364 3.49309 2.83457C3.02558 3.21084 2.6866 3.72315 2.52309 4.30057C2.36613 4.82164 2.36093 5.37665 2.50809 5.90057C2.63933 6.40987 2.89616 6.87815 3.25509 7.26257L8.41209 12.4736C8.47076 12.5516 8.52943 12.5516 8.58809 12.4736L13.7441 7.25857Z" fill="#0E4944"/>
</svg>
