<svg width="25" height="25" viewBox="0 0 25 25" fill="none" xmlns="http://www.w3.org/2000/svg">
<path d="M7.74643 2.48438C6.0457 2.89451 4.35652 3.34047 2.68036 3.82188C2.52731 3.86526 2.39126 3.94538 2.2877 4.05312C2.18415 4.16085 2.11726 4.29187 2.09465 4.43125C1.10537 10.9266 3.39108 15.6656 6.11786 18.7875C7.27235 20.1225 8.64894 21.2986 10.2018 22.2766C10.8196 22.6578 11.3661 22.9328 11.7964 23.1094C12.0107 23.1984 12.1857 23.2578 12.3196 23.2938C12.3782 23.3117 12.4386 23.3248 12.5 23.3328C12.5607 23.3242 12.6204 23.3111 12.6786 23.2938C12.8143 23.2578 12.9893 23.1984 13.2036 23.1094C13.6321 22.9328 14.1804 22.6562 14.7982 22.2766C16.351 21.2985 17.7276 20.1225 18.8821 18.7875C21.6089 15.6672 23.8946 10.9266 22.9053 4.43125C22.8829 4.29181 22.8161 4.1607 22.7125 4.05294C22.609 3.94517 22.4728 3.86509 22.3196 3.82188C21.1571 3.48906 19.1946 2.94687 17.2536 2.48594C15.2714 2.01562 13.4482 1.66719 12.5 1.66719C11.5536 1.66719 9.72857 2.01562 7.74643 2.48594V2.48438ZM7.27143 0.875C9.20893 0.414063 11.2679 0 12.5 0C13.7321 0 15.7911 0.414063 17.7286 0.875C19.7107 1.34375 21.7089 1.89844 22.8839 2.23438C23.3752 2.37633 23.8107 2.63666 24.1405 2.98547C24.4703 3.33428 24.6809 3.75741 24.7482 4.20625C25.8125 11.2016 23.3428 16.3859 20.3464 19.8156C19.0758 21.2828 17.5607 22.5748 15.8518 23.6484C15.2609 24.02 14.6348 24.3467 13.9804 24.625C13.4804 24.8313 12.9429 25 12.5 25C12.0571 25 11.5214 24.8313 11.0196 24.625C10.3652 24.3467 9.73912 24.02 9.14822 23.6484C7.43934 22.5747 5.92426 21.2828 4.65358 19.8156C1.65715 16.3859 -0.81249 11.2016 0.251795 4.20625C0.319094 3.75741 0.529729 3.33428 0.859503 2.98547C1.18928 2.63666 1.62481 2.37633 2.11608 2.23438C3.82178 1.74501 5.54073 1.29176 7.27143 0.875Z" fill="black"/>
<path d="M17.596 8.04202C17.6792 8.11459 17.7451 8.2008 17.7901 8.29572C17.8352 8.39063 17.8583 8.49238 17.8583 8.59515C17.8583 8.69791 17.8352 8.79966 17.7901 8.89457C17.7451 8.98949 17.6792 9.0757 17.596 9.14827L12.2389 13.8358C12.1559 13.9085 12.0574 13.9662 11.9489 14.0056C11.8405 14.045 11.7242 14.0653 11.6067 14.0653C11.4893 14.0653 11.373 14.045 11.2645 14.0056C11.1561 13.9662 11.0575 13.9085 10.9746 13.8358L8.29602 11.492C8.21301 11.4194 8.14716 11.3332 8.10223 11.2382C8.0573 11.1433 8.03418 11.0416 8.03418 10.9389C8.03418 10.8362 8.0573 10.7345 8.10223 10.6395C8.14716 10.5446 8.21301 10.4584 8.29602 10.3858C8.37904 10.3131 8.47759 10.2555 8.58605 10.2162C8.69451 10.1769 8.81076 10.1567 8.92816 10.1567C9.04556 10.1567 9.16181 10.1769 9.27028 10.2162C9.37874 10.2555 9.47729 10.3131 9.56031 10.3858L11.6067 12.178L16.3317 8.04202C16.4147 7.96927 16.5132 7.91154 16.6217 7.87216C16.7301 7.83277 16.8464 7.8125 16.9639 7.8125C17.0813 7.8125 17.1976 7.83277 17.3061 7.87216C17.4145 7.91154 17.5131 7.96927 17.596 8.04202Z" fill="black"/>
</svg>
