<svg width="25" height="25" viewBox="0 0 25 25" fill="none" xmlns="http://www.w3.org/2000/svg">
<path d="M10.8333 9.37496C10.6685 9.37496 10.5074 9.42078 10.3704 9.50662C10.2333 9.59247 10.1265 9.71448 10.0634 9.85724C10.0004 9.99999 9.98386 10.1571 10.016 10.3086C10.0482 10.4602 10.1275 10.5994 10.2441 10.7086C10.3606 10.8179 10.5091 10.8923 10.6708 10.9224C10.8324 10.9526 11 10.9371 11.1522 10.878C11.3045 10.8189 11.4347 10.7187 11.5262 10.5902C11.6178 10.4618 11.6667 10.3107 11.6667 10.1562C11.6667 9.94901 11.5789 9.75029 11.4226 9.60378C11.2663 9.45727 11.0543 9.37496 10.8333 9.37496ZM23.4635 4.08592L13.4635 0.179687C13.156 0.0706521 12.8313 0.00994121 12.5026 0C12.1738 0.00973138 11.8489 0.070278 11.5411 0.179198L1.54115 4.08543C1.08458 4.2627 0.694409 4.56303 0.420055 4.94836C0.145701 5.33369 -0.000489631 5.78669 1.23207e-06 6.24997C1.23207e-06 15.9423 5.96354 22.6425 11.5365 24.8202C11.8411 24.9389 12.1678 25 12.4977 25C12.8276 25 13.1542 24.9389 13.4589 24.8202C17.9214 23.0766 25 17.0556 25 6.24997C25.0003 5.78737 24.8545 5.33503 24.5811 4.94994C24.3077 4.56484 23.9189 4.26421 23.4635 4.08592ZM19.1667 12.4999H18.5354C17.0505 12.4999 16.3068 14.183 17.3568 15.1674L17.8036 15.5859C17.9599 15.7324 18.0478 15.9311 18.0478 16.1384C18.0478 16.3456 17.9599 16.5443 17.8036 16.6908C17.6473 16.8374 17.4354 16.9197 17.2143 16.9197C16.9933 16.9197 16.7813 16.8374 16.625 16.6908L16.1786 16.2719C15.1286 15.2875 13.3333 15.9848 13.3333 17.3769V17.9687C13.3333 18.1759 13.2455 18.3746 13.0893 18.5211C12.933 18.6676 12.721 18.7499 12.5 18.7499C12.279 18.7499 12.067 18.6676 11.9107 18.5211C11.7545 18.3746 11.6667 18.1759 11.6667 17.9687V17.3769C11.6667 15.9848 9.87135 15.2875 8.82135 16.2719L8.375 16.6908C8.29761 16.7634 8.20573 16.821 8.10462 16.8602C8.0035 16.8995 7.89513 16.9197 7.78568 16.9197C7.67623 16.9197 7.56785 16.8995 7.46674 16.8602C7.36562 16.821 7.27375 16.7634 7.19635 16.6908C7.11896 16.6183 7.05757 16.5322 7.01569 16.4374C6.97381 16.3426 6.95225 16.241 6.95225 16.1384C6.95225 16.0358 6.97381 15.9342 7.01569 15.8394C7.05757 15.7446 7.11896 15.6584 7.19635 15.5859L7.64323 15.1674C8.69323 14.183 7.94948 12.4999 6.46458 12.4999H5.83333C5.61232 12.4999 5.40036 12.4176 5.24408 12.2711C5.0878 12.1246 5 11.9259 5 11.7187C5 11.5115 5.0878 11.3128 5.24408 11.1663C5.40036 11.0198 5.61232 10.9375 5.83333 10.9375H6.46458C7.94948 10.9375 8.69323 9.25436 7.64323 8.26998L7.19635 7.85153C7.04006 7.705 6.95225 7.50626 6.95225 7.29904C6.95225 7.09182 7.04006 6.89308 7.19635 6.74655C7.35265 6.60002 7.56464 6.51771 7.78568 6.51771C8.00672 6.51771 8.2187 6.60002 8.375 6.74655L8.82135 7.1655C9.87135 8.14987 11.6667 7.45261 11.6667 6.06052V5.46873C11.6667 5.26153 11.7545 5.06281 11.9107 4.9163C12.067 4.76979 12.279 4.68748 12.5 4.68748C12.721 4.68748 12.933 4.76979 13.0893 4.9163C13.2455 5.06281 13.3333 5.26153 13.3333 5.46873V6.06052C13.3333 7.45261 15.1286 8.14987 16.1786 7.1655L16.625 6.74655C16.7813 6.60002 16.9933 6.51771 17.2143 6.51771C17.4354 6.51771 17.6473 6.60002 17.8036 6.74655C17.9599 6.89308 18.0478 7.09182 18.0478 7.29904C18.0478 7.50626 17.9599 7.705 17.8036 7.85153L17.3568 8.26998C16.3068 9.25436 17.0505 10.9375 18.5354 10.9375H19.1667C19.3877 10.9375 19.5996 11.0198 19.7559 11.1663C19.9122 11.3128 20 11.5115 20 11.7187C20 11.9259 19.9122 12.1246 19.7559 12.2711C19.5996 12.4176 19.3877 12.4999 19.1667 12.4999ZM14.1667 12.4999C14.0018 12.4999 13.8407 12.5458 13.7037 12.6316C13.5667 12.7175 13.4598 12.8395 13.3968 12.9822C13.3337 13.125 13.3172 13.2821 13.3493 13.4336C13.3815 13.5852 13.4609 13.7244 13.5774 13.8336C13.694 13.9429 13.8424 14.0173 14.0041 14.0474C14.1657 14.0776 14.3333 14.0621 14.4856 14.003C14.6378 13.9438 14.768 13.8437 14.8596 13.7152C14.9511 13.5868 15 13.4357 15 13.2812C15 13.074 14.9122 12.8753 14.7559 12.7288C14.5996 12.5823 14.3877 12.4999 14.1667 12.4999Z" fill="black"/>
</svg>
