<svg width="25" height="25" viewBox="0 0 25 25" fill="none" xmlns="http://www.w3.org/2000/svg">
<path d="M20.9676 9.32706V11.1406C20.9676 19.3503 12.9031 22.7909 11.2902 23.4028C9.67734 22.7909 1.61289 19.3428 1.61289 11.1406V6.07306C3.31406 5.62046 4.97932 5.05937 6.59672 4.39381C8.21422 3.74674 9.78234 2.99869 11.2902 2.15482C12.4656 2.81861 13.6798 3.42158 14.9273 3.96094V3.74451C14.9281 3.28391 14.9904 2.82517 15.1128 2.37872C13.9513 1.85965 12.8231 1.27904 11.7338 0.639773L11.2902 0.371094L10.8547 0.632309C9.28876 1.54543 7.64958 2.34634 5.95156 3.02803C4.22278 3.74185 2.43478 4.32587 0.604834 4.77444L0 4.91625V11.1406C0 21.134 10.9112 24.8731 11.016 24.9104L11.2902 25L11.5644 24.9104C11.6773 24.9104 22.5805 21.1415 22.5805 11.1406V9.11808C22.0555 9.25481 21.5129 9.3251 20.9676 9.32706Z" fill="black"/>
<path d="M20.9678 7.4633C23.1947 7.4633 25 5.79259 25 3.73165C25 1.67072 23.1947 0 20.9678 0C18.7408 0 16.9355 1.67072 16.9355 3.73165C16.9355 5.79259 18.7408 7.4633 20.9678 7.4633Z" fill="black"/>
</svg>
