<svg width="37" height="38" viewBox="0 0 37 38" fill="none" xmlns="http://www.w3.org/2000/svg">
<path d="M22.5217 11.2617H14.4782C14.2648 11.2617 14.0603 11.3465 13.9094 11.4973C13.7586 11.6482 13.6738 11.8527 13.6738 12.0661C13.6738 12.2794 13.7586 12.484 13.9094 12.6348C14.0603 12.7857 14.2648 12.8704 14.4782 12.8704H16.5614C14.5827 14.8491 14.4782 14.8411 14.4782 15.2835V19.3052C14.4782 19.5185 14.5629 19.7231 14.7138 19.874C14.8646 20.0248 15.0692 20.1095 15.2825 20.1095C15.4959 20.1095 15.7004 20.0248 15.8513 19.874C16.0021 19.7231 16.0869 19.5185 16.0869 19.3052V15.6132L18.4999 13.2002L20.913 15.6132V19.3052C20.913 19.5185 20.9977 19.7231 21.1485 19.874C21.2994 20.0248 21.504 20.1095 21.7173 20.1095C21.9306 20.1095 22.1352 20.0248 22.2861 19.874C22.4369 19.7231 22.5217 19.5185 22.5217 19.3052V15.2835C22.5217 14.8411 22.4171 14.8491 20.4384 12.8704H22.5217C22.735 12.8704 22.9396 12.7857 23.0904 12.6348C23.2413 12.484 23.326 12.2794 23.326 12.0661C23.326 11.8527 23.2413 11.6482 23.0904 11.4973C22.9396 11.3465 22.735 11.2617 22.5217 11.2617Z" fill="#DAD7E5"/>
<path d="M22.522 27.3477H14.4785V36.9998H22.522V27.3477Z" fill="#7C7D7D"/>
<path d="M22.5217 27.3477C22.5217 34.2248 22.4413 33.7824 22.5217 33.7824C20.8151 33.7824 19.1784 33.1045 17.9716 31.8977C16.7649 30.691 16.0869 29.0543 16.0869 27.3477H22.5217Z" fill="#919191"/>
<path d="M20.913 22.5215H16.0869V27.3476H20.913V22.5215Z" fill="#C6C3D8"/>
<path d="M20.9127 24.1309V25.7396H18.4997C18.2863 25.7396 18.0817 25.6548 17.9309 25.504C17.7801 25.3531 17.6953 25.1485 17.6953 24.9352C17.6953 24.7219 17.7801 24.5173 17.9309 24.3664C18.0817 24.2156 18.2863 24.1309 18.4997 24.1309H20.9127Z" fill="#DAD7E5"/>
<path d="M31.3699 36.8865C30.3081 36.8865 29.4395 34.7309 29.4395 32.0605C29.4395 30.492 29.9382 27.2344 31.3699 27.2344C33.8795 27.2585 33.9518 36.8865 31.3699 36.8865Z" fill="#9DCC6B"/>
<path d="M31.3692 36.8865C30.4442 37.4174 28.6264 35.9857 27.2912 33.6692C24.6368 29.0683 26.4868 26.43 29.5836 30.2426C29.1573 32.7522 29.7605 36.8865 31.3692 36.8865Z" fill="#84B749"/>
<path d="M35.4472 33.6783C34.112 35.9868 32.2941 37.4185 31.3691 36.8957C33.0422 36.8957 33.565 32.6568 33.1548 30.2598C36.2596 26.4312 38.0935 29.0855 35.4472 33.6783Z" fill="#B5E08C"/>
<path d="M5.63063 36.8865C4.56889 36.8865 3.7002 34.7309 3.7002 32.0605C3.7002 30.492 4.19889 27.2344 5.63063 27.2344C8.1402 27.2585 8.21259 36.8865 5.63063 36.8865Z" fill="#9DCC6B"/>
<path d="M5.62995 36.8865C4.70495 37.4174 2.88713 35.9857 1.55191 33.6692C-1.10244 29.0683 0.747563 26.43 3.8443 30.2426C3.418 32.7522 4.02126 36.8865 5.62995 36.8865Z" fill="#84B749"/>
<path d="M9.7089 33.6783C8.37369 35.9868 6.55586 37.4185 5.63086 36.8957C7.3039 36.8957 7.82673 32.6568 7.41651 30.2598C10.5213 26.4312 12.3552 29.0855 9.7089 33.6783Z" fill="#B5E08C"/>
<path d="M26.946 0C24.92 0.00212922 22.9777 0.807877 21.5451 2.24044C20.1126 3.673 19.3068 5.61536 19.3047 7.6413V8.84783C19.3047 9.06115 19.3894 9.26574 19.5403 9.41659C19.6911 9.56743 19.8957 9.65217 20.109 9.65217C20.3224 9.65217 20.527 9.56743 20.6778 9.41659C20.8286 9.26574 20.9134 9.06115 20.9134 8.84783V7.6413C20.9134 6.04136 21.549 4.50694 22.6803 3.37561C23.8116 2.24427 25.346 1.6087 26.946 1.6087C28.5459 1.6087 30.0804 2.24427 31.2117 3.37561C32.343 4.50694 32.9786 6.04136 32.9786 7.6413V13.6739C32.9786 13.8872 33.0633 14.0918 33.2142 14.2427C33.365 14.3935 33.5696 14.4783 33.7829 14.4783C33.9963 14.4783 34.2009 14.3935 34.3517 14.2427C34.5026 14.0918 34.5873 13.8872 34.5873 13.6739V7.6413C34.5852 5.61536 33.7794 3.673 32.3469 2.24044C30.9143 0.807877 28.9719 0.00212922 26.946 0Z" fill="#6FABE6"/>
<path d="M26.9454 3.2168C25.7728 3.21892 24.6488 3.6857 23.8196 4.51488C22.9904 5.34406 22.5236 6.46807 22.5215 7.64071V8.84723C22.5215 9.06056 22.6062 9.26515 22.7571 9.41599C22.9079 9.56684 23.1125 9.65158 23.3258 9.65158C23.5392 9.65158 23.7437 9.56684 23.8946 9.41599C24.0454 9.26515 24.1302 9.06056 24.1302 8.84723V7.64071C24.1302 6.89407 24.4268 6.17801 24.9547 5.65005C25.4827 5.1221 26.1988 4.82549 26.9454 4.82549C27.692 4.82549 28.4081 5.1221 28.9361 5.65005C29.464 6.17801 29.7606 6.89407 29.7606 7.64071V13.6733C29.7606 13.8866 29.8454 14.0912 29.9962 14.2421C30.147 14.3929 30.3516 14.4777 30.565 14.4777C30.7783 14.4777 30.9829 14.3929 31.1337 14.2421C31.2846 14.0912 31.3693 13.8866 31.3693 13.6733V7.64071C31.3672 6.46807 30.9004 5.34406 30.0712 4.51488C29.242 3.6857 28.118 3.21892 26.9454 3.2168Z" fill="#6FABE6"/>
<path d="M10.0544 0C8.02844 0.00212922 6.08609 0.807877 4.65352 2.24044C3.22096 3.673 2.41522 5.61536 2.41309 7.6413V13.6739C2.41309 13.8872 2.49783 14.0918 2.64867 14.2427C2.79952 14.3935 3.00411 14.4783 3.21743 14.4783C3.43076 14.4783 3.63535 14.3935 3.78619 14.2427C3.93704 14.0918 4.02178 13.8872 4.02178 13.6739V7.6413C4.02178 6.04136 4.65736 4.50694 5.78869 3.37561C6.92003 2.24427 8.45444 1.6087 10.0544 1.6087C11.6543 1.6087 13.1888 2.24427 14.3201 3.37561C15.4514 4.50694 16.087 6.04136 16.087 7.6413V8.84783C16.087 9.06115 16.1717 9.26574 16.3226 9.41659C16.4734 9.56743 16.678 9.65217 16.8913 9.65217C17.1047 9.65217 17.3093 9.56743 17.4601 9.41659C17.611 9.26574 17.6957 9.06115 17.6957 8.84783V7.6413C17.6936 5.61536 16.8878 3.673 15.4553 2.24044C14.0227 0.807877 12.0803 0.00212922 10.0544 0Z" fill="#6FABE6"/>
<path d="M10.0548 3.2168C8.88213 3.21892 7.75813 3.6857 6.92894 4.51488C6.09976 5.34406 5.63299 6.46807 5.63086 7.64071V13.6733C5.63086 13.8866 5.7156 14.0912 5.86645 14.2421C6.01729 14.3929 6.22188 14.4777 6.43521 14.4777C6.64853 14.4777 6.85312 14.3929 7.00397 14.2421C7.15481 14.0912 7.23956 13.8866 7.23956 13.6733V7.64071C7.23956 6.89407 7.53616 6.17801 8.06411 5.65005C8.59207 5.1221 9.30813 4.82549 10.0548 4.82549C10.8014 4.82549 11.5175 5.1221 12.0454 5.65005C12.5734 6.17801 12.87 6.89407 12.87 7.64071V8.84723C12.87 9.06056 12.9547 9.26515 13.1056 9.41599C13.2564 9.56684 13.461 9.65158 13.6743 9.65158C13.8877 9.65158 14.0923 9.56684 14.2431 9.41599C14.3939 9.26515 14.4787 9.06056 14.4787 8.84723V7.64071C14.4766 6.46807 14.0098 5.34406 13.1806 4.51488C12.3514 3.6857 11.2274 3.21892 10.0548 3.2168Z" fill="#6FABE6"/>
<path d="M36.1957 36.9993H0.804348C0.591021 36.9993 0.386432 36.9146 0.235588 36.7637C0.0847435 36.6129 0 36.4083 0 36.195C0 35.9816 0.0847435 35.7771 0.235588 35.6262C0.386432 35.4754 0.591021 35.3906 0.804348 35.3906H36.1957C36.409 35.3906 36.6136 35.4754 36.7644 35.6262C36.9153 35.7771 37 35.9816 37 36.195C37 36.4083 36.9153 36.6129 36.7644 36.7637C36.6136 36.9146 36.409 36.9993 36.1957 36.9993Z" fill="#A87E6B"/>
</svg>
