<svg width="460" height="118" viewBox="0 0 460 118" fill="none" xmlns="http://www.w3.org/2000/svg">
<rect width="460" height="118" rx="8" fill="#0E4944"/>
<circle cx="59" cy="59" r="35" fill="#F0FFF5"/>
<path d="M72.0432 64.2174C72.034 64.7786 71.8029 65.3133 71.4003 65.7045C70.9978 66.0956 70.4566 66.3113 69.8954 66.3044H58.9997V57.6087H55.5215V66.3044H48.1041C47.7328 66.3228 47.3635 66.2387 47.0368 66.0613C46.7101 65.8839 46.4385 65.62 46.2518 65.2986C46.065 64.9772 45.9703 64.6105 45.978 64.2388C45.9857 63.8672 46.0955 63.5048 46.2954 63.1913C48.5836 59.9119 50.2789 56.2565 51.3041 52.3913H53.7823V48.913H52.0432C52.0954 48.6058 52.1388 48.3015 52.1736 48C52.3828 46.3352 53.1911 44.8036 54.4473 43.6914C55.7036 42.5792 57.3219 41.9625 58.9997 41.9565V47.1739H62.478V42.8957C66.2345 45.113 65.5388 48.0435 66.6954 52.3913H64.2171V55C64.2171 55.2306 64.3087 55.4518 64.4718 55.6149C64.6349 55.778 64.8561 55.8696 65.0867 55.8696H67.8171C69.9736 61.5565 71.9823 62.8261 72.0432 64.2174Z" fill="#7C7D7D"/>
<path d="M71.73 65.3652L71.5996 65.5391L71.73 65.3652Z" fill="#919191"/>
<path d="M71.8609 65.1043C71.8245 65.1946 71.7808 65.2819 71.7305 65.3652C71.7808 65.2819 71.8245 65.1946 71.8609 65.1043Z" fill="#919191"/>
<path d="M71.0869 66.0087C71.2188 65.9304 71.3388 65.8338 71.4434 65.7218C71.3388 65.8338 71.2188 65.9304 71.0869 66.0087Z" fill="#919191"/>
<path d="M71.4434 65.7217C71.5001 65.6649 71.5524 65.6039 71.5999 65.5391C71.5524 65.6039 71.5001 65.6649 71.4434 65.7217Z" fill="#919191"/>
<path d="M56.3917 57.6087C56.1611 57.6087 55.9399 57.7003 55.7768 57.8634C55.6138 58.0265 55.5221 58.2476 55.5221 58.4783H54.6526C54.4219 58.4783 54.2008 58.5699 54.0377 58.7329C53.8746 58.896 53.783 59.1172 53.783 59.3478V64.5652H50.7134C50.3421 64.5836 49.9729 64.4996 49.6462 64.3222C49.3195 64.1448 49.0479 63.8809 48.8611 63.5595C48.6744 63.238 48.5797 62.8714 48.5873 62.4997C48.595 62.128 48.7048 61.7656 48.9047 61.4522C50.4919 59.1793 51.7944 56.7204 52.783 54.1304H55.7569C56.5221 55.4 56.3917 53.4174 56.3917 57.6087Z" fill="#919191"/>
<path d="M56.3909 42.6C56.3909 54.2261 56.5996 50.9826 55.7561 52.3913H53.7822C53.7822 49.9826 54.0953 50.7913 54.6518 47.1739C54.9561 45.3043 54.8953 44.5652 56.3909 42.6Z" fill="#919191"/>
<path d="M66.6961 52.3913C56.47 52.3913 59.5396 52.6 58.1309 51.7565V42.0174C58.4188 41.9752 58.7094 41.9548 59.0004 41.9565V47.1739H62.4787V42.8956C66.2352 45.113 65.5396 48.0435 66.6961 52.3913Z" fill="#919191"/>
<path d="M72.0433 64.3043C72.0433 64.6783 73.2781 64.5652 58.9998 64.5652V57.6087H58.1303C58.1303 53.4435 58.0085 55.4 58.765 54.1304H62.4781V55.8696C62.4781 56.1002 62.5697 56.3214 62.7328 56.4844C62.8959 56.6475 63.117 56.7391 63.3477 56.7391H68.1564C70.365 62.0348 72.0433 62.887 72.0433 64.3043Z" fill="#919191"/>
<path d="M72.0431 64.6348C72.0263 64.7441 72.0001 64.8517 71.9648 64.9565C72.0001 64.8517 72.0263 64.7441 72.0431 64.6348Z" fill="#919191"/>
<path d="M71.9215 64.9565C71.9215 65.0087 71.9215 65.0609 71.8607 65.1044C71.7998 65.1478 71.9041 65.0087 71.9215 64.9565Z" fill="#919191"/>
<path d="M70.304 66.3044V75H47.6953V66.3044H55.5214V68.913C55.5214 69.1437 55.613 69.3648 55.7761 69.5279C55.9392 69.691 56.1603 69.7826 56.391 69.7826H58.9997V66.3044H70.304Z" fill="#DF8761"/>
<path d="M70.3047 66.3044V72.3913H56.3916C54.7773 72.3913 53.229 71.75 52.0875 70.6085C50.946 69.467 50.3047 67.9187 50.3047 66.3044H53.7829V69.7826C53.7829 70.0132 53.8746 70.2344 54.0376 70.3975C54.2007 70.5606 54.4219 70.6522 54.6525 70.6522H57.2612C57.4918 70.6522 57.713 70.5606 57.8761 70.3975C58.0392 70.2344 58.1308 70.0132 58.1308 69.7826H59.0003V66.3044H70.3047Z" fill="#F29B75"/>
<path d="M53.7823 48.913H41.6084V52.3913H53.7823V48.913Z" fill="#FFCC66"/>
<path d="M53.7823 48.913V51.5217H44.2171C43.5252 51.5217 42.8617 51.2469 42.3725 50.7577C41.8832 50.2684 41.6084 49.6049 41.6084 48.913H53.7823Z" fill="#FFDE76"/>
<path d="M58.1301 53.2609H42.478C42.2473 53.2609 42.0262 53.1693 41.8631 53.0062C41.7 52.8431 41.6084 52.6219 41.6084 52.3913C41.6084 52.1607 41.7 51.9395 41.8631 51.7764C42.0262 51.6134 42.2473 51.5217 42.478 51.5217H58.1301C58.3608 51.5217 58.5819 51.6134 58.745 51.7764C58.9081 51.9395 58.9997 52.1607 58.9997 52.3913C58.9997 52.6219 58.9081 52.8431 58.745 53.0062C58.5819 53.1693 58.3608 53.2609 58.1301 53.2609Z" fill="#FFCC66"/>
<path d="M62.4783 35H59V47.1739H62.4783V35Z" fill="#FFCC66"/>
<path d="M58.1309 50.6522V35.8696C58.1309 35.6389 58.2225 35.4178 58.3855 35.2547C58.5486 35.0916 58.7698 35 59.0004 35C59.231 35 59.4522 35.0916 59.6153 35.2547C59.7784 35.4178 59.87 35.6389 59.87 35.8696V50.6522C59.87 50.8828 59.7784 51.104 59.6153 51.267C59.4522 51.4301 59.231 51.5217 59.0004 51.5217C58.7698 51.5217 58.5486 51.4301 58.3855 51.267C58.2225 51.104 58.1309 50.8828 58.1309 50.6522Z" fill="#FFCC66"/>
<path d="M76.3917 52.3913V55C76.3917 55.2306 76.3001 55.4518 76.137 55.6149C75.9739 55.7779 75.7527 55.8696 75.5221 55.8696H65.0873C64.8567 55.8696 64.6355 55.7779 64.4725 55.6149C64.3094 55.4518 64.2178 55.2306 64.2178 55V52.3913H76.3917Z" fill="#FFCC66"/>
<path d="M75.5213 53.2609H60.7387C60.5081 53.2609 60.2869 53.1693 60.1238 53.0062C59.9608 52.8431 59.8691 52.6219 59.8691 52.3913C59.8691 52.1607 59.9608 51.9395 60.1238 51.7764C60.2869 51.6134 60.5081 51.5217 60.7387 51.5217H75.5213C75.7519 51.5217 75.9731 51.6134 76.1362 51.7764C76.2993 51.9395 76.3909 52.1607 76.3909 52.3913C76.3909 52.6219 76.2993 52.8431 76.1362 53.0062C75.9731 53.1693 75.7519 53.2609 75.5213 53.2609Z" fill="#FFCC66"/>
<path d="M58.9997 57.6087V69.7826H56.391C56.1604 69.7826 55.9392 69.691 55.7762 69.5279C55.6131 69.3649 55.5215 69.1437 55.5215 68.9131V58.4783C55.5215 58.2476 55.6131 58.0265 55.7762 57.8634C55.9392 57.7003 56.1604 57.6087 56.391 57.6087H58.9997Z" fill="#FFCC66"/>
<path d="M59.87 54.1304V68.913C59.87 69.1437 59.7784 69.3648 59.6153 69.5279C59.4522 69.691 59.231 69.7826 59.0004 69.7826C58.7698 69.7826 58.5486 69.691 58.3855 69.5279C58.2225 69.3648 58.1309 69.1437 58.1309 68.913V54.1304C58.1309 53.8998 58.2225 53.6786 58.3855 53.5156C58.5486 53.3525 58.7698 53.2609 59.0004 53.2609C59.231 53.2609 59.4522 53.3525 59.6153 53.5156C59.7784 53.6786 59.87 53.8998 59.87 54.1304Z" fill="#FFCC66"/>
<path d="M59.8694 54.1304C59.8694 68.7565 59.7825 68.0435 59.8694 68.0435C59.1776 68.0435 58.514 67.7686 58.0248 67.2794C57.5356 66.7902 57.2607 66.1266 57.2607 65.4348V57.6087H58.1303V54.1304C58.1303 53.8998 58.2219 53.6786 58.385 53.5156C58.5481 53.3525 58.7692 53.2609 58.9999 53.2609C59.2305 53.2609 59.4517 53.3525 59.6147 53.5156C59.7778 53.6786 59.8694 53.8998 59.8694 54.1304Z" fill="#FFDE76"/>
<path d="M60.7387 51.5217H75.5213C75.7519 51.5217 75.9731 51.6134 76.1362 51.7764C76.2993 51.9395 76.3909 52.1607 76.3909 52.3913V54.1304H64.217V53.2609H60.7387C60.5081 53.2609 60.2869 53.1693 60.1238 53.0062C59.9608 52.8431 59.8691 52.6219 59.8691 52.3913C59.8691 52.1607 59.9608 51.9395 60.1238 51.7764C60.2869 51.6134 60.5081 51.5217 60.7387 51.5217Z" fill="#FFDE76"/>
<path d="M78.1304 75H39.8696C39.6389 75 39.4178 74.9084 39.2547 74.7453C39.0916 74.5822 39 74.3611 39 74.1304C39 73.8998 39.0916 73.6786 39.2547 73.5156C39.4178 73.3525 39.6389 73.2609 39.8696 73.2609H78.1304C78.3611 73.2609 78.5822 73.3525 78.7453 73.5156C78.9084 73.6786 79 73.8998 79 74.1304C79 74.3611 78.9084 74.5822 78.7453 74.7453C78.5822 74.9084 78.3611 75 78.1304 75Z" fill="#374F68"/>
<path d="M60.739 52.3913C60.7397 52.7042 60.6559 53.0114 60.4965 53.2807C60.3371 53.55 60.1081 53.7713 59.8335 53.9212C59.5589 54.0712 59.2489 54.1443 58.9362 54.1329C58.6235 54.1214 58.3197 54.0258 58.0568 53.8561C57.7939 53.6865 57.5817 53.449 57.4424 53.1688C57.3032 52.8886 57.2421 52.576 57.2657 52.264C57.2892 51.952 57.3965 51.6521 57.5762 51.396C57.7559 51.1399 58.0014 50.937 58.2868 50.8087C58.5514 50.6897 58.8415 50.6389 59.1308 50.6607C59.42 50.6825 59.6992 50.7764 59.9429 50.9337C60.1867 51.091 60.3872 51.3067 60.5262 51.5613C60.6652 51.8159 60.7384 52.1012 60.739 52.3913Z" fill="#DAD7E5"/>
<path d="M60.5823 53.1044C60.2611 53.2472 59.9041 53.2893 59.5584 53.2251C59.2128 53.161 58.8947 52.9935 58.6461 52.745C58.3975 52.4964 58.2301 52.1783 58.1659 51.8326C58.1018 51.487 58.1439 51.13 58.2867 50.8087C58.6079 50.6659 58.9649 50.6238 59.3106 50.688C59.6562 50.7521 59.9743 50.9195 60.2229 51.1681C60.4715 51.4167 60.6389 51.7348 60.7031 52.0805C60.7673 52.4261 60.7251 52.7831 60.5823 53.1044Z" fill="#EDEBF2"/>
<path d="M62.4778 35C62.4778 47.8174 62.3909 47.1739 62.4778 47.1739C61.786 47.1739 61.1224 46.8991 60.6332 46.4098C60.144 45.9206 59.8691 45.2571 59.8691 44.5652V35H62.4778Z" fill="#FFDE76"/>
<path d="M294.52 72V61.72H291.4V59.16H294.52V55.88H291.4V53.32H294.52V43.44H298.68L302.48 53.32H307.2V43.44H310.36V53.32H313.48V55.88H310.36V59.16H313.48V61.72H310.36V72H306.16L302.36 61.72H297.64V72H294.52ZM297.56 53.32H299.24L297.56 48.36H297.4L297.56 53.32ZM297.64 59.16H301.4L300.2 55.88H297.56L297.64 59.16ZM304.6 59.16H307.28L307.2 55.88H303.4L304.6 59.16ZM307.2 66.36H307.36L307.24 61.72H305.56L307.2 66.36ZM330.726 69.88H332.846V72H330.726V69.88ZM337.676 72.2C336.596 72.2 335.769 71.8933 335.196 71.28C334.622 70.6667 334.336 69.8 334.336 68.68V61.32C334.336 60.2 334.622 59.3333 335.196 58.72C335.769 58.1067 336.596 57.8 337.676 57.8C338.756 57.8 339.582 58.1067 340.156 58.72C340.729 59.3333 341.016 60.2 341.016 61.32V68.68C341.016 69.8 340.729 70.6667 340.156 71.28C339.582 71.8933 338.756 72.2 337.676 72.2ZM337.676 70.2C338.436 70.2 338.816 69.74 338.816 68.82V61.18C338.816 60.26 338.436 59.8 337.676 59.8C336.916 59.8 336.536 60.26 336.536 61.18V68.82C336.536 69.74 336.916 70.2 337.676 70.2ZM345.684 72.2C344.604 72.2 343.777 71.8933 343.204 71.28C342.63 70.6667 342.344 69.8 342.344 68.68V61.32C342.344 60.2 342.63 59.3333 343.204 58.72C343.777 58.1067 344.604 57.8 345.684 57.8C346.764 57.8 347.59 58.1067 348.164 58.72C348.737 59.3333 349.024 60.2 349.024 61.32V68.68C349.024 69.8 348.737 70.6667 348.164 71.28C347.59 71.8933 346.764 72.2 345.684 72.2ZM345.684 70.2C346.444 70.2 346.824 69.74 346.824 68.82V61.18C346.824 60.26 346.444 59.8 345.684 59.8C344.924 59.8 344.544 60.26 344.544 61.18V68.82C344.544 69.74 344.924 70.2 345.684 70.2Z" fill="white" fill-opacity="0.3"/>
<path d="M321.891 72.4C319.731 72.4 318.077 71.7867 316.931 70.56C315.784 69.3333 315.211 67.6 315.211 65.36V50.64C315.211 48.4 315.784 46.6667 316.931 45.44C318.077 44.2133 319.731 43.6 321.891 43.6C324.051 43.6 325.704 44.2133 326.851 45.44C327.997 46.6667 328.571 48.4 328.571 50.64V65.36C328.571 67.6 327.997 69.3333 326.851 70.56C325.704 71.7867 324.051 72.4 321.891 72.4ZM321.891 68.4C323.411 68.4 324.171 67.48 324.171 65.64V50.36C324.171 48.52 323.411 47.6 321.891 47.6C320.371 47.6 319.611 48.52 319.611 50.36V65.64C319.611 67.48 320.371 68.4 321.891 68.4Z" fill="white"/>
<path d="M113.094 54.5078L118.453 66H117.219L115.414 62.2188H110.461L108.664 66H107.383L112.812 54.5078H113.094ZM112.953 56.9453L110.977 61.1094H114.906L112.953 56.9453ZM128.312 59.2656L127.445 59.8047C126.695 58.8099 125.672 58.3125 124.375 58.3125C123.339 58.3125 122.477 58.6458 121.789 59.3125C121.107 59.9792 120.766 60.7891 120.766 61.7422C120.766 62.362 120.922 62.9453 121.234 63.4922C121.552 64.0391 121.984 64.4635 122.531 64.7656C123.083 65.0677 123.701 65.2188 124.383 65.2188C125.633 65.2188 126.654 64.7214 127.445 63.7266L128.312 64.2969C127.906 64.9062 127.359 65.3802 126.672 65.7188C125.99 66.0521 125.211 66.2188 124.336 66.2188C122.992 66.2188 121.878 65.7917 120.992 64.9375C120.107 64.0833 119.664 63.0443 119.664 61.8203C119.664 60.9974 119.87 60.2344 120.281 59.5312C120.698 58.8229 121.268 58.2708 121.992 57.875C122.716 57.4792 123.526 57.2812 124.422 57.2812C124.984 57.2812 125.526 57.3672 126.047 57.5391C126.573 57.7109 127.018 57.9349 127.383 58.2109C127.747 58.487 128.057 58.8385 128.312 59.2656ZM131.375 54.3438H132.477V57.5H134.211V58.4375H132.477V66H131.375V58.4375H129.883V57.5H131.375V54.3438ZM136.227 54C136.477 54 136.69 54.0885 136.867 54.2656C137.044 54.4427 137.133 54.6562 137.133 54.9062C137.133 55.151 137.044 55.362 136.867 55.5391C136.69 55.7161 136.477 55.8047 136.227 55.8047C135.982 55.8047 135.771 55.7161 135.594 55.5391C135.417 55.362 135.328 55.151 135.328 54.9062C135.328 54.6562 135.417 54.4427 135.594 54.2656C135.771 54.0885 135.982 54 136.227 54ZM135.68 57.5H136.781V66H135.68V57.5ZM138.242 57.5H139.406L142.25 63.6875L145.07 57.5H146.242L142.352 66H142.156L138.242 57.5ZM155.078 63.1797L156 63.6641C155.698 64.2578 155.349 64.737 154.953 65.1016C154.557 65.4661 154.112 65.7448 153.617 65.9375C153.122 66.125 152.562 66.2188 151.938 66.2188C150.552 66.2188 149.469 65.7656 148.688 64.8594C147.906 63.9479 147.516 62.9193 147.516 61.7734C147.516 60.6953 147.846 59.7344 148.508 58.8906C149.346 57.8177 150.469 57.2812 151.875 57.2812C153.323 57.2812 154.479 57.8307 155.344 58.9297C155.958 59.7057 156.271 60.6745 156.281 61.8359H148.641C148.661 62.8255 148.977 63.638 149.586 64.2734C150.195 64.9036 150.948 65.2188 151.844 65.2188C152.276 65.2188 152.695 65.1432 153.102 64.9922C153.513 64.8411 153.862 64.6406 154.148 64.3906C154.435 64.1406 154.745 63.737 155.078 63.1797ZM155.078 60.8906C154.932 60.3073 154.719 59.8411 154.438 59.4922C154.161 59.1432 153.794 58.862 153.336 58.6484C152.878 58.4349 152.396 58.3281 151.891 58.3281C151.057 58.3281 150.341 58.5964 149.742 59.1328C149.305 59.5234 148.974 60.1094 148.75 60.8906H155.078ZM163.148 54C163.398 54 163.612 54.0885 163.789 54.2656C163.966 54.4427 164.055 54.6562 164.055 54.9062C164.055 55.151 163.966 55.362 163.789 55.5391C163.612 55.7161 163.398 55.8047 163.148 55.8047C162.904 55.8047 162.693 55.7161 162.516 55.5391C162.339 55.362 162.25 55.151 162.25 54.9062C162.25 54.6562 162.339 54.4427 162.516 54.2656C162.693 54.0885 162.904 54 163.148 54ZM162.602 57.5H163.703V66H162.602V57.5ZM165.969 57.5H167.062V59.0234C167.5 58.4401 167.984 58.0052 168.516 57.7188C169.047 57.4271 169.625 57.2812 170.25 57.2812C170.885 57.2812 171.448 57.4427 171.938 57.7656C172.432 58.0885 172.797 58.5234 173.031 59.0703C173.266 59.6172 173.383 60.4688 173.383 61.625V66H172.297V61.9453C172.297 60.9661 172.255 60.3125 172.172 59.9844C172.042 59.4219 171.797 59 171.438 58.7188C171.078 58.4323 170.609 58.2891 170.031 58.2891C169.37 58.2891 168.776 58.5078 168.25 58.9453C167.729 59.3828 167.385 59.9245 167.219 60.5703C167.115 60.9922 167.062 61.763 167.062 62.8828V66H165.969V57.5ZM174.93 57.5H176.094L178.938 63.6875L181.758 57.5H182.93L179.039 66H178.844L174.93 57.5ZM191.766 63.1797L192.688 63.6641C192.385 64.2578 192.036 64.737 191.641 65.1016C191.245 65.4661 190.799 65.7448 190.305 65.9375C189.81 66.125 189.25 66.2188 188.625 66.2188C187.24 66.2188 186.156 65.7656 185.375 64.8594C184.594 63.9479 184.203 62.9193 184.203 61.7734C184.203 60.6953 184.534 59.7344 185.195 58.8906C186.034 57.8177 187.156 57.2812 188.562 57.2812C190.01 57.2812 191.167 57.8307 192.031 58.9297C192.646 59.7057 192.958 60.6745 192.969 61.8359H185.328C185.349 62.8255 185.664 63.638 186.273 64.2734C186.883 64.9036 187.635 65.2188 188.531 65.2188C188.964 65.2188 189.383 65.1432 189.789 64.9922C190.201 64.8411 190.549 64.6406 190.836 64.3906C191.122 64.1406 191.432 63.737 191.766 63.1797ZM191.766 60.8906C191.62 60.3073 191.406 59.8411 191.125 59.4922C190.849 59.1432 190.482 58.862 190.023 58.6484C189.565 58.4349 189.083 58.3281 188.578 58.3281C187.745 58.3281 187.029 58.5964 186.43 59.1328C185.992 59.5234 185.661 60.1094 185.438 60.8906H191.766ZM199.289 58.4297L198.586 59.1562C198.003 58.5885 197.432 58.3047 196.875 58.3047C196.521 58.3047 196.216 58.4219 195.961 58.6562C195.711 58.8906 195.586 59.1641 195.586 59.4766C195.586 59.7526 195.69 60.0156 195.898 60.2656C196.107 60.5208 196.544 60.8203 197.211 61.1641C198.023 61.5859 198.576 61.9922 198.867 62.3828C199.154 62.7786 199.297 63.224 199.297 63.7188C199.297 64.4167 199.052 65.0078 198.562 65.4922C198.073 65.9766 197.461 66.2188 196.727 66.2188C196.237 66.2188 195.768 66.112 195.32 65.8984C194.878 65.6849 194.51 65.3906 194.219 65.0156L194.906 64.2344C195.464 64.8646 196.055 65.1797 196.68 65.1797C197.117 65.1797 197.49 65.0391 197.797 64.7578C198.104 64.4766 198.258 64.1458 198.258 63.7656C198.258 63.4531 198.156 63.1745 197.953 62.9297C197.75 62.6901 197.292 62.388 196.578 62.0234C195.812 61.6276 195.292 61.237 195.016 60.8516C194.74 60.4661 194.602 60.026 194.602 59.5312C194.602 58.8854 194.82 58.349 195.258 57.9219C195.701 57.4948 196.258 57.2812 196.93 57.2812C197.711 57.2812 198.497 57.6641 199.289 58.4297ZM202.188 54.3438H203.289V57.5H205.023V58.4375H203.289V66H202.188V58.4375H200.695V57.5H202.188V54.3438ZM206.648 57.5H207.734V58.9688C208.115 58.4271 208.505 58.0312 208.906 57.7812C209.458 57.4479 210.039 57.2812 210.648 57.2812C211.06 57.2812 211.451 57.362 211.82 57.5234C212.19 57.6849 212.492 57.901 212.727 58.1719C212.961 58.4375 213.164 58.8203 213.336 59.3203C213.701 58.6536 214.156 58.1484 214.703 57.8047C215.25 57.4557 215.839 57.2812 216.469 57.2812C217.057 57.2812 217.576 57.4297 218.023 57.7266C218.477 58.0234 218.812 58.4375 219.031 58.9688C219.25 59.5 219.359 60.2969 219.359 61.3594V66H218.242V61.3594C218.242 60.4479 218.177 59.8229 218.047 59.4844C217.917 59.1406 217.693 58.8646 217.375 58.6562C217.062 58.4479 216.688 58.3438 216.25 58.3438C215.719 58.3438 215.232 58.5 214.789 58.8125C214.352 59.125 214.031 59.5417 213.828 60.0625C213.625 60.5833 213.523 61.4531 213.523 62.6719V66H212.438V61.6484C212.438 60.6224 212.372 59.9271 212.242 59.5625C212.117 59.1927 211.896 58.8984 211.578 58.6797C211.26 58.4557 210.883 58.3438 210.445 58.3438C209.94 58.3438 209.466 58.4974 209.023 58.8047C208.586 59.1068 208.26 59.5156 208.047 60.0312C207.839 60.5469 207.734 61.3359 207.734 62.3984V66H206.648V57.5ZM228.828 63.1797L229.75 63.6641C229.448 64.2578 229.099 64.737 228.703 65.1016C228.307 65.4661 227.862 65.7448 227.367 65.9375C226.872 66.125 226.312 66.2188 225.688 66.2188C224.302 66.2188 223.219 65.7656 222.438 64.8594C221.656 63.9479 221.266 62.9193 221.266 61.7734C221.266 60.6953 221.596 59.7344 222.258 58.8906C223.096 57.8177 224.219 57.2812 225.625 57.2812C227.073 57.2812 228.229 57.8307 229.094 58.9297C229.708 59.7057 230.021 60.6745 230.031 61.8359H222.391C222.411 62.8255 222.727 63.638 223.336 64.2734C223.945 64.9036 224.698 65.2188 225.594 65.2188C226.026 65.2188 226.445 65.1432 226.852 64.9922C227.263 64.8411 227.612 64.6406 227.898 64.3906C228.185 64.1406 228.495 63.737 228.828 63.1797ZM228.828 60.8906C228.682 60.3073 228.469 59.8411 228.188 59.4922C227.911 59.1432 227.544 58.862 227.086 58.6484C226.628 58.4349 226.146 58.3281 225.641 58.3281C224.807 58.3281 224.091 58.5964 223.492 59.1328C223.055 59.5234 222.724 60.1094 222.5 60.8906H228.828ZM232.078 57.5H233.172V59.0234C233.609 58.4401 234.094 58.0052 234.625 57.7188C235.156 57.4271 235.734 57.2812 236.359 57.2812C236.995 57.2812 237.557 57.4427 238.047 57.7656C238.542 58.0885 238.906 58.5234 239.141 59.0703C239.375 59.6172 239.492 60.4688 239.492 61.625V66H238.406V61.9453C238.406 60.9661 238.365 60.3125 238.281 59.9844C238.151 59.4219 237.906 59 237.547 58.7188C237.188 58.4323 236.719 58.2891 236.141 58.2891C235.479 58.2891 234.885 58.5078 234.359 58.9453C233.839 59.3828 233.495 59.9245 233.328 60.5703C233.224 60.9922 233.172 61.763 233.172 62.8828V66H232.078V57.5ZM242.797 54.3438H243.898V57.5H245.633V58.4375H243.898V66H242.797V58.4375H241.305V57.5H242.797V54.3438ZM251.539 58.4297L250.836 59.1562C250.253 58.5885 249.682 58.3047 249.125 58.3047C248.771 58.3047 248.466 58.4219 248.211 58.6562C247.961 58.8906 247.836 59.1641 247.836 59.4766C247.836 59.7526 247.94 60.0156 248.148 60.2656C248.357 60.5208 248.794 60.8203 249.461 61.1641C250.273 61.5859 250.826 61.9922 251.117 62.3828C251.404 62.7786 251.547 63.224 251.547 63.7188C251.547 64.4167 251.302 65.0078 250.812 65.4922C250.323 65.9766 249.711 66.2188 248.977 66.2188C248.487 66.2188 248.018 66.112 247.57 65.8984C247.128 65.6849 246.76 65.3906 246.469 65.0156L247.156 64.2344C247.714 64.8646 248.305 65.1797 248.93 65.1797C249.367 65.1797 249.74 65.0391 250.047 64.7578C250.354 64.4766 250.508 64.1458 250.508 63.7656C250.508 63.4531 250.406 63.1745 250.203 62.9297C250 62.6901 249.542 62.388 248.828 62.0234C248.062 61.6276 247.542 61.237 247.266 60.8516C246.99 60.4661 246.852 60.026 246.852 59.5312C246.852 58.8854 247.07 58.349 247.508 57.9219C247.951 57.4948 248.508 57.2812 249.18 57.2812C249.961 57.2812 250.747 57.6641 251.539 58.4297Z" fill="#41EC7B"/>
</svg>
