<svg width="975" height="555" viewBox="0 0 1064 555" fill="none" xmlns="http://www.w3.org/2000/svg">
<g filter="url(#filter0_d)">
<rect x="48" y="24" width="968" height="459" rx="8" fill="#FEFFFF"/>
</g>
<rect x="72" y="48" width="212" height="120" rx="10" fill="#0E4944" fill-opacity="0.1"/>
<path d="M88.1934 104.219V103.381H92.9219V104.219H91V112H90.1211V104.219H88.1934ZM97.041 105.461C98.0215 105.461 98.834 105.816 99.4785 106.527C100.064 107.176 100.357 107.943 100.357 108.83C100.357 109.721 100.047 110.5 99.4258 111.168C98.8086 111.832 98.0137 112.164 97.041 112.164C96.0645 112.164 95.2656 111.832 94.6445 111.168C94.0273 110.5 93.7188 109.721 93.7188 108.83C93.7188 107.947 94.0117 107.182 94.5977 106.533C95.2422 105.818 96.0566 105.461 97.041 105.461ZM97.041 106.264C96.3613 106.264 95.7773 106.516 95.2891 107.02C94.8008 107.523 94.5566 108.133 94.5566 108.848C94.5566 109.309 94.668 109.738 94.8906 110.137C95.1133 110.535 95.4141 110.844 95.793 111.062C96.1719 111.277 96.5879 111.385 97.041 111.385C97.4941 111.385 97.9102 111.277 98.2891 111.062C98.668 110.844 98.9688 110.535 99.1914 110.137C99.4141 109.738 99.5254 109.309 99.5254 108.848C99.5254 108.133 99.2793 107.523 98.7871 107.02C98.2988 106.516 97.7168 106.264 97.041 106.264ZM102.602 103.258H103.428V105.625H104.729V106.328H103.428V112H102.602V106.328H101.482V105.625H102.602V103.258ZM112.305 105.625V112H111.496V110.904C111.152 111.322 110.766 111.637 110.336 111.848C109.91 112.059 109.443 112.164 108.936 112.164C108.033 112.164 107.262 111.838 106.621 111.186C105.984 110.529 105.666 109.732 105.666 108.795C105.666 107.877 105.988 107.092 106.633 106.439C107.277 105.787 108.053 105.461 108.959 105.461C109.482 105.461 109.955 105.572 110.377 105.795C110.803 106.018 111.176 106.352 111.496 106.797V105.625H112.305ZM109.023 106.252C108.566 106.252 108.145 106.365 107.758 106.592C107.371 106.814 107.062 107.129 106.832 107.535C106.605 107.941 106.492 108.371 106.492 108.824C106.492 109.273 106.607 109.703 106.838 110.113C107.068 110.523 107.377 110.844 107.764 111.074C108.154 111.301 108.572 111.414 109.018 111.414C109.467 111.414 109.893 111.301 110.295 111.074C110.697 110.848 111.006 110.541 111.221 110.154C111.439 109.768 111.549 109.332 111.549 108.848C111.549 108.109 111.305 107.492 110.816 106.996C110.332 106.5 109.734 106.252 109.023 106.252ZM114.033 103.164H114.854V112H114.033V103.164ZM119.898 103.381H120.76V112H119.898V103.381ZM122.605 105.625H123.426V106.768C123.754 106.33 124.117 106.004 124.516 105.789C124.914 105.57 125.348 105.461 125.816 105.461C126.293 105.461 126.715 105.582 127.082 105.824C127.453 106.066 127.727 106.393 127.902 106.803C128.078 107.213 128.166 107.852 128.166 108.719V112H127.352V108.959C127.352 108.225 127.32 107.734 127.258 107.488C127.16 107.066 126.977 106.75 126.707 106.539C126.438 106.324 126.086 106.217 125.652 106.217C125.156 106.217 124.711 106.381 124.316 106.709C123.926 107.037 123.668 107.443 123.543 107.928C123.465 108.244 123.426 108.822 123.426 109.662V112H122.605V105.625ZM129.326 105.625H130.199L132.332 110.266L134.447 105.625H135.326L132.408 112H132.262L129.326 105.625ZM141.953 109.885L142.645 110.248C142.418 110.693 142.156 111.053 141.859 111.326C141.562 111.6 141.229 111.809 140.857 111.953C140.486 112.094 140.066 112.164 139.598 112.164C138.559 112.164 137.746 111.824 137.16 111.145C136.574 110.461 136.281 109.689 136.281 108.83C136.281 108.021 136.529 107.301 137.025 106.668C137.654 105.863 138.496 105.461 139.551 105.461C140.637 105.461 141.504 105.873 142.152 106.697C142.613 107.279 142.848 108.006 142.855 108.877H137.125C137.141 109.619 137.377 110.229 137.834 110.705C138.291 111.178 138.855 111.414 139.527 111.414C139.852 111.414 140.166 111.357 140.471 111.244C140.779 111.131 141.041 110.98 141.256 110.793C141.471 110.605 141.703 110.303 141.953 109.885ZM141.953 108.168C141.844 107.73 141.684 107.381 141.473 107.119C141.266 106.857 140.99 106.646 140.646 106.486C140.303 106.326 139.941 106.246 139.562 106.246C138.938 106.246 138.4 106.447 137.951 106.85C137.623 107.143 137.375 107.582 137.207 108.168H141.953ZM147.596 106.322L147.068 106.867C146.631 106.441 146.203 106.229 145.785 106.229C145.52 106.229 145.291 106.316 145.1 106.492C144.912 106.668 144.818 106.873 144.818 107.107C144.818 107.314 144.896 107.512 145.053 107.699C145.209 107.891 145.537 108.115 146.037 108.373C146.646 108.689 147.061 108.994 147.279 109.287C147.494 109.584 147.602 109.918 147.602 110.289C147.602 110.812 147.418 111.256 147.051 111.619C146.684 111.982 146.225 112.164 145.674 112.164C145.307 112.164 144.955 112.084 144.619 111.924C144.287 111.764 144.012 111.543 143.793 111.262L144.309 110.676C144.727 111.148 145.17 111.385 145.639 111.385C145.967 111.385 146.246 111.279 146.477 111.068C146.707 110.857 146.822 110.609 146.822 110.324C146.822 110.09 146.746 109.881 146.594 109.697C146.441 109.518 146.098 109.291 145.562 109.018C144.988 108.721 144.598 108.428 144.391 108.139C144.184 107.85 144.08 107.52 144.08 107.148C144.08 106.664 144.244 106.262 144.572 105.941C144.904 105.621 145.322 105.461 145.826 105.461C146.412 105.461 147.002 105.748 147.596 106.322ZM149.77 103.258H150.596V105.625H151.896V106.328H150.596V112H149.77V106.328H148.65V105.625H149.77V103.258ZM153.115 105.625H153.93V106.727C154.215 106.32 154.508 106.023 154.809 105.836C155.223 105.586 155.658 105.461 156.115 105.461C156.424 105.461 156.717 105.521 156.994 105.643C157.271 105.764 157.498 105.926 157.674 106.129C157.85 106.328 158.002 106.615 158.131 106.99C158.404 106.49 158.746 106.111 159.156 105.854C159.566 105.592 160.008 105.461 160.48 105.461C160.922 105.461 161.311 105.572 161.646 105.795C161.986 106.018 162.238 106.328 162.402 106.727C162.566 107.125 162.648 107.723 162.648 108.52V112H161.811V108.52C161.811 107.836 161.762 107.367 161.664 107.113C161.566 106.855 161.398 106.648 161.16 106.492C160.926 106.336 160.645 106.258 160.316 106.258C159.918 106.258 159.553 106.375 159.221 106.609C158.893 106.844 158.652 107.156 158.5 107.547C158.348 107.938 158.271 108.59 158.271 109.504V112H157.457V108.736C157.457 107.967 157.408 107.445 157.311 107.172C157.217 106.895 157.051 106.674 156.812 106.51C156.574 106.342 156.291 106.258 155.963 106.258C155.584 106.258 155.229 106.373 154.896 106.604C154.568 106.83 154.324 107.137 154.164 107.523C154.008 107.91 153.93 108.502 153.93 109.299V112H153.115V105.625ZM169.75 109.885L170.441 110.248C170.215 110.693 169.953 111.053 169.656 111.326C169.359 111.6 169.025 111.809 168.654 111.953C168.283 112.094 167.863 112.164 167.395 112.164C166.355 112.164 165.543 111.824 164.957 111.145C164.371 110.461 164.078 109.689 164.078 108.83C164.078 108.021 164.326 107.301 164.822 106.668C165.451 105.863 166.293 105.461 167.348 105.461C168.434 105.461 169.301 105.873 169.949 106.697C170.41 107.279 170.645 108.006 170.652 108.877H164.922C164.938 109.619 165.174 110.229 165.631 110.705C166.088 111.178 166.652 111.414 167.324 111.414C167.648 111.414 167.963 111.357 168.268 111.244C168.576 111.131 168.838 110.98 169.053 110.793C169.268 110.605 169.5 110.303 169.75 109.885ZM169.75 108.168C169.641 107.73 169.48 107.381 169.27 107.119C169.062 106.857 168.787 106.646 168.443 106.486C168.1 106.326 167.738 106.246 167.359 106.246C166.734 106.246 166.197 106.447 165.748 106.85C165.42 107.143 165.172 107.582 165.004 108.168H169.75ZM172.188 105.625H173.008V106.768C173.336 106.33 173.699 106.004 174.098 105.789C174.496 105.57 174.93 105.461 175.398 105.461C175.875 105.461 176.297 105.582 176.664 105.824C177.035 106.066 177.309 106.393 177.484 106.803C177.66 107.213 177.748 107.852 177.748 108.719V112H176.934V108.959C176.934 108.225 176.902 107.734 176.84 107.488C176.742 107.066 176.559 106.75 176.289 106.539C176.02 106.324 175.668 106.217 175.234 106.217C174.738 106.217 174.293 106.381 173.898 106.709C173.508 107.037 173.25 107.443 173.125 107.928C173.047 108.244 173.008 108.822 173.008 109.662V112H172.188V105.625ZM180.227 103.258H181.053V105.625H182.354V106.328H181.053V112H180.227V106.328H179.107V105.625H180.227V103.258Z" fill="#737588"/>
<path d="M116.3 139.444H110.42V136.644L116.02 123.4H119.38V136.644H120.836V139.444H119.38V143H116.3V139.444ZM116.3 136.644V129H116.244L113.22 136.644H116.3ZM122.359 140.032H125.327V143H122.359V140.032ZM132.088 143.28C130.539 143.28 129.344 142.869 128.504 142.048C127.683 141.208 127.272 140.004 127.272 138.436V136.7C127.272 135.729 127.431 134.917 127.748 134.264C128.066 133.592 128.579 133.069 129.288 132.696V132.64C128.635 132.285 128.15 131.8 127.832 131.184C127.534 130.549 127.384 129.747 127.384 128.776V127.964C127.384 126.396 127.786 125.201 128.588 124.38C129.41 123.54 130.576 123.12 132.088 123.12C133.6 123.12 134.758 123.54 135.56 124.38C136.382 125.201 136.792 126.396 136.792 127.964V128.776C136.792 130.643 136.158 131.931 134.888 132.64V132.696C135.598 133.069 136.111 133.592 136.428 134.264C136.746 134.917 136.904 135.729 136.904 136.7V138.436C136.904 140.004 136.484 141.208 135.644 142.048C134.823 142.869 133.638 143.28 132.088 143.28ZM132.088 131.38C133.171 131.38 133.712 130.727 133.712 129.42V127.88C133.712 126.573 133.171 125.92 132.088 125.92C131.006 125.92 130.464 126.573 130.464 127.88V129.42C130.464 130.727 131.006 131.38 132.088 131.38ZM132.088 140.48C133.246 140.48 133.824 139.743 133.824 138.268V136.392C133.824 134.917 133.246 134.18 132.088 134.18C130.931 134.18 130.352 134.917 130.352 136.392V138.268C130.352 139.743 130.931 140.48 132.088 140.48ZM143.355 143.28C141.862 143.28 140.723 142.86 139.939 142.02C139.155 141.161 138.763 139.939 138.763 138.352V136.812H141.675V138.576C141.675 139.845 142.207 140.48 143.271 140.48C144.335 140.48 144.867 139.845 144.867 138.576V134.18C144.867 132.892 144.335 132.248 143.271 132.248C142.207 132.248 141.675 132.892 141.675 134.18V134.348H138.763L139.323 123.4H147.443V126.2H142.067L141.815 130.876H141.871C142.45 129.924 143.337 129.448 144.531 129.448C145.651 129.448 146.501 129.831 147.079 130.596C147.658 131.361 147.947 132.472 147.947 133.928V138.352C147.947 139.939 147.555 141.161 146.771 142.02C145.987 142.86 144.849 143.28 143.355 143.28ZM152.858 134.292C151.887 134.292 151.15 134.021 150.646 133.48C150.142 132.939 149.89 132.164 149.89 131.156V126.256C149.89 125.248 150.142 124.473 150.646 123.932C151.15 123.391 151.887 123.12 152.858 123.12C153.829 123.12 154.566 123.391 155.07 123.932C155.574 124.473 155.826 125.248 155.826 126.256V131.156C155.826 132.164 155.574 132.939 155.07 133.48C154.566 134.021 153.829 134.292 152.858 134.292ZM159.97 123.4H161.93L154.342 143H152.382L159.97 123.4ZM152.858 132.528C153.53 132.528 153.866 132.117 153.866 131.296V126.116C153.866 125.295 153.53 124.884 152.858 124.884C152.186 124.884 151.85 125.295 151.85 126.116V131.296C151.85 132.117 152.186 132.528 152.858 132.528ZM161.454 143.28C160.483 143.28 159.746 143.009 159.242 142.468C158.738 141.927 158.486 141.152 158.486 140.144V135.244C158.486 134.236 158.738 133.461 159.242 132.92C159.746 132.379 160.483 132.108 161.454 132.108C162.425 132.108 163.162 132.379 163.666 132.92C164.17 133.461 164.422 134.236 164.422 135.244V140.144C164.422 141.152 164.17 141.927 163.666 142.468C163.162 143.009 162.425 143.28 161.454 143.28ZM161.454 141.516C162.126 141.516 162.462 141.105 162.462 140.284V135.104C162.462 134.283 162.126 133.872 161.454 133.872C160.782 133.872 160.446 134.283 160.446 135.104V140.284C160.446 141.105 160.782 141.516 161.454 141.516Z" fill="#0EBE7B"/>
<path d="M94 94.25C92.6167 94.25 91.55 93.8833 90.8 93.15C90.0667 92.4 89.7 91.325 89.7 89.925V88.375C89.7 87.5083 89.8417 86.7833 90.125 86.2C90.4083 85.6 90.8667 85.1333 91.5 84.8V84.75C90.9167 84.4333 90.4833 84 90.2 83.45C89.9333 82.8833 89.8 82.1667 89.8 81.3V80.575C89.8 79.175 90.1583 78.1083 90.875 77.375C91.6083 76.625 92.65 76.25 94 76.25C95.35 76.25 96.3833 76.625 97.1 77.375C97.8333 78.1083 98.2 79.175 98.2 80.575V81.3C98.2 82.9667 97.6333 84.1167 96.5 84.75V84.8C97.1333 85.1333 97.5917 85.6 97.875 86.2C98.1583 86.7833 98.3 87.5083 98.3 88.375V89.925C98.3 91.325 97.925 92.4 97.175 93.15C96.4417 93.8833 95.3833 94.25 94 94.25ZM94 83.625C94.9667 83.625 95.45 83.0417 95.45 81.875V80.5C95.45 79.3333 94.9667 78.75 94 78.75C93.0333 78.75 92.55 79.3333 92.55 80.5V81.875C92.55 83.0417 93.0333 83.625 94 83.625ZM94 91.75C95.0333 91.75 95.55 91.0917 95.55 89.775V88.1C95.55 86.7833 95.0333 86.125 94 86.125C92.9667 86.125 92.45 86.7833 92.45 88.1V89.775C92.45 91.0917 92.9667 91.75 94 91.75ZM105.41 79H99.8598V76.5H108.11V78.9L103.81 94H101.01L105.41 79ZM114.645 90.825H109.395V88.325L114.395 76.5H117.395V88.325H118.695V90.825H117.395V94H114.645V90.825ZM114.645 88.325V81.5H114.595L111.895 88.325H114.645Z" fill="#161A35"/>
<circle cx="227.5" cy="107.5" r="43.5" fill="white" fill-opacity="0.25"/>
<path d="M198.221 119.109V104.706C198.22 101.992 199.156 99.3596 200.871 97.2554C202.586 95.1512 204.976 93.7037 207.635 93.1578C207.982 93.0883 208.343 93.1597 208.638 93.3561C208.932 93.5525 209.137 93.858 209.206 94.2053C209.276 94.5525 209.204 94.9132 209.008 95.2078C208.811 95.5025 208.506 95.707 208.159 95.7765C206.1 96.1999 204.249 97.3182 202.916 98.944C201.584 100.57 200.85 102.604 200.839 104.706V119.109C200.839 119.457 200.701 119.79 200.456 120.035C200.21 120.281 199.877 120.419 199.53 120.419C199.183 120.419 198.85 120.281 198.604 120.035C198.359 119.79 198.221 119.457 198.221 119.109Z" fill="#A87E6B"/>
<path d="M258.451 96.5493C258.451 99.4561 254.366 100.739 251.511 100.019L249.285 99.4692C247.557 105.511 244.587 111.126 240.565 115.954C239.95 116.7 240.12 114.907 240.12 126.966C241.406 127.695 242.466 128.764 243.184 130.056C243.748 131.121 244.045 132.307 244.048 133.513H238.81L234.882 129.585C234.882 117.931 234.987 118.062 234.568 116.57C227.712 118.399 220.503 118.458 213.618 116.74C212.309 118.376 211.523 118.769 207.386 121.728V126.966C208.672 127.695 209.732 128.764 210.45 130.056C211.014 131.121 211.311 132.307 211.314 133.513H206.076L202.148 129.585V119.11C202.653 118.773 203.084 118.337 203.415 117.829C203.746 117.32 203.97 116.749 204.073 116.151C204.176 115.553 204.156 114.941 204.014 114.351C203.872 113.761 203.611 113.206 203.248 112.72C201.782 110.782 202.148 109.944 202.148 98.9324C202.144 98.1264 202.303 97.328 202.615 96.5849C202.927 95.8419 203.386 95.1695 203.965 94.6083C204.543 94.047 205.229 93.6083 205.981 93.3186C206.733 93.0289 207.536 92.8942 208.341 92.9224C210.057 92.9224 221.042 95.8685 237.003 93.2105L240.12 92.9224C238.977 92.5408 237.982 91.8097 237.278 90.8322C236.573 89.8548 236.193 88.6805 236.192 87.4754V85.0662C238.745 85.0662 240.774 84.7912 242.738 86.8208L245.357 85.0662H250.595C258.372 95.4364 258.451 95.1876 258.451 96.5493Z" fill="#A87E6B"/>
<path d="M258.451 96.5493C258.451 99.4168 254.523 100.687 251.708 100.058L249.286 99.4692C247.558 105.511 244.588 111.126 240.565 115.954C239.95 116.7 240.12 114.907 240.12 126.966C241.45 127.712 242.536 128.826 243.249 130.174L242.83 130.894H239.74C239.446 130.896 239.154 130.839 238.881 130.727C238.609 130.615 238.362 130.45 238.153 130.242C237.945 130.034 237.78 129.786 237.668 129.514C237.556 129.241 237.5 128.949 237.501 128.655C237.501 119.149 237.645 118.18 237.187 116.57C235.982 116.871 235.956 116.884 234.699 117.133C234.32 114.514 231.779 109.879 230.025 111.633C229.902 111.755 229.805 111.9 229.738 112.059C229.672 112.219 229.638 112.39 229.638 112.563C229.638 112.736 229.672 112.907 229.738 113.066C229.805 113.226 229.902 113.371 230.025 113.493C231.026 114.498 231.737 115.756 232.081 117.133C226.834 118.219 221.426 118.272 216.159 117.29C218.104 114.824 219.165 111.776 219.17 108.635C219.17 108.288 219.032 107.954 218.787 107.709C218.541 107.463 218.208 107.325 217.861 107.325C217.514 107.325 217.181 107.463 216.935 107.709C216.689 107.954 216.552 108.288 216.552 108.635C216.552 113.767 213.619 115.587 213.619 116.74C212.309 118.376 211.524 118.769 207.386 121.728V126.966C208.716 127.712 209.802 128.826 210.515 130.174L210.096 130.894H207.006C206.712 130.896 206.42 130.839 206.147 130.727C205.875 130.615 205.627 130.45 205.419 130.242C205.211 130.034 205.046 129.786 204.934 129.514C204.822 129.241 204.765 128.949 204.767 128.655V119.11C205.379 118.701 205.88 118.148 206.228 117.499C206.575 116.851 206.757 116.127 206.757 115.391C206.757 112.694 204.767 112.563 204.767 109.433C204.767 98.7753 204.204 96.9945 206.522 94.6769C207.358 93.8441 208.426 93.2829 209.586 93.0664C223.845 95.6852 233.036 93.6033 240.12 92.9224C238.977 92.5408 237.983 91.8097 237.278 90.8322C236.573 89.8548 236.193 88.6805 236.192 87.4754V85.0662C238.745 85.0662 240.775 84.7912 242.739 86.8208L245.358 85.0662H250.595C258.373 95.4364 258.451 95.1876 258.451 96.5493Z" fill="#BE927C"/>
<path d="M234.882 118.009C234.882 117.708 234.804 117.42 234.738 117.132C234.805 117.421 234.854 117.714 234.882 118.009Z" fill="#A87E6B"/>
<path d="M251.709 100.058L249.286 99.4688C249.155 99.9533 248.998 100.425 248.854 100.896L247.047 99.0891C246.925 98.967 246.828 98.8221 246.762 98.6626C246.696 98.5031 246.662 98.3321 246.662 98.1594C246.662 97.9868 246.696 97.8158 246.762 97.6563C246.828 97.4968 246.925 97.3519 247.047 97.2298C247.169 97.1077 247.314 97.0109 247.474 96.9448C247.633 96.8787 247.804 96.8447 247.977 96.8447C248.149 96.8447 248.32 96.8787 248.48 96.9448C248.639 97.0109 248.784 97.1077 248.906 97.2298C252.036 100.359 251.682 100.032 251.709 100.058Z" fill="#A87E6B"/>
<path d="M241.43 88.9941C241.154 88.9923 240.886 88.9034 240.663 88.74C240.441 88.5766 240.276 88.3471 240.191 88.0843C240.107 87.8215 240.108 87.5388 240.194 87.2765C240.28 87.0143 240.447 86.786 240.67 86.6241L249.836 80.0773C250.118 79.9103 250.452 79.8551 250.773 79.9226C251.093 79.99 251.377 80.1752 251.568 80.4416C251.759 80.708 251.843 81.0362 251.803 81.3615C251.764 81.6867 251.604 81.9854 251.355 82.1985C241.508 89.2428 242.032 88.9941 241.43 88.9941Z" fill="#A07765"/>
<path d="M94.2929 126.293C94.6794 125.906 95.3036 125.902 95.695 126.281L95.7071 126.293L101.707 132.293C102.098 132.683 102.098 133.317 101.707 133.707C101.321 134.094 100.696 134.098 100.305 133.719L100.293 133.707L95 128.414L89.7071 133.707C89.3206 134.094 88.6964 134.098 88.305 133.719L88.2929 133.707C87.9064 133.321 87.9024 132.696 88.2809 132.305L88.2929 132.293L94.2929 126.293Z" fill="#0EBE7B"/>
<path d="M95 126.833C95.5468 126.833 95.991 127.272 95.9999 127.816L96 127.833V140C96 140.552 95.5523 141 95 141C94.4532 141 94.009 140.561 94.0001 140.016L94 140V127.833C94 127.281 94.4477 126.833 95 126.833Z" fill="#0EBE7B"/>
<rect x="308.5" y="48.5" width="211" height="119" rx="9.5" stroke="#E3EDF3"/>
<path d="M330.293 128.293C330.679 127.906 331.304 127.902 331.695 128.281L331.707 128.293L337.707 134.293C338.098 134.683 338.098 135.317 337.707 135.707C337.321 136.094 336.696 136.098 336.305 135.719L336.293 135.707L331 130.414L325.707 135.707C325.321 136.094 324.696 136.098 324.305 135.719L324.293 135.707C323.906 135.321 323.902 134.696 324.281 134.305L324.293 134.293L330.293 128.293Z" fill="#0EBE7B"/>
<path d="M331 128.833C331.547 128.833 331.991 129.272 332 129.816L332 129.833V142C332 142.552 331.552 143 331 143C330.453 143 330.009 142.561 330 142.016L330 142V129.833C330 129.281 330.448 128.833 331 128.833Z" fill="#0EBE7B"/>
<path d="M324.193 104.219V103.381H328.922V104.219H327V112H326.121V104.219H324.193ZM333.041 105.461C334.021 105.461 334.834 105.816 335.479 106.527C336.064 107.176 336.357 107.943 336.357 108.83C336.357 109.721 336.047 110.5 335.426 111.168C334.809 111.832 334.014 112.164 333.041 112.164C332.064 112.164 331.266 111.832 330.645 111.168C330.027 110.5 329.719 109.721 329.719 108.83C329.719 107.947 330.012 107.182 330.598 106.533C331.242 105.818 332.057 105.461 333.041 105.461ZM333.041 106.264C332.361 106.264 331.777 106.516 331.289 107.02C330.801 107.523 330.557 108.133 330.557 108.848C330.557 109.309 330.668 109.738 330.891 110.137C331.113 110.535 331.414 110.844 331.793 111.062C332.172 111.277 332.588 111.385 333.041 111.385C333.494 111.385 333.91 111.277 334.289 111.062C334.668 110.844 334.969 110.535 335.191 110.137C335.414 109.738 335.525 109.309 335.525 108.848C335.525 108.133 335.279 107.523 334.787 107.02C334.299 106.516 333.717 106.264 333.041 106.264ZM338.602 103.258H339.428V105.625H340.729V106.328H339.428V112H338.602V106.328H337.482V105.625H338.602V103.258ZM348.305 105.625V112H347.496V110.904C347.152 111.322 346.766 111.637 346.336 111.848C345.91 112.059 345.443 112.164 344.936 112.164C344.033 112.164 343.262 111.838 342.621 111.186C341.984 110.529 341.666 109.732 341.666 108.795C341.666 107.877 341.988 107.092 342.633 106.439C343.277 105.787 344.053 105.461 344.959 105.461C345.482 105.461 345.955 105.572 346.377 105.795C346.803 106.018 347.176 106.352 347.496 106.797V105.625H348.305ZM345.023 106.252C344.566 106.252 344.145 106.365 343.758 106.592C343.371 106.814 343.062 107.129 342.832 107.535C342.605 107.941 342.492 108.371 342.492 108.824C342.492 109.273 342.607 109.703 342.838 110.113C343.068 110.523 343.377 110.844 343.764 111.074C344.154 111.301 344.572 111.414 345.018 111.414C345.467 111.414 345.893 111.301 346.295 111.074C346.697 110.848 347.006 110.541 347.221 110.154C347.439 109.768 347.549 109.332 347.549 108.848C347.549 108.109 347.305 107.492 346.816 106.996C346.332 106.5 345.734 106.252 345.023 106.252ZM350.033 103.164H350.854V112H350.033V103.164ZM355.898 103.381H356.76V112H355.898V103.381ZM358.605 105.625H359.426V106.768C359.754 106.33 360.117 106.004 360.516 105.789C360.914 105.57 361.348 105.461 361.816 105.461C362.293 105.461 362.715 105.582 363.082 105.824C363.453 106.066 363.727 106.393 363.902 106.803C364.078 107.213 364.166 107.852 364.166 108.719V112H363.352V108.959C363.352 108.225 363.32 107.734 363.258 107.488C363.16 107.066 362.977 106.75 362.707 106.539C362.438 106.324 362.086 106.217 361.652 106.217C361.156 106.217 360.711 106.381 360.316 106.709C359.926 107.037 359.668 107.443 359.543 107.928C359.465 108.244 359.426 108.822 359.426 109.662V112H358.605V105.625ZM365.326 105.625H366.199L368.332 110.266L370.447 105.625H371.326L368.408 112H368.262L365.326 105.625ZM377.953 109.885L378.645 110.248C378.418 110.693 378.156 111.053 377.859 111.326C377.562 111.6 377.229 111.809 376.857 111.953C376.486 112.094 376.066 112.164 375.598 112.164C374.559 112.164 373.746 111.824 373.16 111.145C372.574 110.461 372.281 109.689 372.281 108.83C372.281 108.021 372.529 107.301 373.025 106.668C373.654 105.863 374.496 105.461 375.551 105.461C376.637 105.461 377.504 105.873 378.152 106.697C378.613 107.279 378.848 108.006 378.855 108.877H373.125C373.141 109.619 373.377 110.229 373.834 110.705C374.291 111.178 374.855 111.414 375.527 111.414C375.852 111.414 376.166 111.357 376.471 111.244C376.779 111.131 377.041 110.98 377.256 110.793C377.471 110.605 377.703 110.303 377.953 109.885ZM377.953 108.168C377.844 107.73 377.684 107.381 377.473 107.119C377.266 106.857 376.99 106.646 376.646 106.486C376.303 106.326 375.941 106.246 375.562 106.246C374.938 106.246 374.4 106.447 373.951 106.85C373.623 107.143 373.375 107.582 373.207 108.168H377.953ZM383.596 106.322L383.068 106.867C382.631 106.441 382.203 106.229 381.785 106.229C381.52 106.229 381.291 106.316 381.1 106.492C380.912 106.668 380.818 106.873 380.818 107.107C380.818 107.314 380.896 107.512 381.053 107.699C381.209 107.891 381.537 108.115 382.037 108.373C382.646 108.689 383.061 108.994 383.279 109.287C383.494 109.584 383.602 109.918 383.602 110.289C383.602 110.812 383.418 111.256 383.051 111.619C382.684 111.982 382.225 112.164 381.674 112.164C381.307 112.164 380.955 112.084 380.619 111.924C380.287 111.764 380.012 111.543 379.793 111.262L380.309 110.676C380.727 111.148 381.17 111.385 381.639 111.385C381.967 111.385 382.246 111.279 382.477 111.068C382.707 110.857 382.822 110.609 382.822 110.324C382.822 110.09 382.746 109.881 382.594 109.697C382.441 109.518 382.098 109.291 381.562 109.018C380.988 108.721 380.598 108.428 380.391 108.139C380.184 107.85 380.08 107.52 380.08 107.148C380.08 106.664 380.244 106.262 380.572 105.941C380.904 105.621 381.322 105.461 381.826 105.461C382.412 105.461 383.002 105.748 383.596 106.322ZM385.77 103.258H386.596V105.625H387.896V106.328H386.596V112H385.77V106.328H384.65V105.625H385.77V103.258ZM389.115 105.625H389.93V106.727C390.215 106.32 390.508 106.023 390.809 105.836C391.223 105.586 391.658 105.461 392.115 105.461C392.424 105.461 392.717 105.521 392.994 105.643C393.271 105.764 393.498 105.926 393.674 106.129C393.85 106.328 394.002 106.615 394.131 106.99C394.404 106.49 394.746 106.111 395.156 105.854C395.566 105.592 396.008 105.461 396.48 105.461C396.922 105.461 397.311 105.572 397.646 105.795C397.986 106.018 398.238 106.328 398.402 106.727C398.566 107.125 398.648 107.723 398.648 108.52V112H397.811V108.52C397.811 107.836 397.762 107.367 397.664 107.113C397.566 106.855 397.398 106.648 397.16 106.492C396.926 106.336 396.645 106.258 396.316 106.258C395.918 106.258 395.553 106.375 395.221 106.609C394.893 106.844 394.652 107.156 394.5 107.547C394.348 107.938 394.271 108.59 394.271 109.504V112H393.457V108.736C393.457 107.967 393.408 107.445 393.311 107.172C393.217 106.895 393.051 106.674 392.812 106.51C392.574 106.342 392.291 106.258 391.963 106.258C391.584 106.258 391.229 106.373 390.896 106.604C390.568 106.83 390.324 107.137 390.164 107.523C390.008 107.91 389.93 108.502 389.93 109.299V112H389.115V105.625ZM405.75 109.885L406.441 110.248C406.215 110.693 405.953 111.053 405.656 111.326C405.359 111.6 405.025 111.809 404.654 111.953C404.283 112.094 403.863 112.164 403.395 112.164C402.355 112.164 401.543 111.824 400.957 111.145C400.371 110.461 400.078 109.689 400.078 108.83C400.078 108.021 400.326 107.301 400.822 106.668C401.451 105.863 402.293 105.461 403.348 105.461C404.434 105.461 405.301 105.873 405.949 106.697C406.41 107.279 406.645 108.006 406.652 108.877H400.922C400.938 109.619 401.174 110.229 401.631 110.705C402.088 111.178 402.652 111.414 403.324 111.414C403.648 111.414 403.963 111.357 404.268 111.244C404.576 111.131 404.838 110.98 405.053 110.793C405.268 110.605 405.5 110.303 405.75 109.885ZM405.75 108.168C405.641 107.73 405.48 107.381 405.27 107.119C405.062 106.857 404.787 106.646 404.443 106.486C404.1 106.326 403.738 106.246 403.359 106.246C402.734 106.246 402.197 106.447 401.748 106.85C401.42 107.143 401.172 107.582 401.004 108.168H405.75ZM408.188 105.625H409.008V106.768C409.336 106.33 409.699 106.004 410.098 105.789C410.496 105.57 410.93 105.461 411.398 105.461C411.875 105.461 412.297 105.582 412.664 105.824C413.035 106.066 413.309 106.393 413.484 106.803C413.66 107.213 413.748 107.852 413.748 108.719V112H412.934V108.959C412.934 108.225 412.902 107.734 412.84 107.488C412.742 107.066 412.559 106.75 412.289 106.539C412.02 106.324 411.668 106.217 411.234 106.217C410.738 106.217 410.293 106.381 409.898 106.709C409.508 107.037 409.25 107.443 409.125 107.928C409.047 108.244 409.008 108.822 409.008 109.662V112H408.188V105.625ZM416.227 103.258H417.053V105.625H418.354V106.328H417.053V112H416.227V106.328H415.107V105.625H416.227V103.258Z" fill="#737588"/>
<path d="M352.3 139.444H346.42V136.644L352.02 123.4H355.38V136.644H356.836V139.444H355.38V143H352.3V139.444ZM352.3 136.644V129H352.244L349.22 136.644H352.3ZM358.359 140.032H361.327V143H358.359V140.032ZM368.088 143.28C366.539 143.28 365.344 142.869 364.504 142.048C363.683 141.208 363.272 140.004 363.272 138.436V136.7C363.272 135.729 363.431 134.917 363.748 134.264C364.066 133.592 364.579 133.069 365.288 132.696V132.64C364.635 132.285 364.15 131.8 363.832 131.184C363.534 130.549 363.384 129.747 363.384 128.776V127.964C363.384 126.396 363.786 125.201 364.588 124.38C365.41 123.54 366.576 123.12 368.088 123.12C369.6 123.12 370.758 123.54 371.56 124.38C372.382 125.201 372.792 126.396 372.792 127.964V128.776C372.792 130.643 372.158 131.931 370.888 132.64V132.696C371.598 133.069 372.111 133.592 372.428 134.264C372.746 134.917 372.904 135.729 372.904 136.7V138.436C372.904 140.004 372.484 141.208 371.644 142.048C370.823 142.869 369.638 143.28 368.088 143.28ZM368.088 131.38C369.171 131.38 369.712 130.727 369.712 129.42V127.88C369.712 126.573 369.171 125.92 368.088 125.92C367.006 125.92 366.464 126.573 366.464 127.88V129.42C366.464 130.727 367.006 131.38 368.088 131.38ZM368.088 140.48C369.246 140.48 369.824 139.743 369.824 138.268V136.392C369.824 134.917 369.246 134.18 368.088 134.18C366.931 134.18 366.352 134.917 366.352 136.392V138.268C366.352 139.743 366.931 140.48 368.088 140.48ZM379.355 143.28C377.862 143.28 376.723 142.86 375.939 142.02C375.155 141.161 374.763 139.939 374.763 138.352V136.812H377.675V138.576C377.675 139.845 378.207 140.48 379.271 140.48C380.335 140.48 380.867 139.845 380.867 138.576V134.18C380.867 132.892 380.335 132.248 379.271 132.248C378.207 132.248 377.675 132.892 377.675 134.18V134.348H374.763L375.323 123.4H383.443V126.2H378.067L377.815 130.876H377.871C378.45 129.924 379.337 129.448 380.531 129.448C381.651 129.448 382.501 129.831 383.079 130.596C383.658 131.361 383.947 132.472 383.947 133.928V138.352C383.947 139.939 383.555 141.161 382.771 142.02C381.987 142.86 380.849 143.28 379.355 143.28ZM388.858 134.292C387.887 134.292 387.15 134.021 386.646 133.48C386.142 132.939 385.89 132.164 385.89 131.156V126.256C385.89 125.248 386.142 124.473 386.646 123.932C387.15 123.391 387.887 123.12 388.858 123.12C389.829 123.12 390.566 123.391 391.07 123.932C391.574 124.473 391.826 125.248 391.826 126.256V131.156C391.826 132.164 391.574 132.939 391.07 133.48C390.566 134.021 389.829 134.292 388.858 134.292ZM395.97 123.4H397.93L390.342 143H388.382L395.97 123.4ZM388.858 132.528C389.53 132.528 389.866 132.117 389.866 131.296V126.116C389.866 125.295 389.53 124.884 388.858 124.884C388.186 124.884 387.85 125.295 387.85 126.116V131.296C387.85 132.117 388.186 132.528 388.858 132.528ZM397.454 143.28C396.483 143.28 395.746 143.009 395.242 142.468C394.738 141.927 394.486 141.152 394.486 140.144V135.244C394.486 134.236 394.738 133.461 395.242 132.92C395.746 132.379 396.483 132.108 397.454 132.108C398.425 132.108 399.162 132.379 399.666 132.92C400.17 133.461 400.422 134.236 400.422 135.244V140.144C400.422 141.152 400.17 141.927 399.666 142.468C399.162 143.009 398.425 143.28 397.454 143.28ZM397.454 141.516C398.126 141.516 398.462 141.105 398.462 140.284V135.104C398.462 134.283 398.126 133.872 397.454 133.872C396.782 133.872 396.446 134.283 396.446 135.104V140.284C396.446 141.105 396.782 141.516 397.454 141.516Z" fill="#0EBE7B"/>
<path d="M325.975 92.1C325.975 90.85 326.175 89.7833 326.575 88.9C326.975 88 327.692 87.0083 328.725 85.925C329.742 84.8417 330.442 83.9167 330.825 83.15C331.225 82.3833 331.425 81.5833 331.425 80.75C331.425 80 331.3 79.4833 331.05 79.2C330.817 78.9 330.467 78.75 330 78.75C329.05 78.75 328.575 79.325 328.575 80.475V82.35H325.975V80.65C325.975 79.2333 326.325 78.15 327.025 77.4C327.725 76.6333 328.742 76.25 330.075 76.25C331.408 76.25 332.425 76.6333 333.125 77.4C333.825 78.15 334.175 79.2333 334.175 80.65C334.175 81.7167 333.917 82.7583 333.4 83.775C332.9 84.7917 332.025 85.9583 330.775 87.275C329.958 88.1417 329.408 88.85 329.125 89.4C328.842 89.9333 328.7 90.5083 328.7 91.125V91.5H333.925V94H325.975V92.1ZM336.935 94H336.035V91.35H338.685V93.725L337.31 97H336.035L336.935 94ZM344.647 94.25C343.297 94.25 342.272 93.875 341.572 93.125C340.888 92.375 340.547 91.3 340.547 89.9V88.475H343.147V90.025C343.147 91.175 343.622 91.75 344.572 91.75C345.038 91.75 345.388 91.6083 345.622 91.325C345.872 91.025 345.997 90.5083 345.997 89.775V88.35C345.997 87.55 345.855 86.9833 345.572 86.65C345.288 86.3 344.83 86.125 344.197 86.125H343.272V83.625H344.272C344.822 83.625 345.23 83.4833 345.497 83.2C345.78 82.9167 345.922 82.4417 345.922 81.775V80.5C345.922 79.9 345.797 79.4583 345.547 79.175C345.297 78.8917 344.963 78.75 344.547 78.75C343.663 78.75 343.222 79.2917 343.222 80.375V81.525H340.622V80.6C340.622 79.2 340.963 78.125 341.647 77.375C342.347 76.625 343.347 76.25 344.647 76.25C345.963 76.25 346.963 76.625 347.647 77.375C348.33 78.1083 348.672 79.175 348.672 80.575V81.2C348.672 82.15 348.513 82.9167 348.197 83.5C347.88 84.0667 347.388 84.475 346.722 84.725V84.775C347.438 85.0417 347.955 85.475 348.272 86.075C348.588 86.675 348.747 87.4417 348.747 88.375V89.925C348.747 91.325 348.397 92.4 347.697 93.15C347.013 93.8833 345.997 94.25 344.647 94.25ZM354.631 94.25C353.298 94.25 352.281 93.875 351.581 93.125C350.881 92.3583 350.531 91.2667 350.531 89.85V89.525H353.131V90.025C353.131 91.175 353.606 91.75 354.556 91.75C355.073 91.75 355.456 91.5917 355.706 91.275C355.956 90.9583 356.081 90.4 356.081 89.6V86.25H356.031C355.548 87.2667 354.715 87.775 353.531 87.775C352.531 87.775 351.773 87.4333 351.256 86.75C350.74 86.0667 350.481 85.075 350.481 83.775V80.65C350.481 79.25 350.84 78.1667 351.556 77.4C352.273 76.6333 353.306 76.25 354.656 76.25C356.006 76.25 357.04 76.6333 357.756 77.4C358.473 78.1667 358.831 79.25 358.831 80.65V89.7C358.831 92.7333 357.431 94.25 354.631 94.25ZM354.656 85.275C355.606 85.275 356.081 84.7 356.081 83.55V80.45C356.081 79.3167 355.606 78.75 354.656 78.75C353.706 78.75 353.231 79.3167 353.231 80.45V83.55C353.231 84.7 353.706 85.275 354.656 85.275ZM364.641 94.25C363.308 94.25 362.291 93.875 361.591 93.125C360.891 92.3583 360.541 91.2667 360.541 89.85V89.525H363.141V90.025C363.141 91.175 363.616 91.75 364.566 91.75C365.083 91.75 365.466 91.5917 365.716 91.275C365.966 90.9583 366.091 90.4 366.091 89.6V86.25H366.041C365.558 87.2667 364.725 87.775 363.541 87.775C362.541 87.775 361.783 87.4333 361.266 86.75C360.75 86.0667 360.491 85.075 360.491 83.775V80.65C360.491 79.25 360.85 78.1667 361.566 77.4C362.283 76.6333 363.316 76.25 364.666 76.25C366.016 76.25 367.05 76.6333 367.766 77.4C368.483 78.1667 368.841 79.25 368.841 80.65V89.7C368.841 92.7333 367.441 94.25 364.641 94.25ZM364.666 85.275C365.616 85.275 366.091 84.7 366.091 83.55V80.45C366.091 79.3167 365.616 78.75 364.666 78.75C363.716 78.75 363.241 79.3167 363.241 80.45V83.55C363.241 84.7 363.716 85.275 364.666 85.275Z" fill="#161A35"/>
<circle cx="464.5" cy="107.5" r="43.5" fill="#F7F7F7"/>
<path d="M442.028 130.999C441.825 131 441.626 130.941 441.457 130.829C441.288 130.717 441.156 130.557 441.078 130.369C441 130.182 440.98 129.976 441.02 129.777C441.06 129.578 441.158 129.395 441.302 129.252L469.906 100.648C470.099 100.456 470.36 100.348 470.632 100.348C470.904 100.348 471.165 100.456 471.357 100.648C471.549 100.84 471.657 101.101 471.657 101.373C471.657 101.645 471.549 101.906 471.357 102.099C440.822 132.623 442.651 130.999 442.028 130.999Z" fill="#FFCC66"/>
<path d="M468.487 120.856C466.571 122.771 463.973 123.847 461.264 123.847C458.555 123.847 455.957 122.771 454.041 120.856L452.591 119.415C453.54 118.465 454.668 117.712 455.909 117.198C457.15 116.685 458.48 116.421 459.824 116.422C464.267 116.422 466.454 118.823 468.487 120.856Z" fill="#FFDE76"/>
<path d="M455.584 112.182C455.585 113.525 455.321 114.855 454.807 116.096C454.294 117.337 453.541 118.465 452.591 119.414L451.15 117.964C449.235 116.048 448.159 113.45 448.159 110.741C448.159 108.032 449.235 105.434 451.15 103.519C453.091 105.46 455.584 107.605 455.584 112.182Z" fill="#FFDE76"/>
<path d="M472.818 116.524C471.257 118.086 469.232 119.1 467.046 119.415C466.097 118.465 464.971 117.711 463.731 117.197C462.49 116.683 461.161 116.419 459.818 116.419C458.476 116.419 457.147 116.683 455.906 117.197C454.666 117.711 453.54 118.465 452.591 119.415C453.541 118.466 454.294 117.339 454.808 116.099C455.322 114.859 455.587 113.53 455.587 112.187C455.587 110.845 455.322 109.515 454.808 108.275C454.294 107.035 453.541 105.908 452.591 104.959C452.905 102.774 453.92 100.748 455.482 99.1875L456.933 100.628C458.845 102.543 459.918 105.139 459.918 107.845C459.918 110.552 458.845 113.147 456.933 115.063C458.848 113.151 461.444 112.077 464.15 112.077C466.856 112.077 469.452 113.151 471.367 115.063L472.818 116.524Z" fill="#FFDE76"/>
<path d="M477.271 99.0855C475.909 99.0696 474.557 99.3262 473.296 99.8402C472.035 100.354 470.889 101.115 469.926 102.079C470.889 101.116 471.65 99.9699 472.164 98.7085C472.678 97.4471 472.935 96.0956 472.919 94.7336C473.514 92.6782 474.892 90.9383 476.757 89.8877C478.621 88.8371 480.823 88.5596 482.89 89.1149C483.445 91.1816 483.167 93.3836 482.117 95.2479C481.066 97.1122 479.326 98.4901 477.271 99.0855Z" fill="#FFDE76"/>
<path d="M477.15 112.192C475.591 113.756 473.564 114.767 471.378 115.072C469.462 113.157 466.864 112.081 464.155 112.081C461.446 112.081 458.848 113.157 456.933 115.072C458.845 113.155 459.918 110.558 459.916 107.85C459.931 106.507 459.675 105.175 459.162 103.934C458.649 102.693 457.891 101.568 456.933 100.627C457.238 98.4408 458.249 96.4138 459.813 94.8555C461.581 96.6126 464.921 99.4934 464.145 104.959C463.893 106.927 463.048 108.773 461.724 110.251C461.131 110.925 461.08 110.874 461.724 110.251C463.68 108.527 466.221 107.616 468.827 107.706C471.433 107.795 473.906 108.877 475.74 110.731L477.15 112.192Z" fill="#FFDE76"/>
<path d="M481.492 107.85C479.933 109.404 477.917 110.417 475.74 110.741C473.824 108.826 471.226 107.75 468.517 107.75C465.809 107.75 463.211 108.826 461.295 110.741C463.21 108.825 464.286 106.227 464.286 103.518C464.286 100.81 463.21 98.2115 461.295 96.2958C461.612 94.1078 462.626 92.0803 464.186 90.5137L465.626 91.9643C467.457 93.7973 468.522 96.257 468.608 98.8459C468.693 101.435 467.792 103.959 466.086 105.909C465.483 106.593 465.432 106.542 466.086 105.909C468.036 104.203 470.56 103.302 473.149 103.387C475.738 103.473 478.198 104.538 480.031 106.369L481.492 107.85Z" fill="#FFDE76"/>
<path d="M473.696 114.47C472.956 114.759 472.185 114.961 471.398 115.073C469.482 113.161 466.887 112.087 464.18 112.087C461.474 112.087 458.878 113.161 456.963 115.073C458.875 113.157 459.949 110.562 459.949 107.855C459.949 105.149 458.875 102.553 456.963 100.638C457.058 99.8409 457.25 99.0587 457.535 98.3086L458.505 99.3302C459.802 100.667 460.776 102.282 461.355 104.052C461.934 105.823 462.102 107.701 461.846 109.546C461.846 109.648 461.713 110.271 461.713 110.312C461.713 110.353 462.357 110.179 462.49 110.179C464.334 109.924 466.213 110.092 467.983 110.67C469.753 111.249 471.368 112.224 472.705 113.52L473.696 114.47Z" fill="#FFCC66"/>
<path d="M477.987 110.139C477.253 110.433 476.483 110.632 475.699 110.731C473.783 108.819 471.187 107.745 468.481 107.745C465.775 107.745 463.179 108.819 461.264 110.731C463.176 108.816 464.25 106.22 464.25 103.514C464.25 100.807 463.176 98.2115 461.264 96.2961C461.365 95.5116 461.564 94.7428 461.856 94.0078C465.115 97.2258 466.831 100.587 466.167 105.245C466.086 105.858 466.045 105.838 466.045 105.94C466.271 105.871 466.504 105.83 466.739 105.817C471.449 105.153 474.718 106.89 477.987 110.139Z" fill="#FFCC66"/>
<path d="M480.305 97.4507C479.407 98.2526 478.321 98.8148 477.148 99.0852C474.439 99.0858 471.841 100.162 469.926 102.078C471.842 100.163 472.918 97.5651 472.919 94.8559C473.195 93.685 473.757 92.6005 474.554 91.6992C474.825 92.7294 474.963 93.7904 474.962 94.8559C474.942 95.1412 474.982 95.4276 475.079 95.6965C475.177 95.9654 475.33 96.2109 475.528 96.4169C475.727 96.623 475.966 96.7852 476.231 96.8928C476.496 97.0005 476.781 97.0514 477.067 97.0421C478.159 97.0362 479.248 97.1736 480.305 97.4507Z" fill="#FFCC66"/>
<path d="M485.823 103.519C484.256 105.079 482.229 106.093 480.041 106.41C480.041 106.144 477.099 103.417 472.818 103.417C470.109 103.417 467.511 104.494 465.596 106.41C467.512 104.494 468.588 101.896 468.589 99.1873C468.576 96.4806 467.501 93.887 465.596 91.9647C465.913 89.7768 466.927 87.7493 468.487 86.1826C470.377 88.093 472.869 90.2076 472.92 94.7332C472.953 97.251 472.054 99.6921 470.397 101.588C469.774 102.252 469.754 102.232 470.397 101.588C472.293 99.9309 474.734 99.0323 477.252 99.0647C481.665 99.1362 483.821 101.517 485.823 103.519Z" fill="#FFDE76"/>
<path d="M480.041 106.41C480.041 106.145 477.099 103.417 472.818 103.417C470.109 103.418 467.511 104.494 465.596 106.41C467.512 104.495 468.588 101.897 468.589 99.1876C468.576 96.4809 467.501 93.8874 465.596 91.9651C465.708 91.1807 465.914 90.4125 466.209 89.6768C467.097 90.5757 467.046 90.5145 467.057 90.5247C468.194 91.6616 469.096 93.0123 469.71 94.4991C470.323 95.9858 470.637 97.5792 470.632 99.1876C470.632 102.661 469.324 101.374 472.818 101.374C476.476 101.374 480.092 103.192 481.604 105.082L482.329 105.797C481.593 106.092 480.825 106.298 480.041 106.41Z" fill="#FFCC66"/>
<path d="M469.364 87.7048C469.159 87.7145 468.956 87.662 468.781 87.5544C468.606 87.4467 468.468 87.2888 468.384 87.1013C468.3 86.9138 468.275 86.7054 468.311 86.5032C468.348 86.3011 468.444 86.1146 468.588 85.9681L470.212 84.3234C470.401 84.1242 470.66 84.0081 470.934 84.0004C471.208 83.9927 471.474 84.0942 471.673 84.2825C471.872 84.4708 471.989 84.7305 471.996 85.0045C472.004 85.2785 471.902 85.5442 471.714 85.7434C469.988 87.5107 469.916 87.7048 469.364 87.7048Z" fill="#FFDE76"/>
<path d="M485.119 103.795C484.917 103.794 484.72 103.733 484.552 103.62C484.385 103.508 484.254 103.347 484.178 103.16C484.101 102.973 484.082 102.768 484.122 102.57C484.162 102.372 484.26 102.19 484.404 102.048L486.263 100.22C486.359 100.126 486.472 100.052 486.597 100.001C486.722 99.9514 486.855 99.9264 486.989 99.9278C487.123 99.9292 487.256 99.9571 487.379 100.01C487.503 100.062 487.615 100.139 487.709 100.235C487.802 100.331 487.877 100.444 487.927 100.569C487.977 100.693 488.002 100.827 488 100.961C487.999 101.095 487.971 101.228 487.918 101.351C487.866 101.475 487.789 101.586 487.693 101.68C485.691 103.652 485.671 103.795 485.119 103.795Z" fill="#FFDE76"/>
<path d="M481.869 91.1582C481.666 91.1593 481.468 91.1001 481.299 90.9879C481.13 90.8757 480.998 90.7157 480.92 90.5283C480.842 90.3409 480.822 90.1346 480.862 89.9357C480.902 89.7367 481 89.5541 481.144 89.4113L486.252 84.3034C486.444 84.111 486.705 84.0029 486.977 84.0029C487.249 84.0029 487.51 84.111 487.703 84.3034C487.895 84.4957 488.003 84.7566 488.003 85.0287C488.003 85.3007 487.895 85.5616 487.703 85.754C482.298 91.1582 482.513 91.1582 481.869 91.1582Z" fill="#FFDE76"/>
<rect x="544.5" y="48.5" width="211" height="119" rx="9.5" stroke="#E3EDF3"/>
<path d="M566.293 128.293C566.679 127.906 567.304 127.902 567.695 128.281L567.707 128.293L573.707 134.293C574.098 134.683 574.098 135.317 573.707 135.707C573.321 136.094 572.696 136.098 572.305 135.719L572.293 135.707L567 130.414L561.707 135.707C561.321 136.094 560.696 136.098 560.305 135.719L560.293 135.707C559.906 135.321 559.902 134.696 560.281 134.305L560.293 134.293L566.293 128.293Z" fill="#DA5A5A"/>
<path d="M567 128.833C567.547 128.833 567.991 129.272 568 129.816L568 129.833V142C568 142.552 567.552 143 567 143C566.453 143 566.009 142.561 566 142.016L566 142V129.833C566 129.281 566.448 128.833 567 128.833Z" fill="#DA5A5A"/>
<path d="M560.193 104.219V103.381H564.922V104.219H563V112H562.121V104.219H560.193ZM569.041 105.461C570.021 105.461 570.834 105.816 571.479 106.527C572.064 107.176 572.357 107.943 572.357 108.83C572.357 109.721 572.047 110.5 571.426 111.168C570.809 111.832 570.014 112.164 569.041 112.164C568.064 112.164 567.266 111.832 566.645 111.168C566.027 110.5 565.719 109.721 565.719 108.83C565.719 107.947 566.012 107.182 566.598 106.533C567.242 105.818 568.057 105.461 569.041 105.461ZM569.041 106.264C568.361 106.264 567.777 106.516 567.289 107.02C566.801 107.523 566.557 108.133 566.557 108.848C566.557 109.309 566.668 109.738 566.891 110.137C567.113 110.535 567.414 110.844 567.793 111.062C568.172 111.277 568.588 111.385 569.041 111.385C569.494 111.385 569.91 111.277 570.289 111.062C570.668 110.844 570.969 110.535 571.191 110.137C571.414 109.738 571.525 109.309 571.525 108.848C571.525 108.133 571.279 107.523 570.787 107.02C570.299 106.516 569.717 106.264 569.041 106.264ZM574.602 103.258H575.428V105.625H576.729V106.328H575.428V112H574.602V106.328H573.482V105.625H574.602V103.258ZM584.305 105.625V112H583.496V110.904C583.152 111.322 582.766 111.637 582.336 111.848C581.91 112.059 581.443 112.164 580.936 112.164C580.033 112.164 579.262 111.838 578.621 111.186C577.984 110.529 577.666 109.732 577.666 108.795C577.666 107.877 577.988 107.092 578.633 106.439C579.277 105.787 580.053 105.461 580.959 105.461C581.482 105.461 581.955 105.572 582.377 105.795C582.803 106.018 583.176 106.352 583.496 106.797V105.625H584.305ZM581.023 106.252C580.566 106.252 580.145 106.365 579.758 106.592C579.371 106.814 579.062 107.129 578.832 107.535C578.605 107.941 578.492 108.371 578.492 108.824C578.492 109.273 578.607 109.703 578.838 110.113C579.068 110.523 579.377 110.844 579.764 111.074C580.154 111.301 580.572 111.414 581.018 111.414C581.467 111.414 581.893 111.301 582.295 111.074C582.697 110.848 583.006 110.541 583.221 110.154C583.439 109.768 583.549 109.332 583.549 108.848C583.549 108.109 583.305 107.492 582.816 106.996C582.332 106.5 581.734 106.252 581.023 106.252ZM586.033 103.164H586.854V112H586.033V103.164ZM591.898 103.381H592.76V112H591.898V103.381ZM594.605 105.625H595.426V106.768C595.754 106.33 596.117 106.004 596.516 105.789C596.914 105.57 597.348 105.461 597.816 105.461C598.293 105.461 598.715 105.582 599.082 105.824C599.453 106.066 599.727 106.393 599.902 106.803C600.078 107.213 600.166 107.852 600.166 108.719V112H599.352V108.959C599.352 108.225 599.32 107.734 599.258 107.488C599.16 107.066 598.977 106.75 598.707 106.539C598.438 106.324 598.086 106.217 597.652 106.217C597.156 106.217 596.711 106.381 596.316 106.709C595.926 107.037 595.668 107.443 595.543 107.928C595.465 108.244 595.426 108.822 595.426 109.662V112H594.605V105.625ZM601.326 105.625H602.199L604.332 110.266L606.447 105.625H607.326L604.408 112H604.262L601.326 105.625ZM613.953 109.885L614.645 110.248C614.418 110.693 614.156 111.053 613.859 111.326C613.562 111.6 613.229 111.809 612.857 111.953C612.486 112.094 612.066 112.164 611.598 112.164C610.559 112.164 609.746 111.824 609.16 111.145C608.574 110.461 608.281 109.689 608.281 108.83C608.281 108.021 608.529 107.301 609.025 106.668C609.654 105.863 610.496 105.461 611.551 105.461C612.637 105.461 613.504 105.873 614.152 106.697C614.613 107.279 614.848 108.006 614.855 108.877H609.125C609.141 109.619 609.377 110.229 609.834 110.705C610.291 111.178 610.855 111.414 611.527 111.414C611.852 111.414 612.166 111.357 612.471 111.244C612.779 111.131 613.041 110.98 613.256 110.793C613.471 110.605 613.703 110.303 613.953 109.885ZM613.953 108.168C613.844 107.73 613.684 107.381 613.473 107.119C613.266 106.857 612.99 106.646 612.646 106.486C612.303 106.326 611.941 106.246 611.562 106.246C610.938 106.246 610.4 106.447 609.951 106.85C609.623 107.143 609.375 107.582 609.207 108.168H613.953ZM619.596 106.322L619.068 106.867C618.631 106.441 618.203 106.229 617.785 106.229C617.52 106.229 617.291 106.316 617.1 106.492C616.912 106.668 616.818 106.873 616.818 107.107C616.818 107.314 616.896 107.512 617.053 107.699C617.209 107.891 617.537 108.115 618.037 108.373C618.646 108.689 619.061 108.994 619.279 109.287C619.494 109.584 619.602 109.918 619.602 110.289C619.602 110.812 619.418 111.256 619.051 111.619C618.684 111.982 618.225 112.164 617.674 112.164C617.307 112.164 616.955 112.084 616.619 111.924C616.287 111.764 616.012 111.543 615.793 111.262L616.309 110.676C616.727 111.148 617.17 111.385 617.639 111.385C617.967 111.385 618.246 111.279 618.477 111.068C618.707 110.857 618.822 110.609 618.822 110.324C618.822 110.09 618.746 109.881 618.594 109.697C618.441 109.518 618.098 109.291 617.562 109.018C616.988 108.721 616.598 108.428 616.391 108.139C616.184 107.85 616.08 107.52 616.08 107.148C616.08 106.664 616.244 106.262 616.572 105.941C616.904 105.621 617.322 105.461 617.826 105.461C618.412 105.461 619.002 105.748 619.596 106.322ZM621.77 103.258H622.596V105.625H623.896V106.328H622.596V112H621.77V106.328H620.65V105.625H621.77V103.258ZM625.115 105.625H625.93V106.727C626.215 106.32 626.508 106.023 626.809 105.836C627.223 105.586 627.658 105.461 628.115 105.461C628.424 105.461 628.717 105.521 628.994 105.643C629.271 105.764 629.498 105.926 629.674 106.129C629.85 106.328 630.002 106.615 630.131 106.99C630.404 106.49 630.746 106.111 631.156 105.854C631.566 105.592 632.008 105.461 632.48 105.461C632.922 105.461 633.311 105.572 633.646 105.795C633.986 106.018 634.238 106.328 634.402 106.727C634.566 107.125 634.648 107.723 634.648 108.52V112H633.811V108.52C633.811 107.836 633.762 107.367 633.664 107.113C633.566 106.855 633.398 106.648 633.16 106.492C632.926 106.336 632.645 106.258 632.316 106.258C631.918 106.258 631.553 106.375 631.221 106.609C630.893 106.844 630.652 107.156 630.5 107.547C630.348 107.938 630.271 108.59 630.271 109.504V112H629.457V108.736C629.457 107.967 629.408 107.445 629.311 107.172C629.217 106.895 629.051 106.674 628.812 106.51C628.574 106.342 628.291 106.258 627.963 106.258C627.584 106.258 627.229 106.373 626.896 106.604C626.568 106.83 626.324 107.137 626.164 107.523C626.008 107.91 625.93 108.502 625.93 109.299V112H625.115V105.625ZM641.75 109.885L642.441 110.248C642.215 110.693 641.953 111.053 641.656 111.326C641.359 111.6 641.025 111.809 640.654 111.953C640.283 112.094 639.863 112.164 639.395 112.164C638.355 112.164 637.543 111.824 636.957 111.145C636.371 110.461 636.078 109.689 636.078 108.83C636.078 108.021 636.326 107.301 636.822 106.668C637.451 105.863 638.293 105.461 639.348 105.461C640.434 105.461 641.301 105.873 641.949 106.697C642.41 107.279 642.645 108.006 642.652 108.877H636.922C636.938 109.619 637.174 110.229 637.631 110.705C638.088 111.178 638.652 111.414 639.324 111.414C639.648 111.414 639.963 111.357 640.268 111.244C640.576 111.131 640.838 110.98 641.053 110.793C641.268 110.605 641.5 110.303 641.75 109.885ZM641.75 108.168C641.641 107.73 641.48 107.381 641.27 107.119C641.062 106.857 640.787 106.646 640.443 106.486C640.1 106.326 639.738 106.246 639.359 106.246C638.734 106.246 638.197 106.447 637.748 106.85C637.42 107.143 637.172 107.582 637.004 108.168H641.75ZM644.188 105.625H645.008V106.768C645.336 106.33 645.699 106.004 646.098 105.789C646.496 105.57 646.93 105.461 647.398 105.461C647.875 105.461 648.297 105.582 648.664 105.824C649.035 106.066 649.309 106.393 649.484 106.803C649.66 107.213 649.748 107.852 649.748 108.719V112H648.934V108.959C648.934 108.225 648.902 107.734 648.84 107.488C648.742 107.066 648.559 106.75 648.289 106.539C648.02 106.324 647.668 106.217 647.234 106.217C646.738 106.217 646.293 106.381 645.898 106.709C645.508 107.037 645.25 107.443 645.125 107.928C645.047 108.244 645.008 108.822 645.008 109.662V112H644.188V105.625ZM652.227 103.258H653.053V105.625H654.354V106.328H653.053V112H652.227V106.328H651.107V105.625H652.227V103.258Z" fill="#737588"/>
<path d="M587.6 143.28C586.051 143.28 584.856 142.869 584.016 142.048C583.195 141.208 582.784 140.004 582.784 138.436V136.7C582.784 135.729 582.943 134.917 583.26 134.264C583.577 133.592 584.091 133.069 584.8 132.696V132.64C584.147 132.285 583.661 131.8 583.344 131.184C583.045 130.549 582.896 129.747 582.896 128.776V127.964C582.896 126.396 583.297 125.201 584.1 124.38C584.921 123.54 586.088 123.12 587.6 123.12C589.112 123.12 590.269 123.54 591.072 124.38C591.893 125.201 592.304 126.396 592.304 127.964V128.776C592.304 130.643 591.669 131.931 590.4 132.64V132.696C591.109 133.069 591.623 133.592 591.94 134.264C592.257 134.917 592.416 135.729 592.416 136.7V138.436C592.416 140.004 591.996 141.208 591.156 142.048C590.335 142.869 589.149 143.28 587.6 143.28ZM587.6 131.38C588.683 131.38 589.224 130.727 589.224 129.42V127.88C589.224 126.573 588.683 125.92 587.6 125.92C586.517 125.92 585.976 126.573 585.976 127.88V129.42C585.976 130.727 586.517 131.38 587.6 131.38ZM587.6 140.48C588.757 140.48 589.336 139.743 589.336 138.268V136.392C589.336 134.917 588.757 134.18 587.6 134.18C586.443 134.18 585.864 134.917 585.864 136.392V138.268C585.864 139.743 586.443 140.48 587.6 140.48ZM594.359 140.032H597.327V143H594.359V140.032ZM604.088 143.28C602.539 143.28 601.344 142.869 600.504 142.048C599.683 141.208 599.272 140.004 599.272 138.436V136.7C599.272 135.729 599.431 134.917 599.748 134.264C600.066 133.592 600.579 133.069 601.288 132.696V132.64C600.635 132.285 600.15 131.8 599.832 131.184C599.534 130.549 599.384 129.747 599.384 128.776V127.964C599.384 126.396 599.786 125.201 600.588 124.38C601.41 123.54 602.576 123.12 604.088 123.12C605.6 123.12 606.758 123.54 607.56 124.38C608.382 125.201 608.792 126.396 608.792 127.964V128.776C608.792 130.643 608.158 131.931 606.888 132.64V132.696C607.598 133.069 608.111 133.592 608.428 134.264C608.746 134.917 608.904 135.729 608.904 136.7V138.436C608.904 140.004 608.484 141.208 607.644 142.048C606.823 142.869 605.638 143.28 604.088 143.28ZM604.088 131.38C605.171 131.38 605.712 130.727 605.712 129.42V127.88C605.712 126.573 605.171 125.92 604.088 125.92C603.006 125.92 602.464 126.573 602.464 127.88V129.42C602.464 130.727 603.006 131.38 604.088 131.38ZM604.088 140.48C605.246 140.48 605.824 139.743 605.824 138.268V136.392C605.824 134.917 605.246 134.18 604.088 134.18C602.931 134.18 602.352 134.917 602.352 136.392V138.268C602.352 139.743 602.931 140.48 604.088 140.48ZM615.355 143.28C613.862 143.28 612.723 142.86 611.939 142.02C611.155 141.161 610.763 139.939 610.763 138.352V136.812H613.675V138.576C613.675 139.845 614.207 140.48 615.271 140.48C616.335 140.48 616.867 139.845 616.867 138.576V134.18C616.867 132.892 616.335 132.248 615.271 132.248C614.207 132.248 613.675 132.892 613.675 134.18V134.348H610.763L611.323 123.4H619.443V126.2H614.067L613.815 130.876H613.871C614.45 129.924 615.337 129.448 616.531 129.448C617.651 129.448 618.501 129.831 619.079 130.596C619.658 131.361 619.947 132.472 619.947 133.928V138.352C619.947 139.939 619.555 141.161 618.771 142.02C617.987 142.86 616.849 143.28 615.355 143.28ZM624.858 134.292C623.887 134.292 623.15 134.021 622.646 133.48C622.142 132.939 621.89 132.164 621.89 131.156V126.256C621.89 125.248 622.142 124.473 622.646 123.932C623.15 123.391 623.887 123.12 624.858 123.12C625.829 123.12 626.566 123.391 627.07 123.932C627.574 124.473 627.826 125.248 627.826 126.256V131.156C627.826 132.164 627.574 132.939 627.07 133.48C626.566 134.021 625.829 134.292 624.858 134.292ZM631.97 123.4H633.93L626.342 143H624.382L631.97 123.4ZM624.858 132.528C625.53 132.528 625.866 132.117 625.866 131.296V126.116C625.866 125.295 625.53 124.884 624.858 124.884C624.186 124.884 623.85 125.295 623.85 126.116V131.296C623.85 132.117 624.186 132.528 624.858 132.528ZM633.454 143.28C632.483 143.28 631.746 143.009 631.242 142.468C630.738 141.927 630.486 141.152 630.486 140.144V135.244C630.486 134.236 630.738 133.461 631.242 132.92C631.746 132.379 632.483 132.108 633.454 132.108C634.425 132.108 635.162 132.379 635.666 132.92C636.17 133.461 636.422 134.236 636.422 135.244V140.144C636.422 141.152 636.17 141.927 635.666 142.468C635.162 143.009 634.425 143.28 633.454 143.28ZM633.454 141.516C634.126 141.516 634.462 141.105 634.462 140.284V135.104C634.462 134.283 634.126 133.872 633.454 133.872C632.782 133.872 632.446 134.283 632.446 135.104V140.284C632.446 141.105 632.782 141.516 633.454 141.516Z" fill="#DC3027"/>
<path d="M566.075 94.25C564.725 94.25 563.692 93.8667 562.975 93.1C562.258 92.3333 561.9 91.25 561.9 89.85V80.8C561.9 77.7667 563.3 76.25 566.1 76.25C567.433 76.25 568.45 76.6333 569.15 77.4C569.85 78.15 570.2 79.2333 570.2 80.65V80.975H567.6V80.475C567.6 79.325 567.125 78.75 566.175 78.75C565.658 78.75 565.275 78.9083 565.025 79.225C564.775 79.5417 564.65 80.1 564.65 80.9V84.25H564.7C565.183 83.2333 566.017 82.725 567.2 82.725C568.2 82.725 568.958 83.0667 569.475 83.75C569.992 84.4333 570.25 85.425 570.25 86.725V89.85C570.25 91.25 569.892 92.3333 569.175 93.1C568.458 93.8667 567.425 94.25 566.075 94.25ZM566.075 91.75C567.025 91.75 567.5 91.1833 567.5 90.05V86.95C567.5 85.8 567.025 85.225 566.075 85.225C565.125 85.225 564.65 85.8 564.65 86.95V90.05C564.65 91.1833 565.125 91.75 566.075 91.75ZM576.01 94.25C574.66 94.25 573.626 93.8667 572.91 93.1C572.193 92.3333 571.835 91.25 571.835 89.85V80.65C571.835 79.25 572.193 78.1667 572.91 77.4C573.626 76.6333 574.66 76.25 576.01 76.25C577.36 76.25 578.393 76.6333 579.11 77.4C579.826 78.1667 580.185 79.25 580.185 80.65V89.85C580.185 91.25 579.826 92.3333 579.11 93.1C578.393 93.8667 577.36 94.25 576.01 94.25ZM576.01 91.75C576.96 91.75 577.435 91.175 577.435 90.025V80.475C577.435 79.325 576.96 78.75 576.01 78.75C575.06 78.75 574.585 79.325 574.585 80.475V90.025C574.585 91.175 575.06 91.75 576.01 91.75ZM586.02 94.25C584.67 94.25 583.636 93.8667 582.92 93.1C582.203 92.3333 581.845 91.25 581.845 89.85V80.65C581.845 79.25 582.203 78.1667 582.92 77.4C583.636 76.6333 584.67 76.25 586.02 76.25C587.37 76.25 588.403 76.6333 589.12 77.4C589.836 78.1667 590.195 79.25 590.195 80.65V89.85C590.195 91.25 589.836 92.3333 589.12 93.1C588.403 93.8667 587.37 94.25 586.02 94.25ZM586.02 91.75C586.97 91.75 587.445 91.175 587.445 90.025V80.475C587.445 79.325 586.97 78.75 586.02 78.75C585.07 78.75 584.595 79.325 584.595 80.475V90.025C584.595 91.175 585.07 91.75 586.02 91.75Z" fill="#161A35"/>
<circle cx="701.5" cy="107.5" r="43.5" fill="#F7F7F7"/>
<path d="M669.64 101.457C669.254 101.504 668.866 101.395 668.56 101.155C668.254 100.914 668.057 100.563 668.01 100.177C667.964 99.7912 668.073 99.4028 668.313 99.0972C668.553 98.7917 668.905 98.594 669.291 98.5477C670.897 98.2764 672.403 97.5837 673.655 96.5401C672.919 96.2341 672.287 95.7232 671.833 95.0681C671.379 94.4131 671.123 93.6415 671.095 92.845C671.092 92.2643 671.222 91.6908 671.476 91.1685C671.73 90.6461 672.1 90.189 672.558 89.8321C673.016 89.4752 673.55 89.2281 674.118 89.1099C674.687 88.9916 675.275 89.0053 675.837 89.1499C676.398 89.2894 676.922 89.5473 677.374 89.9063C677.827 90.2653 678.197 90.7171 678.46 91.2312C678.724 91.7453 678.874 92.3099 678.9 92.8869C678.927 93.4638 678.83 94.0399 678.616 94.5762C678.447 94.9881 678.258 95.3911 678.048 95.7836L680.565 97.2384C680.856 97.4502 681.059 97.7625 681.133 98.1149C681.207 98.4674 681.148 98.8348 680.967 99.1461C680.786 99.4575 680.496 99.6906 680.153 99.8004C679.81 99.9102 679.438 99.8889 679.11 99.7406L676.303 98.1258C674.884 99.5984 673.079 100.642 671.095 101.137C670.622 101.294 670.135 101.402 669.64 101.457ZM674.004 92.845C674.004 93.5288 674.601 93.7179 675.546 94.2998C675.91 93.616 676.157 93.1214 675.866 92.5686C675.791 92.36 675.646 92.1839 675.455 92.0701C675.265 91.9564 675.041 91.912 674.822 91.9446C674.603 91.9771 674.401 92.0846 674.252 92.2487C674.103 92.4129 674.015 92.6236 674.004 92.845Z" fill="#EDB996"/>
<path d="M735.104 105.821V110.186C730.478 114.055 723.568 119.685 717.24 120.369L716.192 127.643H710.373C709.66 122.697 709.588 121.824 709.209 120.369H688.45C687.759 122.743 687.306 125.179 687.097 127.643H681.278C680.67 121.932 679.446 116.303 677.627 110.855C676.937 108.783 676.75 106.576 677.081 104.417C677.412 102.258 678.252 100.209 679.531 98.4384C680.809 96.6679 682.491 95.2268 684.436 94.234C686.382 93.2413 688.535 92.7252 690.719 92.7286H709.282C710.65 87.3314 714.447 85.5857 717.647 84V92.7286C719.624 92.7381 721.559 93.2968 723.236 94.3423C724.914 95.3878 726.268 96.8791 727.147 98.6495L729.285 102.912L735.104 105.821Z" fill="#F6CCAF"/>
<path d="M735.104 105.822V110.186C730.478 114.056 723.568 119.686 717.24 120.369L716.614 124.734C715.574 124.749 714.563 124.392 713.763 123.728C712.963 123.064 712.426 122.136 712.25 121.111C712.25 120.791 712.148 120.515 712.104 120.369H709.195C708.573 117.482 707.403 114.741 705.747 112.295C705.52 112.013 705.195 111.826 704.837 111.77C704.479 111.715 704.113 111.795 703.81 111.995C703.508 112.196 703.292 112.501 703.203 112.853C703.115 113.204 703.161 113.576 703.332 113.896C704.643 115.884 705.625 118.069 706.242 120.369H691.461C692.304 118.023 693.655 115.891 695.418 114.128C695.692 113.855 695.846 113.483 695.846 113.096C695.846 112.708 695.692 112.337 695.418 112.063C695.144 111.789 694.773 111.635 694.385 111.635C693.998 111.635 693.626 111.789 693.352 112.063C689.982 115.47 687.922 119.957 687.533 124.734C686.474 124.744 685.445 124.384 684.624 123.715C682.252 121.824 683.169 118.987 680.623 111.175C679.887 109.057 679.676 106.791 680.006 104.573C680.336 102.354 681.199 100.249 682.519 98.4363C683.84 96.6236 685.58 95.1577 687.591 94.1638C689.602 93.1699 691.823 92.6776 694.065 92.7289H712.191C712.573 91.2153 713.252 89.7927 714.188 88.5439C715.125 87.2951 716.301 86.2451 717.647 85.4551V92.7289C719.623 92.7384 721.559 93.2971 723.236 94.3426C724.913 95.3882 726.267 96.8794 727.146 98.6498L729.285 102.912L735.104 105.822Z" fill="#FFDEC7"/>
<rect x="780.5" y="48.5" width="211" height="119" rx="9.5" stroke="#E3EDF3"/>
<path d="M802.293 128.293C802.679 127.906 803.304 127.902 803.695 128.281L803.707 128.293L809.707 134.293C810.098 134.683 810.098 135.317 809.707 135.707C809.321 136.094 808.696 136.098 808.305 135.719L808.293 135.707L803 130.414L797.707 135.707C797.321 136.094 796.696 136.098 796.305 135.719L796.293 135.707C795.906 135.321 795.902 134.696 796.281 134.305L796.293 134.293L802.293 128.293Z" fill="#0EBE7B"/>
<path d="M803 128.833C803.547 128.833 803.991 129.272 804 129.816L804 129.833V142C804 142.552 803.552 143 803 143C802.453 143 802.009 142.561 802 142.016L802 142V129.833C802 129.281 802.448 128.833 803 128.833Z" fill="#0EBE7B"/>
<path d="M796.193 104.219V103.381H800.922V104.219H799V112H798.121V104.219H796.193ZM805.041 105.461C806.021 105.461 806.834 105.816 807.479 106.527C808.064 107.176 808.357 107.943 808.357 108.83C808.357 109.721 808.047 110.5 807.426 111.168C806.809 111.832 806.014 112.164 805.041 112.164C804.064 112.164 803.266 111.832 802.645 111.168C802.027 110.5 801.719 109.721 801.719 108.83C801.719 107.947 802.012 107.182 802.598 106.533C803.242 105.818 804.057 105.461 805.041 105.461ZM805.041 106.264C804.361 106.264 803.777 106.516 803.289 107.02C802.801 107.523 802.557 108.133 802.557 108.848C802.557 109.309 802.668 109.738 802.891 110.137C803.113 110.535 803.414 110.844 803.793 111.062C804.172 111.277 804.588 111.385 805.041 111.385C805.494 111.385 805.91 111.277 806.289 111.062C806.668 110.844 806.969 110.535 807.191 110.137C807.414 109.738 807.525 109.309 807.525 108.848C807.525 108.133 807.279 107.523 806.787 107.02C806.299 106.516 805.717 106.264 805.041 106.264ZM810.602 103.258H811.428V105.625H812.729V106.328H811.428V112H810.602V106.328H809.482V105.625H810.602V103.258ZM820.305 105.625V112H819.496V110.904C819.152 111.322 818.766 111.637 818.336 111.848C817.91 112.059 817.443 112.164 816.936 112.164C816.033 112.164 815.262 111.838 814.621 111.186C813.984 110.529 813.666 109.732 813.666 108.795C813.666 107.877 813.988 107.092 814.633 106.439C815.277 105.787 816.053 105.461 816.959 105.461C817.482 105.461 817.955 105.572 818.377 105.795C818.803 106.018 819.176 106.352 819.496 106.797V105.625H820.305ZM817.023 106.252C816.566 106.252 816.145 106.365 815.758 106.592C815.371 106.814 815.062 107.129 814.832 107.535C814.605 107.941 814.492 108.371 814.492 108.824C814.492 109.273 814.607 109.703 814.838 110.113C815.068 110.523 815.377 110.844 815.764 111.074C816.154 111.301 816.572 111.414 817.018 111.414C817.467 111.414 817.893 111.301 818.295 111.074C818.697 110.848 819.006 110.541 819.221 110.154C819.439 109.768 819.549 109.332 819.549 108.848C819.549 108.109 819.305 107.492 818.816 106.996C818.332 106.5 817.734 106.252 817.023 106.252ZM822.033 103.164H822.854V112H822.033V103.164ZM827.898 103.381H828.76V112H827.898V103.381ZM830.605 105.625H831.426V106.768C831.754 106.33 832.117 106.004 832.516 105.789C832.914 105.57 833.348 105.461 833.816 105.461C834.293 105.461 834.715 105.582 835.082 105.824C835.453 106.066 835.727 106.393 835.902 106.803C836.078 107.213 836.166 107.852 836.166 108.719V112H835.352V108.959C835.352 108.225 835.32 107.734 835.258 107.488C835.16 107.066 834.977 106.75 834.707 106.539C834.438 106.324 834.086 106.217 833.652 106.217C833.156 106.217 832.711 106.381 832.316 106.709C831.926 107.037 831.668 107.443 831.543 107.928C831.465 108.244 831.426 108.822 831.426 109.662V112H830.605V105.625ZM837.326 105.625H838.199L840.332 110.266L842.447 105.625H843.326L840.408 112H840.262L837.326 105.625ZM849.953 109.885L850.645 110.248C850.418 110.693 850.156 111.053 849.859 111.326C849.562 111.6 849.229 111.809 848.857 111.953C848.486 112.094 848.066 112.164 847.598 112.164C846.559 112.164 845.746 111.824 845.16 111.145C844.574 110.461 844.281 109.689 844.281 108.83C844.281 108.021 844.529 107.301 845.025 106.668C845.654 105.863 846.496 105.461 847.551 105.461C848.637 105.461 849.504 105.873 850.152 106.697C850.613 107.279 850.848 108.006 850.855 108.877H845.125C845.141 109.619 845.377 110.229 845.834 110.705C846.291 111.178 846.855 111.414 847.527 111.414C847.852 111.414 848.166 111.357 848.471 111.244C848.779 111.131 849.041 110.98 849.256 110.793C849.471 110.605 849.703 110.303 849.953 109.885ZM849.953 108.168C849.844 107.73 849.684 107.381 849.473 107.119C849.266 106.857 848.99 106.646 848.646 106.486C848.303 106.326 847.941 106.246 847.562 106.246C846.938 106.246 846.4 106.447 845.951 106.85C845.623 107.143 845.375 107.582 845.207 108.168H849.953ZM855.596 106.322L855.068 106.867C854.631 106.441 854.203 106.229 853.785 106.229C853.52 106.229 853.291 106.316 853.1 106.492C852.912 106.668 852.818 106.873 852.818 107.107C852.818 107.314 852.896 107.512 853.053 107.699C853.209 107.891 853.537 108.115 854.037 108.373C854.646 108.689 855.061 108.994 855.279 109.287C855.494 109.584 855.602 109.918 855.602 110.289C855.602 110.812 855.418 111.256 855.051 111.619C854.684 111.982 854.225 112.164 853.674 112.164C853.307 112.164 852.955 112.084 852.619 111.924C852.287 111.764 852.012 111.543 851.793 111.262L852.309 110.676C852.727 111.148 853.17 111.385 853.639 111.385C853.967 111.385 854.246 111.279 854.477 111.068C854.707 110.857 854.822 110.609 854.822 110.324C854.822 110.09 854.746 109.881 854.594 109.697C854.441 109.518 854.098 109.291 853.562 109.018C852.988 108.721 852.598 108.428 852.391 108.139C852.184 107.85 852.08 107.52 852.08 107.148C852.08 106.664 852.244 106.262 852.572 105.941C852.904 105.621 853.322 105.461 853.826 105.461C854.412 105.461 855.002 105.748 855.596 106.322ZM857.77 103.258H858.596V105.625H859.896V106.328H858.596V112H857.77V106.328H856.65V105.625H857.77V103.258ZM861.115 105.625H861.93V106.727C862.215 106.32 862.508 106.023 862.809 105.836C863.223 105.586 863.658 105.461 864.115 105.461C864.424 105.461 864.717 105.521 864.994 105.643C865.271 105.764 865.498 105.926 865.674 106.129C865.85 106.328 866.002 106.615 866.131 106.99C866.404 106.49 866.746 106.111 867.156 105.854C867.566 105.592 868.008 105.461 868.48 105.461C868.922 105.461 869.311 105.572 869.646 105.795C869.986 106.018 870.238 106.328 870.402 106.727C870.566 107.125 870.648 107.723 870.648 108.52V112H869.811V108.52C869.811 107.836 869.762 107.367 869.664 107.113C869.566 106.855 869.398 106.648 869.16 106.492C868.926 106.336 868.645 106.258 868.316 106.258C867.918 106.258 867.553 106.375 867.221 106.609C866.893 106.844 866.652 107.156 866.5 107.547C866.348 107.938 866.271 108.59 866.271 109.504V112H865.457V108.736C865.457 107.967 865.408 107.445 865.311 107.172C865.217 106.895 865.051 106.674 864.812 106.51C864.574 106.342 864.291 106.258 863.963 106.258C863.584 106.258 863.229 106.373 862.896 106.604C862.568 106.83 862.324 107.137 862.164 107.523C862.008 107.91 861.93 108.502 861.93 109.299V112H861.115V105.625ZM877.75 109.885L878.441 110.248C878.215 110.693 877.953 111.053 877.656 111.326C877.359 111.6 877.025 111.809 876.654 111.953C876.283 112.094 875.863 112.164 875.395 112.164C874.355 112.164 873.543 111.824 872.957 111.145C872.371 110.461 872.078 109.689 872.078 108.83C872.078 108.021 872.326 107.301 872.822 106.668C873.451 105.863 874.293 105.461 875.348 105.461C876.434 105.461 877.301 105.873 877.949 106.697C878.41 107.279 878.645 108.006 878.652 108.877H872.922C872.938 109.619 873.174 110.229 873.631 110.705C874.088 111.178 874.652 111.414 875.324 111.414C875.648 111.414 875.963 111.357 876.268 111.244C876.576 111.131 876.838 110.98 877.053 110.793C877.268 110.605 877.5 110.303 877.75 109.885ZM877.75 108.168C877.641 107.73 877.48 107.381 877.27 107.119C877.062 106.857 876.787 106.646 876.443 106.486C876.1 106.326 875.738 106.246 875.359 106.246C874.734 106.246 874.197 106.447 873.748 106.85C873.42 107.143 873.172 107.582 873.004 108.168H877.75ZM880.188 105.625H881.008V106.768C881.336 106.33 881.699 106.004 882.098 105.789C882.496 105.57 882.93 105.461 883.398 105.461C883.875 105.461 884.297 105.582 884.664 105.824C885.035 106.066 885.309 106.393 885.484 106.803C885.66 107.213 885.748 107.852 885.748 108.719V112H884.934V108.959C884.934 108.225 884.902 107.734 884.84 107.488C884.742 107.066 884.559 106.75 884.289 106.539C884.02 106.324 883.668 106.217 883.234 106.217C882.738 106.217 882.293 106.381 881.898 106.709C881.508 107.037 881.25 107.443 881.125 107.928C881.047 108.244 881.008 108.822 881.008 109.662V112H880.188V105.625ZM888.227 103.258H889.053V105.625H890.354V106.328H889.053V112H888.227V106.328H887.107V105.625H888.227V103.258Z" fill="#737588"/>
<path d="M824.3 139.444H818.42V136.644L824.02 123.4H827.38V136.644H828.836V139.444H827.38V143H824.3V139.444ZM824.3 136.644V129H824.244L821.22 136.644H824.3ZM830.359 140.032H833.327V143H830.359V140.032ZM840.088 143.28C838.539 143.28 837.344 142.869 836.504 142.048C835.683 141.208 835.272 140.004 835.272 138.436V136.7C835.272 135.729 835.431 134.917 835.748 134.264C836.066 133.592 836.579 133.069 837.288 132.696V132.64C836.635 132.285 836.15 131.8 835.832 131.184C835.534 130.549 835.384 129.747 835.384 128.776V127.964C835.384 126.396 835.786 125.201 836.588 124.38C837.41 123.54 838.576 123.12 840.088 123.12C841.6 123.12 842.758 123.54 843.56 124.38C844.382 125.201 844.792 126.396 844.792 127.964V128.776C844.792 130.643 844.158 131.931 842.888 132.64V132.696C843.598 133.069 844.111 133.592 844.428 134.264C844.746 134.917 844.904 135.729 844.904 136.7V138.436C844.904 140.004 844.484 141.208 843.644 142.048C842.823 142.869 841.638 143.28 840.088 143.28ZM840.088 131.38C841.171 131.38 841.712 130.727 841.712 129.42V127.88C841.712 126.573 841.171 125.92 840.088 125.92C839.006 125.92 838.464 126.573 838.464 127.88V129.42C838.464 130.727 839.006 131.38 840.088 131.38ZM840.088 140.48C841.246 140.48 841.824 139.743 841.824 138.268V136.392C841.824 134.917 841.246 134.18 840.088 134.18C838.931 134.18 838.352 134.917 838.352 136.392V138.268C838.352 139.743 838.931 140.48 840.088 140.48ZM851.355 143.28C849.862 143.28 848.723 142.86 847.939 142.02C847.155 141.161 846.763 139.939 846.763 138.352V136.812H849.675V138.576C849.675 139.845 850.207 140.48 851.271 140.48C852.335 140.48 852.867 139.845 852.867 138.576V134.18C852.867 132.892 852.335 132.248 851.271 132.248C850.207 132.248 849.675 132.892 849.675 134.18V134.348H846.763L847.323 123.4H855.443V126.2H850.067L849.815 130.876H849.871C850.45 129.924 851.337 129.448 852.531 129.448C853.651 129.448 854.501 129.831 855.079 130.596C855.658 131.361 855.947 132.472 855.947 133.928V138.352C855.947 139.939 855.555 141.161 854.771 142.02C853.987 142.86 852.849 143.28 851.355 143.28ZM860.858 134.292C859.887 134.292 859.15 134.021 858.646 133.48C858.142 132.939 857.89 132.164 857.89 131.156V126.256C857.89 125.248 858.142 124.473 858.646 123.932C859.15 123.391 859.887 123.12 860.858 123.12C861.829 123.12 862.566 123.391 863.07 123.932C863.574 124.473 863.826 125.248 863.826 126.256V131.156C863.826 132.164 863.574 132.939 863.07 133.48C862.566 134.021 861.829 134.292 860.858 134.292ZM867.97 123.4H869.93L862.342 143H860.382L867.97 123.4ZM860.858 132.528C861.53 132.528 861.866 132.117 861.866 131.296V126.116C861.866 125.295 861.53 124.884 860.858 124.884C860.186 124.884 859.85 125.295 859.85 126.116V131.296C859.85 132.117 860.186 132.528 860.858 132.528ZM869.454 143.28C868.483 143.28 867.746 143.009 867.242 142.468C866.738 141.927 866.486 141.152 866.486 140.144V135.244C866.486 134.236 866.738 133.461 867.242 132.92C867.746 132.379 868.483 132.108 869.454 132.108C870.425 132.108 871.162 132.379 871.666 132.92C872.17 133.461 872.422 134.236 872.422 135.244V140.144C872.422 141.152 872.17 141.927 871.666 142.468C871.162 143.009 870.425 143.28 869.454 143.28ZM869.454 141.516C870.126 141.516 870.462 141.105 870.462 140.284V135.104C870.462 134.283 870.126 133.872 869.454 133.872C868.782 133.872 868.446 134.283 868.446 135.104V140.284C868.446 141.105 868.782 141.516 869.454 141.516Z" fill="#0EBE7B"/>
<path d="M797.975 92.1C797.975 90.85 798.175 89.7833 798.575 88.9C798.975 88 799.692 87.0083 800.725 85.925C801.742 84.8417 802.442 83.9167 802.825 83.15C803.225 82.3833 803.425 81.5833 803.425 80.75C803.425 80 803.3 79.4833 803.05 79.2C802.817 78.9 802.467 78.75 802 78.75C801.05 78.75 800.575 79.325 800.575 80.475V82.35H797.975V80.65C797.975 79.2333 798.325 78.15 799.025 77.4C799.725 76.6333 800.742 76.25 802.075 76.25C803.408 76.25 804.425 76.6333 805.125 77.4C805.825 78.15 806.175 79.2333 806.175 80.65C806.175 81.7167 805.917 82.7583 805.4 83.775C804.9 84.7917 804.025 85.9583 802.775 87.275C801.958 88.1417 801.408 88.85 801.125 89.4C800.842 89.9333 800.7 90.5083 800.7 91.125V91.5H805.925V94H797.975V92.1ZM812.085 94.25C810.735 94.25 809.701 93.8667 808.985 93.1C808.268 92.3333 807.91 91.25 807.91 89.85V80.8C807.91 77.7667 809.31 76.25 812.11 76.25C813.443 76.25 814.46 76.6333 815.16 77.4C815.86 78.15 816.21 79.2333 816.21 80.65V80.975H813.61V80.475C813.61 79.325 813.135 78.75 812.185 78.75C811.668 78.75 811.285 78.9083 811.035 79.225C810.785 79.5417 810.66 80.1 810.66 80.9V84.25H810.71C811.193 83.2333 812.026 82.725 813.21 82.725C814.21 82.725 814.968 83.0667 815.485 83.75C816.001 84.4333 816.26 85.425 816.26 86.725V89.85C816.26 91.25 815.901 92.3333 815.185 93.1C814.468 93.8667 813.435 94.25 812.085 94.25ZM812.085 91.75C813.035 91.75 813.51 91.1833 813.51 90.05V86.95C813.51 85.8 813.035 85.225 812.085 85.225C811.135 85.225 810.66 85.8 810.66 86.95V90.05C810.66 91.1833 811.135 91.75 812.085 91.75ZM821.92 94.25C820.586 94.25 819.57 93.875 818.87 93.125C818.17 92.3583 817.82 91.2667 817.82 89.85V89.525H820.42V90.025C820.42 91.175 820.895 91.75 821.845 91.75C822.361 91.75 822.745 91.5917 822.995 91.275C823.245 90.9583 823.37 90.4 823.37 89.6V86.25H823.32C822.836 87.2667 822.003 87.775 820.82 87.775C819.82 87.775 819.061 87.4333 818.545 86.75C818.028 86.0667 817.77 85.075 817.77 83.775V80.65C817.77 79.25 818.128 78.1667 818.845 77.4C819.561 76.6333 820.595 76.25 821.945 76.25C823.295 76.25 824.328 76.6333 825.045 77.4C825.761 78.1667 826.12 79.25 826.12 80.65V89.7C826.12 92.7333 824.72 94.25 821.92 94.25ZM821.945 85.275C822.895 85.275 823.37 84.7 823.37 83.55V80.45C823.37 79.3167 822.895 78.75 821.945 78.75C820.995 78.75 820.52 79.3167 820.52 80.45V83.55C820.52 84.7 820.995 85.275 821.945 85.275Z" fill="#161A35"/>
<circle cx="939.5" cy="107.5" r="43.5" fill="#F7F7F7"/>
<path d="M941.521 133.825V127.955C941.521 127.644 941.645 127.345 941.865 127.125C942.085 126.905 942.384 126.781 942.695 126.781C943.007 126.781 943.305 126.905 943.525 127.125C943.746 127.345 943.869 127.644 943.869 127.955V133.825C943.869 134.136 943.746 134.435 943.525 134.655C943.305 134.875 943.007 134.999 942.695 134.999C942.384 134.999 942.085 134.875 941.865 134.655C941.645 134.435 941.521 134.136 941.521 133.825Z" fill="#FFCC66"/>
<path d="M959.131 90.389V102.128H949.739V90.389C949.739 89.1437 950.234 87.9493 951.115 87.0687C951.995 86.1881 953.19 85.6934 954.435 85.6934C955.68 85.6934 956.875 86.1881 957.755 87.0687C958.636 87.9493 959.131 89.1437 959.131 90.389Z" fill="#EDEBF2"/>
<path d="M959.132 102.129V106.825C959.132 111.183 957.4 115.364 954.318 118.446C951.236 121.528 947.055 123.26 942.697 123.26C938.338 123.26 934.158 121.528 931.075 118.446C927.993 115.364 926.262 111.183 926.262 106.825V102.129H959.132Z" fill="#DAD7E5"/>
<path d="M959.13 102.129V106.825C959.13 109.174 958.626 111.497 957.652 113.635C956.678 115.774 955.256 117.679 953.484 119.221C951.94 119.999 950.278 120.514 948.565 120.747C946.232 121.084 943.854 120.915 941.592 120.252C939.331 119.588 937.238 118.446 935.456 116.903C933.675 115.36 932.246 113.452 931.267 111.307C930.288 109.163 929.782 106.834 929.782 104.477V102.129H959.13Z" fill="#EDEBF2"/>
<path d="M926.261 102.128C925.49 102.127 924.726 102.278 924.013 102.572C923.3 102.866 922.651 103.298 922.105 103.842C918.971 107.012 921.941 110.322 917.644 114.642C916.772 115.514 915.736 116.206 914.595 116.677C913.455 117.148 912.234 117.39 911 117.389V101.541C910.999 99.5171 911.801 97.575 913.23 96.1414C917.867 91.5631 926.261 94.2514 926.261 102.128Z" fill="#DB5669"/>
<path d="M926.261 102.128C925.489 102.127 924.725 102.278 924.012 102.572C923.299 102.866 922.651 103.297 922.105 103.842C918.971 107.012 921.941 110.322 917.644 114.642C916.75 115.531 915.689 116.233 914.521 116.708V101.541C914.519 99.8235 915.097 98.1554 916.163 96.8083C917.228 95.4611 918.719 94.5144 920.391 94.1221C923.678 94.8851 926.261 97.6556 926.261 102.128Z" fill="#F26674"/>
<path d="M949.739 102.129V107.999C949.739 110.489 948.749 112.878 946.988 114.639C945.227 116.4 942.838 117.39 940.347 117.39C937.857 117.39 935.468 116.4 933.707 114.639C931.946 112.878 930.956 110.489 930.956 107.999V106.825C930.956 106.513 931.08 106.215 931.3 105.995C931.52 105.774 931.819 105.651 932.13 105.651H939.174C939.485 105.651 939.783 105.774 940.004 105.995C940.224 106.215 940.347 106.513 940.347 106.825C940.347 107.136 940.224 107.435 940.004 107.655C939.783 107.875 939.485 107.999 939.174 107.999H933.304C933.306 108.799 933.445 109.593 933.715 110.346H939.174C939.485 110.346 939.783 110.47 940.004 110.69C940.224 110.91 940.347 111.209 940.347 111.52C940.347 111.832 940.224 112.13 940.004 112.35C939.783 112.571 939.485 112.694 939.174 112.694H935.112C936.064 113.752 937.314 114.497 938.698 114.83C940.082 115.164 941.534 115.07 942.863 114.562C944.193 114.053 945.337 113.154 946.145 111.982C946.953 110.811 947.388 109.422 947.391 107.999V102.129H949.739Z" fill="#DAD7E5"/>
<path d="M945.043 123.095V127.955H940.348V123.095C941.905 123.312 943.486 123.312 945.043 123.095Z" fill="#FFCC66"/>
<path d="M945.044 123.095V126.781C944.421 126.781 943.824 126.533 943.384 126.093C942.944 125.653 942.696 125.056 942.696 124.433V123.259C943.482 123.258 944.266 123.203 945.044 123.095Z" fill="#FFDE76"/>
<path d="M958.826 88.7458C958.488 87.8549 957.887 87.0879 957.103 86.5466C956.319 86.0054 955.388 85.7155 954.435 85.7155C953.482 85.7155 952.552 86.0054 951.768 86.5466C950.984 87.0879 950.383 87.8549 950.045 88.7458C949.749 89.6537 949.645 90.6131 949.74 91.5633C948.875 90.9139 948.206 90.0384 947.808 89.0332C947.409 88.028 947.296 86.9322 947.481 85.8667C947.666 84.8013 948.141 83.8076 948.855 82.9953C949.569 82.1829 950.493 81.5836 951.526 81.2633C952.559 80.9431 953.66 80.9144 954.708 81.1803C955.756 81.4463 956.71 81.9967 957.465 82.7707C958.221 83.5447 958.747 84.5123 958.987 85.5667C959.227 86.621 959.171 87.7212 958.826 88.7458Z" fill="#DB5669"/>
<path d="M965 93.9114L959.131 97.4332V90.3896L965 93.9114Z" fill="#FFDE76"/>
<path d="M959.131 99.7812H949.739V102.129H959.131V99.7812Z" fill="#DAD7E5"/>
<path d="M958.827 88.7457C958.489 87.8548 957.888 87.0878 957.104 86.5465C956.32 86.0052 955.389 85.7154 954.436 85.7154C953.483 85.7154 952.553 86.0052 951.769 86.5465C950.985 87.0878 950.384 87.8548 950.046 88.7457C948.684 84.7544 952.088 81.1152 954.436 81.1152C955.252 81.2813 956.024 81.619 956.699 82.1059C957.374 82.5929 957.938 83.218 958.354 83.9397C958.769 84.6614 959.026 85.4632 959.107 86.2918C959.189 87.1204 959.093 87.9569 958.827 88.7457Z" fill="#F26674"/>
<rect x="72" y="208" width="920" height="1" rx="0.5" fill="#DFE9EF"/>
<rect x="72" y="257" width="920" height="1" rx="0.5" fill="#DFE9EF"/>
<rect x="72" y="306" width="920" height="1" rx="0.5" fill="#DFE9EF"/>
<rect x="72" y="355" width="920" height="1" rx="0.5" fill="#DFE9EF"/>
<rect x="72" y="404" width="920" height="1" rx="0.5" fill="#DFE9EF"/>
<rect x="526" y="208" width="1" height="197" fill="#DFE9EF"/>
<path d="M137 315.219L267 275.219L397 323L527 275.219L657 288L787 232L917 275.219" stroke="#0E4944" stroke-width="2"/>
<path opacity="0.32" fill-rule="evenodd" clip-rule="evenodd" d="M137 315.219L267 275.219L397 323L527 275.219L657 288L787 232L917 275.219V405H137V315.219Z" fill="url(#paint0_linear)"/>
<path opacity="0.24" d="M137 373.219L267 363.219L397 381L527 363.219L657 336L787 340L917 313.219" stroke="#0E4944" stroke-width="2"/>
<circle cx="137" cy="316" r="4" fill="white" stroke="#0E4944" stroke-width="2"/>
<circle cx="267" cy="275" r="4" fill="white" stroke="#0E4944" stroke-width="2"/>
<circle cx="397" cy="323" r="4" fill="white" stroke="#0E4944" stroke-width="2"/>
<circle cx="527" cy="275" r="4" fill="white" stroke="#0E4944" stroke-width="2"/>
<circle cx="658" cy="288" r="4" fill="white" stroke="#0E4944" stroke-width="2"/>
<circle cx="788" cy="232" r="4" fill="white" stroke="#0E4944" stroke-width="2"/>
<circle cx="918" cy="276" r="4" fill="white" stroke="#0E4944" stroke-width="2"/>
<defs>
<filter id="filter0_d" x="0" y="0" width="1064" height="555" filterUnits="userSpaceOnUse" color-interpolation-filters="sRGB">
<feFlood flood-opacity="0" result="BackgroundImageFix"/>
<feColorMatrix in="SourceAlpha" type="matrix" values="0 0 0 0 0 0 0 0 0 0 0 0 0 0 0 0 0 0 127 0"/>
<feOffset dy="24"/>
<feGaussianBlur stdDeviation="24"/>
<feColorMatrix type="matrix" values="0 0 0 0 0.0980392 0 0 0 0 0.113725 0 0 0 0 0.219608 0 0 0 0.16 0"/>
<feBlend mode="normal" in2="BackgroundImageFix" result="effect1_dropShadow"/>
<feBlend mode="normal" in="SourceGraphic" in2="effect1_dropShadow" result="shape"/>
</filter>
<linearGradient id="paint0_linear" x1="137" y1="232" x2="137" y2="405" gradientUnits="userSpaceOnUse">
<stop stop-color="#0E4944"/>
<stop offset="1" stop-color="white" stop-opacity="0.01"/>
</linearGradient>
</defs>
</svg>
