<svg width="120" height="40" viewBox="0 0 120 40" fill="none" xmlns="http://www.w3.org/2000/svg">
<rect width="120" height="40" rx="8" fill="#0E4944"/>
<path d="M51.2715 14.9443H57.0342V15.9355H52.2764V19.0801H56.9932V20.0645H52.2764V24.0088H56.9932V25H51.2715V14.9443ZM57.7656 17.5625H58.9141L60.8828 20.3174L62.8516 17.5625H64L61.457 21.0967L64.3213 25H63.1592L60.8828 21.876L58.6406 25H57.499L60.3154 21.0967L57.7656 17.5625ZM65.3535 17.5625H66.3037V18.9297C66.682 18.4102 67.1172 18.0205 67.6094 17.7607C68.1016 17.501 68.6507 17.3711 69.2568 17.3711C70.3141 17.3711 71.2188 17.7516 71.9707 18.5127C72.7227 19.2738 73.0986 20.1898 73.0986 21.2607C73.0986 22.3545 72.7249 23.2842 71.9775 24.0498C71.2347 24.8109 70.3369 25.1914 69.2842 25.1914C68.6917 25.1914 68.1471 25.0684 67.6504 24.8223C67.1536 24.5762 66.7048 24.2093 66.3037 23.7217V27.7207H65.3535V17.5625ZM69.1816 18.2939C68.3522 18.2939 67.6527 18.5833 67.083 19.1621C66.5179 19.7409 66.2354 20.4609 66.2354 21.3223C66.2354 21.8874 66.3607 22.3955 66.6113 22.8467C66.8665 23.2979 67.2288 23.6556 67.6982 23.9199C68.1722 24.1842 68.6712 24.3164 69.1953 24.3164C69.7103 24.3164 70.1934 24.1842 70.6445 23.9199C71.1003 23.651 71.4626 23.2773 71.7314 22.7988C72.0003 22.3203 72.1348 21.819 72.1348 21.2949C72.1348 20.7663 72.0003 20.265 71.7314 19.791C71.4671 19.3171 71.1094 18.9502 70.6582 18.6904C70.207 18.4261 69.7148 18.2939 69.1816 18.2939ZM78.417 17.3711C79.5609 17.3711 80.5088 17.7858 81.2607 18.6152C81.9443 19.3717 82.2861 20.2673 82.2861 21.3018C82.2861 22.3408 81.9238 23.25 81.1992 24.0293C80.4792 24.804 79.5518 25.1914 78.417 25.1914C77.2777 25.1914 76.3457 24.804 75.6211 24.0293C74.901 23.25 74.541 22.3408 74.541 21.3018C74.541 20.2718 74.8828 19.3786 75.5664 18.6221C76.3184 17.7881 77.2686 17.3711 78.417 17.3711ZM78.417 18.3076C77.624 18.3076 76.9427 18.6016 76.373 19.1895C75.8034 19.7773 75.5186 20.4883 75.5186 21.3223C75.5186 21.86 75.6484 22.3613 75.9082 22.8262C76.168 23.291 76.5189 23.651 76.9609 23.9062C77.403 24.1569 77.8883 24.2822 78.417 24.2822C78.9456 24.2822 79.431 24.1569 79.873 23.9062C80.3151 23.651 80.666 23.291 80.9258 22.8262C81.1855 22.3613 81.3154 21.86 81.3154 21.3223C81.3154 20.4883 81.0283 19.7773 80.4541 19.1895C79.8844 18.6016 79.2054 18.3076 78.417 18.3076ZM83.708 17.5625H84.6855V18.6494C84.9772 18.221 85.2848 17.902 85.6084 17.6924C85.932 17.4782 86.2692 17.3711 86.6201 17.3711C86.8844 17.3711 87.167 17.4554 87.4678 17.624L86.9688 18.4307C86.7682 18.3441 86.5996 18.3008 86.4629 18.3008C86.1439 18.3008 85.8363 18.4329 85.54 18.6973C85.2438 18.957 85.0182 19.3626 84.8633 19.9141C84.7448 20.3379 84.6855 21.1947 84.6855 22.4844V25H83.708V17.5625ZM89.1152 14.8008H90.0791V17.5625H91.5967V18.3828H90.0791V25H89.1152V18.3828H87.8096V17.5625H89.1152V14.8008Z" fill="white"/>
<path d="M28.3308 15.7143C28.7295 15.7143 29.0526 16.0341 29.0526 16.4286C29.0526 16.8184 28.7371 17.1352 28.345 17.1427L28.3308 17.1429H26.5263C25.9343 17.1429 25.4533 17.613 25.4438 18.1966L25.4436 18.2143V27.5C25.4436 28.0858 25.9187 28.5618 26.5084 28.5713L26.5263 28.5714H37.3534C37.9454 28.5714 38.4264 28.1013 38.4359 27.5177L38.4361 27.5V18.2143C38.4361 17.6285 37.961 17.1525 37.3713 17.143L37.3534 17.1429H35.5489C35.1502 17.1429 34.8271 16.8231 34.8271 16.4286C34.8271 16.0388 35.1426 15.7219 35.5347 15.7144L35.5489 15.7143H37.3534C38.7347 15.7143 39.8571 16.8113 39.8794 18.173L39.8797 18.2143V27.5C39.8797 28.8669 38.7711 29.9776 37.3952 29.9997L37.3534 30H26.5263C25.145 30 24.0226 28.903 24.0003 27.5414L24 27.5V18.2143C24 16.8474 25.1086 15.7367 26.4845 15.7146L26.5263 15.7143H28.3308Z" fill="white"/>
<path d="M35.0388 20.2092C35.3207 19.9303 35.7777 19.9303 36.0596 20.2092C36.3376 20.4843 36.3414 20.9279 36.0712 21.2076L36.0596 21.2194L32.4506 24.7908C32.1726 25.0659 31.7244 25.0697 31.4417 24.8023L31.4298 24.7908L27.8208 21.2194C27.5389 20.9404 27.5389 20.4882 27.8208 20.2092C28.0988 19.9341 28.547 19.9303 28.8297 20.1977L28.8416 20.2092L31.9402 23.2756L35.0388 20.2092Z" fill="white"/>
<path d="M31.9396 10C32.3335 10 32.6537 10.3122 32.6612 10.7002L32.6614 10.7143V23.5714C32.6614 23.9659 32.3382 24.2857 31.9396 24.2857C31.5457 24.2857 31.2255 23.9735 31.2179 23.5855L31.2178 23.5714V10.7143C31.2178 10.3198 31.5409 10 31.9396 10Z" fill="white"/>
</svg>
