<svg width="fit-content" height="fit-content" viewBox="0 0 535 751" fill="none" xmlns="http://www.w3.org/2000/svg">
<path d="M28.1406 645.918H506.86V727C506.86 740.255 496.115 751 482.86 751H52.1406C38.8858 751 28.1406 740.255 28.1406 727V645.918Z" fill="#0E4944"/>
<g opacity="0.16" filter="url(#filter0_f)">
<rect x="28.1406" y="604.414" width="478.719" height="66.2284" rx="24" fill="#0E4944"/>
<rect x="28.1406" y="604.414" width="478.719" height="66.2284" rx="24" stroke="#979797"/>
</g>
<rect x="8" y="1" width="519" height="662.284" rx="24" fill="white" stroke="#979797"/>
<path d="M55.2734 62.4521H65.9668V66.4512H59.3311V70.3623H65.9668V74.3027H59.3311V84H55.2734V62.4521ZM69.1748 68.0625H73.2178V75.7383C73.2178 77.2324 73.3203 78.2725 73.5254 78.8584C73.7305 79.4346 74.0576 79.8838 74.5068 80.2061C74.9658 80.5283 75.5273 80.6895 76.1914 80.6895C76.8555 80.6895 77.417 80.5332 77.876 80.2207C78.3447 79.8984 78.6914 79.4297 78.916 78.8145C79.082 78.3555 79.165 77.374 79.165 75.8701V68.0625H83.1787V74.8154C83.1787 77.5986 82.959 79.5029 82.5195 80.5283C81.9824 81.7783 81.1914 82.7402 80.1465 83.4141C79.1016 84.0781 77.7734 84.4102 76.1621 84.4102C74.4141 84.4102 72.998 84.0195 71.9141 83.2383C70.8398 82.457 70.083 81.3682 69.6436 79.9717C69.3311 79.0049 69.1748 77.2471 69.1748 74.6982V68.0625ZM87.207 68.0625H91.1914V69.6885C92.0996 68.9268 92.9199 68.3994 93.6523 68.1064C94.3945 67.8037 95.1514 67.6523 95.9229 67.6523C97.5049 67.6523 98.8477 68.2041 99.9512 69.3076C100.879 70.2451 101.343 71.6318 101.343 73.4678V84H97.3877V77.0127C97.3877 75.1084 97.2998 73.8438 97.124 73.2188C96.958 72.5938 96.6602 72.1201 96.2305 71.7979C95.8105 71.4658 95.2881 71.2998 94.6631 71.2998C93.8525 71.2998 93.1543 71.5732 92.5684 72.1201C91.9922 72.6572 91.5918 73.4043 91.3672 74.3613C91.25 74.8594 91.1914 75.9385 91.1914 77.5986V84H87.207V68.0625ZM117.002 61.9102H120.986V84H117.002V82.3154C116.221 83.0576 115.435 83.5947 114.644 83.9268C113.862 84.249 113.013 84.4102 112.095 84.4102C110.034 84.4102 108.252 83.6143 106.748 82.0225C105.244 80.4209 104.492 78.4336 104.492 76.0605C104.492 73.5996 105.22 71.583 106.675 70.0107C108.13 68.4385 109.897 67.6523 111.978 67.6523C112.935 67.6523 113.833 67.833 114.673 68.1943C115.513 68.5557 116.289 69.0977 117.002 69.8203V61.9102ZM112.798 71.3438C111.558 71.3438 110.527 71.7832 109.707 72.6621C108.887 73.5312 108.477 74.6494 108.477 76.0166C108.477 77.3936 108.892 78.5264 109.722 79.415C110.562 80.3037 111.592 80.748 112.812 80.748C114.072 80.748 115.117 80.3135 115.947 79.4443C116.777 78.5654 117.192 77.418 117.192 76.002C117.192 74.6152 116.777 73.4922 115.947 72.6328C115.117 71.7734 114.067 71.3438 112.798 71.3438ZM132.236 62.4521H136.279L139.385 76.207L143.237 62.4521H146.65L150.547 76.207L153.623 62.4521H157.666L152.817 84H148.877L144.907 70.0693L141.011 84H137.114L132.236 62.4521ZM172.227 68.0625H176.211V84H172.227V82.3154C171.445 83.0576 170.659 83.5947 169.868 83.9268C169.087 84.249 168.237 84.4102 167.319 84.4102C165.259 84.4102 163.477 83.6143 161.973 82.0225C160.469 80.4209 159.717 78.4336 159.717 76.0605C159.717 73.5996 160.444 71.583 161.899 70.0107C163.354 68.4385 165.122 67.6523 167.202 67.6523C168.159 67.6523 169.058 67.833 169.897 68.1943C170.737 68.5557 171.514 69.0977 172.227 69.8203V68.0625ZM168.022 71.3438C166.782 71.3438 165.752 71.7832 164.932 72.6621C164.111 73.5312 163.701 74.6494 163.701 76.0166C163.701 77.3936 164.116 78.5264 164.946 79.415C165.786 80.3037 166.816 80.748 168.037 80.748C169.297 80.748 170.342 80.3135 171.172 79.4443C172.002 78.5654 172.417 77.418 172.417 76.002C172.417 74.6152 172.002 73.4922 171.172 72.6328C170.342 71.7734 169.292 71.3438 168.022 71.3438ZM179.829 61.9102H183.828V84H179.829V61.9102ZM187.036 61.9102H191.035V84H187.036V61.9102ZM210.635 77.1885H197.788C197.974 78.3213 198.467 79.2246 199.268 79.8984C200.078 80.5625 201.108 80.8945 202.358 80.8945C203.853 80.8945 205.137 80.3721 206.211 79.3271L209.58 80.9092C208.74 82.1006 207.734 82.9844 206.562 83.5605C205.391 84.127 203.999 84.4102 202.388 84.4102C199.888 84.4102 197.852 83.624 196.279 82.0518C194.707 80.4697 193.921 78.4922 193.921 76.1191C193.921 73.6875 194.702 71.6709 196.265 70.0693C197.837 68.458 199.805 67.6523 202.168 67.6523C204.678 67.6523 206.719 68.458 208.291 70.0693C209.863 71.6709 210.649 73.79 210.649 76.4268L210.635 77.1885ZM206.621 74.0391C206.357 73.1504 205.835 72.4277 205.054 71.8711C204.282 71.3145 203.384 71.0361 202.358 71.0361C201.245 71.0361 200.269 71.3486 199.429 71.9736C198.901 72.3643 198.413 73.0527 197.964 74.0391H206.621ZM214.37 62.1885H218.354V68.0625H220.728V71.5049H218.354V84H214.37V71.5049H212.319V68.0625H214.37V62.1885Z" fill="#0E4944"/>
<rect x="50" y="559.187" width="446.185" height="57.6923" rx="5" fill="#1E5E4A"/>
<path d="M252.936 582.258H259.352V584.657H255.37V587.004H259.352V589.368H255.37V595.187H252.936V582.258ZM261.276 585.624H263.702V590.23C263.702 591.126 263.764 591.75 263.887 592.102C264.01 592.448 264.206 592.717 264.476 592.91C264.751 593.104 265.088 593.2 265.486 593.2C265.885 593.2 266.222 593.107 266.497 592.919C266.778 592.726 266.986 592.445 267.121 592.075C267.221 591.8 267.271 591.211 267.271 590.309V585.624H269.679V589.676C269.679 591.346 269.547 592.489 269.283 593.104C268.961 593.854 268.486 594.431 267.859 594.835C267.232 595.234 266.436 595.433 265.469 595.433C264.42 595.433 263.57 595.198 262.92 594.73C262.275 594.261 261.821 593.608 261.558 592.77C261.37 592.19 261.276 591.135 261.276 589.606V585.624ZM272.096 585.624H274.486V586.6C275.031 586.143 275.523 585.826 275.963 585.651C276.408 585.469 276.862 585.378 277.325 585.378C278.274 585.378 279.08 585.709 279.742 586.371C280.299 586.934 280.577 587.766 280.577 588.867V595.187H278.204V590.994C278.204 589.852 278.151 589.093 278.046 588.718C277.946 588.343 277.768 588.059 277.51 587.865C277.258 587.666 276.944 587.567 276.569 587.567C276.083 587.567 275.664 587.731 275.312 588.059C274.967 588.381 274.727 588.829 274.592 589.404C274.521 589.702 274.486 590.35 274.486 591.346V595.187H272.096V585.624ZM289.973 581.933H292.363V595.187H289.973V594.176C289.504 594.621 289.032 594.944 288.558 595.143C288.089 595.336 287.579 595.433 287.028 595.433C285.792 595.433 284.723 594.955 283.82 594C282.918 593.039 282.467 591.847 282.467 590.423C282.467 588.947 282.903 587.737 283.776 586.793C284.649 585.85 285.71 585.378 286.958 585.378C287.532 585.378 288.071 585.487 288.575 585.703C289.079 585.92 289.545 586.245 289.973 586.679V581.933ZM287.45 587.593C286.706 587.593 286.088 587.857 285.596 588.384C285.104 588.906 284.857 589.576 284.857 590.397C284.857 591.223 285.106 591.903 285.604 592.436C286.108 592.969 286.727 593.236 287.459 593.236C288.215 593.236 288.842 592.975 289.34 592.453C289.838 591.926 290.087 591.238 290.087 590.388C290.087 589.556 289.838 588.882 289.34 588.366C288.842 587.851 288.212 587.593 287.45 587.593Z" fill="white"/>
<path d="M52.9648 297.046L53.9414 296.46C54.6289 297.726 55.4232 298.359 56.3242 298.359C56.7096 298.359 57.0716 298.27 57.4102 298.093C57.7487 297.911 58.0065 297.668 58.1836 297.366C58.3607 297.064 58.4492 296.744 58.4492 296.405C58.4492 296.02 58.319 295.642 58.0586 295.273C57.6992 294.762 57.043 294.148 56.0898 293.429C55.1315 292.705 54.5352 292.181 54.3008 291.859C53.8945 291.317 53.6914 290.731 53.6914 290.101C53.6914 289.601 53.8112 289.145 54.0508 288.734C54.2904 288.322 54.6263 287.999 55.0586 287.765C55.4961 287.525 55.9701 287.405 56.4805 287.405C57.0221 287.405 57.5273 287.541 57.9961 287.812C58.4701 288.077 58.9701 288.57 59.4961 289.288L58.5586 289.999C58.1263 289.426 57.7565 289.049 57.4492 288.866C57.1471 288.684 56.8164 288.593 56.457 288.593C55.9935 288.593 55.6133 288.734 55.3164 289.015C55.0247 289.296 54.8789 289.642 54.8789 290.054C54.8789 290.304 54.931 290.546 55.0352 290.78C55.1393 291.015 55.3294 291.27 55.6055 291.546C55.7565 291.692 56.2513 292.075 57.0898 292.695C58.0846 293.429 58.7669 294.083 59.1367 294.655C59.5065 295.228 59.6914 295.804 59.6914 296.382C59.6914 297.215 59.3737 297.939 58.7383 298.554C58.1081 299.168 57.3398 299.476 56.4336 299.476C55.7357 299.476 55.1029 299.291 54.5352 298.921C53.9674 298.546 53.444 297.921 52.9648 297.046ZM69.0977 296.366L70.0195 296.851C69.7174 297.445 69.3685 297.924 68.9727 298.288C68.5768 298.653 68.1315 298.931 67.6367 299.124C67.1419 299.312 66.582 299.405 65.957 299.405C64.5716 299.405 63.4883 298.952 62.707 298.046C61.9258 297.135 61.5352 296.106 61.5352 294.96C61.5352 293.882 61.8659 292.921 62.5273 292.077C63.3659 291.004 64.4883 290.468 65.8945 290.468C67.3424 290.468 68.4987 291.017 69.3633 292.116C69.9779 292.892 70.2904 293.861 70.3008 295.023H62.6602C62.681 296.012 62.9961 296.825 63.6055 297.46C64.2148 298.09 64.9674 298.405 65.8633 298.405C66.2956 298.405 66.7148 298.33 67.1211 298.179C67.5326 298.028 67.8815 297.827 68.168 297.577C68.4544 297.327 68.7643 296.924 69.0977 296.366ZM69.0977 294.077C68.9518 293.494 68.7383 293.028 68.457 292.679C68.181 292.33 67.8138 292.049 67.3555 291.835C66.8971 291.622 66.4154 291.515 65.9102 291.515C65.0768 291.515 64.3607 291.783 63.7617 292.32C63.3242 292.71 62.9935 293.296 62.7695 294.077H69.0977ZM72.1836 287.405H73.2773V299.187H72.1836V287.405ZM82.707 296.366L83.6289 296.851C83.3268 297.445 82.9779 297.924 82.582 298.288C82.1862 298.653 81.7409 298.931 81.2461 299.124C80.7513 299.312 80.1914 299.405 79.5664 299.405C78.181 299.405 77.0977 298.952 76.3164 298.046C75.5352 297.135 75.1445 296.106 75.1445 294.96C75.1445 293.882 75.4753 292.921 76.1367 292.077C76.9753 291.004 78.0977 290.468 79.5039 290.468C80.9518 290.468 82.1081 291.017 82.9727 292.116C83.5872 292.892 83.8997 293.861 83.9102 295.023H76.2695C76.2904 296.012 76.6055 296.825 77.2148 297.46C77.8242 298.09 78.5768 298.405 79.4727 298.405C79.9049 298.405 80.3242 298.33 80.7305 298.179C81.1419 298.028 81.4909 297.827 81.7773 297.577C82.0638 297.327 82.3737 296.924 82.707 296.366ZM82.707 294.077C82.5612 293.494 82.3477 293.028 82.0664 292.679C81.7904 292.33 81.4232 292.049 80.9648 291.835C80.5065 291.622 80.0247 291.515 79.5195 291.515C78.6862 291.515 77.9701 291.783 77.3711 292.32C76.9336 292.71 76.6029 293.296 76.3789 294.077H82.707ZM94.207 292.452L93.3398 292.991C92.5898 291.997 91.5664 291.499 90.2695 291.499C89.2331 291.499 88.3711 291.833 87.6836 292.499C87.0013 293.166 86.6602 293.976 86.6602 294.929C86.6602 295.549 86.8164 296.132 87.1289 296.679C87.4466 297.226 87.8789 297.65 88.4258 297.952C88.9779 298.254 89.5951 298.405 90.2773 298.405C91.5273 298.405 92.5482 297.908 93.3398 296.913L94.207 297.484C93.8008 298.093 93.2539 298.567 92.5664 298.905C91.8841 299.239 91.1055 299.405 90.2305 299.405C88.8867 299.405 87.7721 298.978 86.8867 298.124C86.0013 297.27 85.5586 296.231 85.5586 295.007C85.5586 294.184 85.7643 293.421 86.1758 292.718C86.5924 292.01 87.1628 291.458 87.8867 291.062C88.6107 290.666 89.4206 290.468 90.3164 290.468C90.8789 290.468 91.4206 290.554 91.9414 290.726C92.4674 290.898 92.9128 291.122 93.2773 291.398C93.6419 291.674 93.9518 292.025 94.207 292.452ZM97.2695 287.53H98.3711V290.687H100.105V291.624H98.3711V299.187H97.2695V291.624H95.7773V290.687H97.2695V287.53ZM105.707 287.695H106.887L109.223 295.976L112.52 287.695H112.754L116.012 295.976L118.395 287.695H119.566L116.27 299.187H116.051L112.645 290.491L109.168 299.187H108.949L105.707 287.695ZM130.004 290.687V299.187H128.926V297.726C128.467 298.283 127.952 298.702 127.379 298.984C126.811 299.265 126.189 299.405 125.512 299.405C124.309 299.405 123.28 298.971 122.426 298.101C121.577 297.226 121.152 296.163 121.152 294.913C121.152 293.689 121.582 292.642 122.441 291.773C123.301 290.903 124.335 290.468 125.543 290.468C126.241 290.468 126.871 290.616 127.434 290.913C128.001 291.21 128.499 291.655 128.926 292.249V290.687H130.004ZM125.629 291.523C125.02 291.523 124.457 291.674 123.941 291.976C123.426 292.273 123.014 292.692 122.707 293.234C122.405 293.775 122.254 294.348 122.254 294.952C122.254 295.551 122.408 296.124 122.715 296.671C123.022 297.218 123.434 297.645 123.949 297.952C124.47 298.254 125.027 298.405 125.621 298.405C126.22 298.405 126.788 298.254 127.324 297.952C127.861 297.65 128.272 297.241 128.559 296.726C128.85 296.21 128.996 295.629 128.996 294.984C128.996 293.999 128.671 293.176 128.02 292.515C127.374 291.853 126.577 291.523 125.629 291.523ZM132.309 287.405H133.402V299.187H132.309V287.405ZM135.512 287.405H136.605V299.187H135.512V287.405ZM146.035 296.366L146.957 296.851C146.655 297.445 146.306 297.924 145.91 298.288C145.514 298.653 145.069 298.931 144.574 299.124C144.079 299.312 143.52 299.405 142.895 299.405C141.509 299.405 140.426 298.952 139.645 298.046C138.863 297.135 138.473 296.106 138.473 294.96C138.473 293.882 138.803 292.921 139.465 292.077C140.303 291.004 141.426 290.468 142.832 290.468C144.28 290.468 145.436 291.017 146.301 292.116C146.915 292.892 147.228 293.861 147.238 295.023H139.598C139.618 296.012 139.934 296.825 140.543 297.46C141.152 298.09 141.905 298.405 142.801 298.405C143.233 298.405 143.652 298.33 144.059 298.179C144.47 298.028 144.819 297.827 145.105 297.577C145.392 297.327 145.702 296.924 146.035 296.366ZM146.035 294.077C145.889 293.494 145.676 293.028 145.395 292.679C145.118 292.33 144.751 292.049 144.293 291.835C143.835 291.622 143.353 291.515 142.848 291.515C142.014 291.515 141.298 291.783 140.699 292.32C140.262 292.71 139.931 293.296 139.707 294.077H146.035ZM150.238 287.53H151.34V290.687H153.074V291.624H151.34V299.187H150.238V291.624H148.746V290.687H150.238V287.53Z" fill="#0E4944"/>
<rect x="50.3662" y="309.873" width="445.185" height="56.6923" rx="4.5" stroke="black" stroke-opacity="0.5"/>
<path d="M469.588 334.1L461.362 344.426C460.581 345.37 459.378 345.37 458.63 344.426L450.405 334.1C449.624 333.123 450.014 332.373 451.217 332.373H468.775C470.01 332.373 470.368 333.123 469.588 334.1Z" fill="black" fill-opacity="0.3"/>
<path d="M58.8477 149.695L64.207 161.187H62.9727L61.168 157.405H56.2148L54.418 161.187H53.1367L58.5664 149.695H58.8477ZM58.707 152.132L56.7305 156.296H60.6602L58.707 152.132ZM65.8086 152.687H66.8945V154.155C67.2747 153.614 67.6654 153.218 68.0664 152.968C68.6185 152.635 69.1992 152.468 69.8086 152.468C70.2201 152.468 70.6107 152.549 70.9805 152.71C71.3503 152.872 71.6523 153.088 71.8867 153.359C72.1211 153.624 72.3242 154.007 72.4961 154.507C72.8607 153.84 73.3164 153.335 73.8633 152.991C74.4102 152.642 74.9987 152.468 75.6289 152.468C76.2174 152.468 76.7357 152.616 77.1836 152.913C77.6367 153.21 77.9727 153.624 78.1914 154.155C78.4102 154.687 78.5195 155.484 78.5195 156.546V161.187H77.4023V156.546C77.4023 155.635 77.3372 155.01 77.207 154.671C77.0768 154.327 76.8529 154.051 76.5352 153.843C76.2227 153.635 75.8477 153.53 75.4102 153.53C74.8789 153.53 74.3919 153.687 73.9492 153.999C73.5117 154.312 73.1914 154.728 72.9883 155.249C72.7852 155.77 72.6836 156.64 72.6836 157.859V161.187H71.5977V156.835C71.5977 155.809 71.5326 155.114 71.4023 154.749C71.2773 154.379 71.056 154.085 70.7383 153.866C70.4206 153.642 70.043 153.53 69.6055 153.53C69.1003 153.53 68.6263 153.684 68.1836 153.991C67.7461 154.293 67.4206 154.702 67.207 155.218C66.9987 155.734 66.8945 156.523 66.8945 157.585V161.187H65.8086V152.687ZM84.8555 152.468C86.1628 152.468 87.2461 152.942 88.1055 153.89C88.8867 154.754 89.2773 155.778 89.2773 156.96C89.2773 158.148 88.8633 159.187 88.0352 160.077C87.2122 160.963 86.1523 161.405 84.8555 161.405C83.5534 161.405 82.4883 160.963 81.6602 160.077C80.8372 159.187 80.4258 158.148 80.4258 156.96C80.4258 155.783 80.8164 154.762 81.5977 153.898C82.457 152.945 83.543 152.468 84.8555 152.468ZM84.8555 153.538C83.9492 153.538 83.1706 153.874 82.5195 154.546C81.8685 155.218 81.543 156.03 81.543 156.984C81.543 157.598 81.6914 158.171 81.9883 158.702C82.2852 159.234 82.6862 159.645 83.1914 159.937C83.6966 160.223 84.2513 160.366 84.8555 160.366C85.4596 160.366 86.0143 160.223 86.5195 159.937C87.0247 159.645 87.4258 159.234 87.7227 158.702C88.0195 158.171 88.168 157.598 88.168 156.984C88.168 156.03 87.8398 155.218 87.1836 154.546C86.5326 153.874 85.7565 153.538 84.8555 153.538ZM91.1758 152.687H92.2773V156.655C92.2773 157.624 92.3294 158.291 92.4336 158.655C92.5898 159.176 92.8867 159.588 93.3242 159.89C93.7669 160.192 94.293 160.343 94.9023 160.343C95.5117 160.343 96.0273 160.197 96.4492 159.905C96.8763 159.609 97.1706 159.221 97.332 158.741C97.4414 158.413 97.4961 157.718 97.4961 156.655V152.687H98.6133V156.859C98.6133 158.03 98.4753 158.913 98.1992 159.507C97.9284 160.101 97.5169 160.567 96.9648 160.905C96.418 161.239 95.7305 161.405 94.9023 161.405C94.0742 161.405 93.3815 161.239 92.8242 160.905C92.2721 160.567 91.8581 160.098 91.582 159.499C91.3112 158.895 91.1758 157.989 91.1758 156.78V152.687ZM101.051 152.687H102.145V154.21C102.582 153.627 103.066 153.192 103.598 152.905C104.129 152.614 104.707 152.468 105.332 152.468C105.967 152.468 106.53 152.629 107.02 152.952C107.514 153.275 107.879 153.71 108.113 154.257C108.348 154.804 108.465 155.655 108.465 156.812V161.187H107.379V157.132C107.379 156.153 107.337 155.499 107.254 155.171C107.124 154.609 106.879 154.187 106.52 153.905C106.16 153.619 105.691 153.476 105.113 153.476C104.452 153.476 103.858 153.695 103.332 154.132C102.811 154.57 102.467 155.111 102.301 155.757C102.197 156.179 102.145 156.95 102.145 158.07V161.187H101.051V152.687ZM111.77 149.53H112.871V152.687H114.605V153.624H112.871V161.187H111.77V153.624H110.277V152.687H111.77V149.53Z" fill="#0E4944"/>
<rect x="50.3662" y="171.873" width="445.185" height="56.6923" rx="4.5" stroke="black" stroke-opacity="0.5"/>
<path d="M53.6289 437.187L55.2617 425.695H55.4492L60.1211 435.124L64.7461 425.695H64.9336L66.582 437.187H65.4492L64.3242 428.968L60.2617 437.187H59.9727L55.8555 428.905L54.7383 437.187H53.6289ZM75.832 434.366L76.7539 434.851C76.4518 435.445 76.1029 435.924 75.707 436.288C75.3112 436.653 74.8659 436.931 74.3711 437.124C73.8763 437.312 73.3164 437.405 72.6914 437.405C71.306 437.405 70.2227 436.952 69.4414 436.046C68.6602 435.135 68.2695 434.106 68.2695 432.96C68.2695 431.882 68.6003 430.921 69.2617 430.077C70.1003 429.004 71.2227 428.468 72.6289 428.468C74.0768 428.468 75.2331 429.017 76.0977 430.116C76.7122 430.892 77.0247 431.861 77.0352 433.023H69.3945C69.4154 434.012 69.7305 434.825 70.3398 435.46C70.9492 436.09 71.7018 436.405 72.5977 436.405C73.0299 436.405 73.4492 436.33 73.8555 436.179C74.2669 436.028 74.6159 435.827 74.9023 435.577C75.1888 435.327 75.4987 434.924 75.832 434.366ZM75.832 432.077C75.6862 431.494 75.4727 431.028 75.1914 430.679C74.9154 430.33 74.5482 430.049 74.0898 429.835C73.6315 429.622 73.1497 429.515 72.6445 429.515C71.8112 429.515 71.0951 429.783 70.4961 430.32C70.0586 430.71 69.7279 431.296 69.5039 432.077H75.832ZM80.0352 425.53H81.1367V428.687H82.8711V429.624H81.1367V437.187H80.0352V429.624H78.543V428.687H80.0352V425.53ZM84.5039 425.405H85.5977V430.21C86.0404 429.627 86.5273 429.192 87.0586 428.905C87.5898 428.614 88.1654 428.468 88.7852 428.468C89.4206 428.468 89.9831 428.629 90.4727 428.952C90.9674 429.275 91.332 429.71 91.5664 430.257C91.8008 430.799 91.918 431.65 91.918 432.812V437.187H90.8242V433.132C90.8242 432.153 90.7852 431.499 90.707 431.171C90.5716 430.609 90.3242 430.187 89.9648 429.905C89.6107 429.619 89.1445 429.476 88.5664 429.476C87.9049 429.476 87.3112 429.695 86.7852 430.132C86.2643 430.57 85.9206 431.111 85.7539 431.757C85.6497 432.174 85.5977 432.945 85.5977 434.07V437.187H84.5039V425.405ZM98.293 428.468C99.6003 428.468 100.684 428.942 101.543 429.89C102.324 430.754 102.715 431.778 102.715 432.96C102.715 434.148 102.301 435.187 101.473 436.077C100.65 436.963 99.5898 437.405 98.293 437.405C96.9909 437.405 95.9258 436.963 95.0977 436.077C94.2747 435.187 93.8633 434.148 93.8633 432.96C93.8633 431.783 94.2539 430.762 95.0352 429.898C95.8945 428.945 96.9805 428.468 98.293 428.468ZM98.293 429.538C97.3867 429.538 96.6081 429.874 95.957 430.546C95.306 431.218 94.9805 432.03 94.9805 432.984C94.9805 433.598 95.1289 434.171 95.4258 434.702C95.7227 435.234 96.1237 435.645 96.6289 435.937C97.1341 436.223 97.6888 436.366 98.293 436.366C98.8971 436.366 99.4518 436.223 99.957 435.937C100.462 435.645 100.863 435.234 101.16 434.702C101.457 434.171 101.605 433.598 101.605 432.984C101.605 432.03 101.277 431.218 100.621 430.546C99.9701 429.874 99.194 429.538 98.293 429.538ZM113.238 425.405V437.187H112.16V435.726C111.702 436.283 111.186 436.702 110.613 436.984C110.046 437.265 109.423 437.405 108.746 437.405C107.543 437.405 106.514 436.971 105.66 436.101C104.811 435.226 104.387 434.163 104.387 432.913C104.387 431.689 104.816 430.642 105.676 429.773C106.535 428.903 107.569 428.468 108.777 428.468C109.475 428.468 110.105 428.616 110.668 428.913C111.236 429.21 111.733 429.655 112.16 430.249V425.405H113.238ZM108.863 429.523C108.254 429.523 107.691 429.674 107.176 429.976C106.66 430.273 106.249 430.692 105.941 431.234C105.639 431.775 105.488 432.348 105.488 432.952C105.488 433.551 105.642 434.124 105.949 434.671C106.257 435.218 106.668 435.645 107.184 435.952C107.704 436.254 108.262 436.405 108.855 436.405C109.454 436.405 110.022 436.254 110.559 435.952C111.095 435.65 111.507 435.241 111.793 434.726C112.085 434.21 112.23 433.629 112.23 432.984C112.23 431.999 111.905 431.176 111.254 430.515C110.608 429.853 109.811 429.523 108.863 429.523Z" fill="#0E4944"/>
<rect x="50.3662" y="447.873" width="445.185" height="56.6923" rx="4.5" stroke="black" stroke-opacity="0.5"/>
<path d="M469.588 472.1L461.362 482.426C460.581 483.37 459.378 483.37 458.63 482.426L450.405 472.1C449.624 471.123 450.014 470.373 451.217 470.373H468.775C470.01 470.373 470.368 471.123 469.588 472.1Z" fill="black" fill-opacity="0.3"/>
<defs>
<filter id="filter0_f" x="0.457808" y="576.731" width="534.085" height="121.594" filterUnits="userSpaceOnUse" color-interpolation-filters="sRGB">
<feFlood flood-opacity="0" result="BackgroundImageFix"/>
<feBlend mode="normal" in="SourceGraphic" in2="BackgroundImageFix" result="shape"/>
<feGaussianBlur stdDeviation="13.5914" result="effect1_foregroundBlur"/>
</filter>
</defs>
</svg>
