<svg width="364" height="40" viewBox="0 0 364 40" fill="none" xmlns="http://www.w3.org/2000/svg">
<path fill-rule="evenodd" clip-rule="evenodd" d="M8 0C3.58172 0 0 3.58172 0 8V32C0 36.4183 3.58172 40 8 40H82C83.0609 40 84.0736 39.7935 85 39.4185V40H90V32V8V0H85V0.581517C84.0736 0.206507 83.0609 0 82 0H8Z" fill="#FEFFFF"/>
<rect x="90" width="1" height="40" fill="#CAD7DF"/>
<rect x="181" width="1" height="40" fill="#CAD7DF"/>
<rect x="272" width="1" height="40" fill="#CAD7DF"/>
<rect x="0.5" y="0.5" width="363" height="39" rx="7.5" stroke="#CAD7DF"/>
<path d="M31.9766 25V14.9443H34.0615C35.5654 14.9443 36.6569 15.0651 37.3359 15.3066C38.3112 15.6484 39.0723 16.2409 39.6191 17.084C40.1706 17.9271 40.4463 18.932 40.4463 20.0986C40.4463 21.1058 40.2275 21.9922 39.79 22.7578C39.3571 23.5234 38.792 24.0885 38.0947 24.4531C37.402 24.8177 36.429 25 35.1758 25H31.9766ZM32.9404 24.0498H34.1025C35.4925 24.0498 36.4564 23.9632 36.9941 23.79C37.7507 23.5439 38.3454 23.1019 38.7783 22.4639C39.2113 21.8213 39.4277 21.0374 39.4277 20.1123C39.4277 19.1416 39.193 18.3122 38.7236 17.624C38.2542 16.9359 37.6003 16.4642 36.7617 16.209C36.1328 16.0176 35.096 15.9219 33.6514 15.9219H32.9404V24.0498ZM49.6475 17.5625V25H48.7041V23.7217C48.3031 24.2093 47.8519 24.5762 47.3506 24.8223C46.8538 25.0684 46.3092 25.1914 45.7168 25.1914C44.6641 25.1914 43.764 24.8109 43.0166 24.0498C42.2738 23.2842 41.9023 22.3545 41.9023 21.2607C41.9023 20.1898 42.2783 19.2738 43.0303 18.5127C43.7822 17.7516 44.6868 17.3711 45.7441 17.3711C46.3548 17.3711 46.9062 17.501 47.3984 17.7607C47.8952 18.0205 48.3304 18.4102 48.7041 18.9297V17.5625H49.6475ZM45.8193 18.2939C45.2861 18.2939 44.7939 18.4261 44.3428 18.6904C43.8916 18.9502 43.5316 19.3171 43.2627 19.791C42.9984 20.265 42.8662 20.7663 42.8662 21.2949C42.8662 21.819 43.0007 22.3203 43.2695 22.7988C43.5384 23.2773 43.8984 23.651 44.3496 23.9199C44.8053 24.1842 45.293 24.3164 45.8125 24.3164C46.3366 24.3164 46.8333 24.1842 47.3027 23.9199C47.7721 23.6556 48.1322 23.2979 48.3828 22.8467C48.638 22.3955 48.7656 21.8874 48.7656 21.3223C48.7656 20.4609 48.4808 19.7409 47.9111 19.1621C47.346 18.5833 46.6488 18.2939 45.8193 18.2939ZM51.0078 17.5625H52.0195L54.5762 23.291L57.0576 17.5625H58.0762L53.6396 27.7207H52.6279L54.0635 24.4395L51.0078 17.5625Z" fill="#191D38"/>
<path d="M117.146 14.9443H118.178L120.222 22.1904L123.106 14.9443H123.312L126.162 22.1904L128.247 14.9443H129.272L126.388 25H126.196L123.216 17.3916L120.174 25H119.982L117.146 14.9443ZM136.601 22.5322L137.407 22.9561C137.143 23.4756 136.838 23.8949 136.491 24.2139C136.145 24.5329 135.755 24.7767 135.322 24.9453C134.889 25.1094 134.399 25.1914 133.853 25.1914C132.64 25.1914 131.692 24.7949 131.009 24.002C130.325 23.2044 129.983 22.3044 129.983 21.3018C129.983 20.3584 130.273 19.5176 130.852 18.7793C131.585 17.8405 132.567 17.3711 133.798 17.3711C135.065 17.3711 136.076 17.8519 136.833 18.8135C137.371 19.4925 137.644 20.3402 137.653 21.3564H130.968C130.986 22.2223 131.262 22.9333 131.795 23.4893C132.328 24.0407 132.987 24.3164 133.771 24.3164C134.149 24.3164 134.516 24.2503 134.871 24.1182C135.231 23.986 135.536 23.8105 135.787 23.5918C136.038 23.373 136.309 23.0199 136.601 22.5322ZM136.601 20.5293C136.473 20.0189 136.286 19.611 136.04 19.3057C135.799 19.0003 135.477 18.7542 135.076 18.5674C134.675 18.3805 134.254 18.2871 133.812 18.2871C133.082 18.2871 132.456 18.5218 131.932 18.9912C131.549 19.333 131.259 19.8457 131.063 20.5293H136.601ZM145.706 22.5322L146.513 22.9561C146.248 23.4756 145.943 23.8949 145.597 24.2139C145.25 24.5329 144.861 24.7767 144.428 24.9453C143.995 25.1094 143.505 25.1914 142.958 25.1914C141.746 25.1914 140.798 24.7949 140.114 24.002C139.431 23.2044 139.089 22.3044 139.089 21.3018C139.089 20.3584 139.378 19.5176 139.957 18.7793C140.691 17.8405 141.673 17.3711 142.903 17.3711C144.17 17.3711 145.182 17.8519 145.938 18.8135C146.476 19.4925 146.75 20.3402 146.759 21.3564H140.073C140.091 22.2223 140.367 22.9333 140.9 23.4893C141.434 24.0407 142.092 24.3164 142.876 24.3164C143.254 24.3164 143.621 24.2503 143.977 24.1182C144.337 23.986 144.642 23.8105 144.893 23.5918C145.143 23.373 145.414 23.0199 145.706 22.5322ZM145.706 20.5293C145.578 20.0189 145.392 19.611 145.146 19.3057C144.904 19.0003 144.583 18.7542 144.182 18.5674C143.781 18.3805 143.359 18.2871 142.917 18.2871C142.188 18.2871 141.561 18.5218 141.037 18.9912C140.654 19.333 140.365 19.8457 140.169 20.5293H145.706ZM148.543 14.6914H149.507V20.5566L152.945 17.5625H154.354L150.272 21.1104L154.593 25H153.239L149.507 21.6572V25H148.543V14.6914Z" fill="#737588"/>
<path d="M205.329 25L206.758 14.9443H206.922L211.01 23.1953L215.057 14.9443H215.221L216.663 25H215.672L214.688 17.8086L211.133 25H210.88L207.277 17.7539L206.3 25H205.329ZM222.016 17.3711C223.16 17.3711 224.107 17.7858 224.859 18.6152C225.543 19.3717 225.885 20.2673 225.885 21.3018C225.885 22.3408 225.522 23.25 224.798 24.0293C224.078 24.804 223.15 25.1914 222.016 25.1914C220.876 25.1914 219.944 24.804 219.22 24.0293C218.5 23.25 218.14 22.3408 218.14 21.3018C218.14 20.2718 218.481 19.3786 219.165 18.6221C219.917 17.7881 220.867 17.3711 222.016 17.3711ZM222.016 18.3076C221.223 18.3076 220.541 18.6016 219.972 19.1895C219.402 19.7773 219.117 20.4883 219.117 21.3223C219.117 21.86 219.247 22.3613 219.507 22.8262C219.767 23.291 220.118 23.651 220.56 23.9062C221.002 24.1569 221.487 24.2822 222.016 24.2822C222.544 24.2822 223.03 24.1569 223.472 23.9062C223.914 23.651 224.265 23.291 224.524 22.8262C224.784 22.3613 224.914 21.86 224.914 21.3223C224.914 20.4883 224.627 19.7773 224.053 19.1895C223.483 18.6016 222.804 18.3076 222.016 18.3076ZM227.669 17.5625H228.626V18.8955C229.009 18.3851 229.433 18.0046 229.897 17.7539C230.362 17.4987 230.868 17.3711 231.415 17.3711C231.971 17.3711 232.463 17.5124 232.892 17.7949C233.325 18.0775 233.644 18.458 233.849 18.9365C234.054 19.415 234.156 20.1602 234.156 21.1719V25H233.206V21.4521C233.206 20.5954 233.17 20.0234 233.097 19.7363C232.983 19.2441 232.769 18.875 232.454 18.6289C232.14 18.3783 231.729 18.2529 231.224 18.2529C230.645 18.2529 230.125 18.4443 229.665 18.8271C229.209 19.21 228.909 19.6839 228.763 20.249C228.672 20.6182 228.626 21.2926 228.626 22.2725V25H227.669V17.5625ZM237.048 14.8008H238.012V17.5625H239.529V18.3828H238.012V25H237.048V18.3828H235.742V17.5625H237.048V14.8008ZM240.958 14.6914H241.915V18.8955C242.302 18.3851 242.729 18.0046 243.193 17.7539C243.658 17.4987 244.162 17.3711 244.704 17.3711C245.26 17.3711 245.752 17.5124 246.181 17.7949C246.614 18.0775 246.933 18.458 247.138 18.9365C247.343 19.4105 247.445 20.1556 247.445 21.1719V25H246.488V21.4521C246.488 20.5954 246.454 20.0234 246.386 19.7363C246.267 19.2441 246.051 18.875 245.736 18.6289C245.426 18.3783 245.019 18.2529 244.513 18.2529C243.934 18.2529 243.414 18.4443 242.954 18.8271C242.498 19.21 242.198 19.6839 242.052 20.249C241.961 20.6136 241.915 21.2881 241.915 22.2725V25H240.958V14.6914Z" fill="#737588"/>
<path d="M302.967 14.9443H304.129L306.699 19.0869L309.229 14.9443H310.391L307.205 20.1943V25H306.214V20.1943L302.967 14.9443ZM316.905 22.5322L317.712 22.9561C317.448 23.4756 317.142 23.8949 316.796 24.2139C316.45 24.5329 316.06 24.7767 315.627 24.9453C315.194 25.1094 314.704 25.1914 314.157 25.1914C312.945 25.1914 311.997 24.7949 311.313 24.002C310.63 23.2044 310.288 22.3044 310.288 21.3018C310.288 20.3584 310.577 19.5176 311.156 18.7793C311.89 17.8405 312.872 17.3711 314.103 17.3711C315.369 17.3711 316.381 17.8519 317.138 18.8135C317.675 19.4925 317.949 20.3402 317.958 21.3564H311.272C311.291 22.2223 311.566 22.9333 312.1 23.4893C312.633 24.0407 313.291 24.3164 314.075 24.3164C314.453 24.3164 314.82 24.2503 315.176 24.1182C315.536 23.986 315.841 23.8105 316.092 23.5918C316.342 23.373 316.614 23.0199 316.905 22.5322ZM316.905 20.5293C316.778 20.0189 316.591 19.611 316.345 19.3057C316.103 19.0003 315.782 18.7542 315.381 18.5674C314.98 18.3805 314.558 18.2871 314.116 18.2871C313.387 18.2871 312.76 18.5218 312.236 18.9912C311.854 19.333 311.564 19.8457 311.368 20.5293H316.905ZM327.159 17.5625V25H326.216V23.7217C325.815 24.2093 325.364 24.5762 324.862 24.8223C324.366 25.0684 323.821 25.1914 323.229 25.1914C322.176 25.1914 321.276 24.8109 320.528 24.0498C319.785 23.2842 319.414 22.3545 319.414 21.2607C319.414 20.1898 319.79 19.2738 320.542 18.5127C321.294 17.7516 322.199 17.3711 323.256 17.3711C323.867 17.3711 324.418 17.501 324.91 17.7607C325.407 18.0205 325.842 18.4102 326.216 18.9297V17.5625H327.159ZM323.331 18.2939C322.798 18.2939 322.306 18.4261 321.854 18.6904C321.403 18.9502 321.043 19.3171 320.774 19.791C320.51 20.265 320.378 20.7663 320.378 21.2949C320.378 21.819 320.512 22.3203 320.781 22.7988C321.05 23.2773 321.41 23.651 321.861 23.9199C322.317 24.1842 322.805 24.3164 323.324 24.3164C323.848 24.3164 324.345 24.1842 324.814 23.9199C325.284 23.6556 325.644 23.2979 325.895 22.8467C326.15 22.3955 326.277 21.8874 326.277 21.3223C326.277 20.4609 325.993 19.7409 325.423 19.1621C324.858 18.5833 324.16 18.2939 323.331 18.2939ZM328.957 17.5625H329.935V18.6494C330.226 18.221 330.534 17.902 330.857 17.6924C331.181 17.4782 331.518 17.3711 331.869 17.3711C332.133 17.3711 332.416 17.4554 332.717 17.624L332.218 18.4307C332.017 18.3441 331.849 18.3008 331.712 18.3008C331.393 18.3008 331.085 18.4329 330.789 18.6973C330.493 18.957 330.267 19.3626 330.112 19.9141C329.994 20.3379 329.935 21.1947 329.935 22.4844V25H328.957V17.5625Z" fill="#737588"/>
</svg>
