<svg width="460" height="118" viewBox="0 0 460 118" fill="none" xmlns="http://www.w3.org/2000/svg">
<rect width="460" height="118" rx="8" fill="#FEFFFF"/>
<circle cx="59" cy="59" r="35" fill="#E7FFEF"/>
<path d="M62.5217 51.2609H54.4782C54.2648 51.2609 54.0603 51.3456 53.9094 51.4965C53.7586 51.6473 53.6738 51.8519 53.6738 52.0652C53.6738 52.2785 53.7586 52.4831 53.9094 52.634C54.0603 52.7848 54.2648 52.8696 54.4782 52.8696H56.5614C54.5827 54.8483 54.4782 54.8402 54.4782 55.2826V59.3043C54.4782 59.5177 54.5629 59.7223 54.7138 59.8731C54.8646 60.0239 55.0692 60.1087 55.2825 60.1087C55.4959 60.1087 55.7004 60.0239 55.8513 59.8731C56.0021 59.7223 56.0869 59.5177 56.0869 59.3043V55.6124L58.4999 53.1993L60.913 55.6124V59.3043C60.913 59.5177 60.9977 59.7223 61.1485 59.8731C61.2994 60.0239 61.504 60.1087 61.7173 60.1087C61.9306 60.1087 62.1352 60.0239 62.2861 59.8731C62.4369 59.7223 62.5217 59.5177 62.5217 59.3043V55.2826C62.5217 54.8402 62.4171 54.8483 60.4384 52.8696H62.5217C62.735 52.8696 62.9396 52.7848 63.0904 52.634C63.2413 52.4831 63.326 52.2785 63.326 52.0652C63.326 51.8519 63.2413 51.6473 63.0904 51.4965C62.9396 51.3456 62.735 51.2609 62.5217 51.2609Z" fill="#DAD7E5"/>
<path d="M57.6953 59.3043V56.087C57.6953 55.8736 57.7801 55.669 57.9309 55.5182C58.0817 55.3674 58.2863 55.2826 58.4997 55.2826C58.713 55.2826 58.9176 55.3674 59.0684 55.5182C59.2193 55.669 59.304 55.8736 59.304 56.087V59.3043C59.304 59.5177 59.2193 59.7223 59.0684 59.8731C58.9176 60.024 58.713 60.1087 58.4997 60.1087C58.2863 60.1087 58.0817 60.024 57.9309 59.8731C57.7801 59.7223 57.6953 59.5177 57.6953 59.3043Z" fill="#6FABE6"/>
<path d="M62.522 67.3478H54.4785V77H62.522V67.3478Z" fill="#7C7D7D"/>
<path d="M62.5217 67.3478C62.5217 74.225 62.4413 73.7826 62.5217 73.7826C60.8151 73.7826 59.1784 73.1047 57.9716 71.8979C56.7649 70.6911 56.0869 69.0544 56.0869 67.3478H62.5217Z" fill="#919191"/>
<path d="M60.913 62.5217H56.0869V67.3478H60.913V62.5217Z" fill="#C6C3D8"/>
<path d="M60.9127 64.1304V65.7391H58.4997C58.2863 65.7391 58.0817 65.6544 57.9309 65.5035C57.7801 65.3527 57.6953 65.1481 57.6953 64.9348C57.6953 64.7215 57.7801 64.5169 57.9309 64.366C58.0817 64.2152 58.2863 64.1304 58.4997 64.1304H60.9127Z" fill="#DAD7E5"/>
<path d="M62.522 59.3044H54.4785V62.5217H62.522V59.3044Z" fill="#C6C3D8"/>
<path d="M62.5217 59.3044V62.5217H59.3043C58.451 62.5217 57.6326 62.1828 57.0293 61.5794C56.4259 60.976 56.0869 60.1577 56.0869 59.3044H62.5217Z" fill="#DAD7E5"/>
<path d="M71.3699 76.8874C70.3081 76.8874 69.4395 74.7317 69.4395 72.0613C69.4395 70.4928 69.9382 67.2352 71.3699 67.2352C73.8795 67.2593 73.9518 76.8874 71.3699 76.8874Z" fill="#9DCC6B"/>
<path d="M71.3692 76.8874C70.4442 77.4183 68.6264 75.9865 67.2912 73.67C64.6368 69.0691 66.4868 66.4309 69.5836 70.2435C69.1573 72.753 69.7605 76.8874 71.3692 76.8874Z" fill="#84B749"/>
<path d="M75.4472 73.6781C74.112 75.9865 72.2941 77.4183 71.3691 76.8955C73.0422 76.8955 73.565 72.6565 73.1548 70.2596C76.2596 66.4309 78.0935 69.0852 75.4472 73.6781Z" fill="#B5E08C"/>
<path d="M45.6306 76.8874C44.5689 76.8874 43.7002 74.7317 43.7002 72.0613C43.7002 70.4928 44.1989 67.2352 45.6306 67.2352C48.1402 67.2593 48.2126 76.8874 45.6306 76.8874Z" fill="#9DCC6B"/>
<path d="M45.63 76.8874C44.705 77.4183 42.8871 75.9865 41.5519 73.67C38.8976 69.0691 40.7476 66.4309 43.8443 70.2435C43.418 72.753 44.0213 76.8874 45.63 76.8874Z" fill="#84B749"/>
<path d="M49.7089 73.6781C48.3737 75.9865 46.5559 77.4183 45.6309 76.8955C47.3039 76.8955 47.8267 72.6565 47.4165 70.2596C50.5213 66.4309 52.3552 69.0852 49.7089 73.6781Z" fill="#B5E08C"/>
<path d="M66.946 40C64.92 40.0021 62.9777 40.8079 61.5451 42.2404C60.1126 43.673 59.3068 45.6154 59.3047 47.6413V48.8478C59.3047 49.0612 59.3894 49.2657 59.5403 49.4166C59.6911 49.5674 59.8957 49.6522 60.109 49.6522C60.3224 49.6522 60.527 49.5674 60.6778 49.4166C60.8286 49.2657 60.9134 49.0612 60.9134 48.8478V47.6413C60.9134 46.0414 61.549 44.5069 62.6803 43.3756C63.8116 42.2443 65.346 41.6087 66.946 41.6087C68.5459 41.6087 70.0804 42.2443 71.2117 43.3756C72.343 44.5069 72.9786 46.0414 72.9786 47.6413V53.6739C72.9786 53.8872 73.0633 54.0918 73.2142 54.2427C73.365 54.3935 73.5696 54.4783 73.7829 54.4783C73.9963 54.4783 74.2009 54.3935 74.3517 54.2427C74.5026 54.0918 74.5873 53.8872 74.5873 53.6739V47.6413C74.5852 45.6154 73.7794 43.673 72.3469 42.2404C70.9143 40.8079 68.9719 40.0021 66.946 40Z" fill="#6FABE6"/>
<path d="M66.9454 43.2174C65.7728 43.2195 64.6488 43.6863 63.8196 44.5155C62.9904 45.3447 62.5236 46.4687 62.5215 47.6413V48.8478C62.5215 49.0612 62.6062 49.2657 62.7571 49.4166C62.9079 49.5674 63.1125 49.6522 63.3258 49.6522C63.5392 49.6522 63.7437 49.5674 63.8946 49.4166C64.0454 49.2657 64.1302 49.0612 64.1302 48.8478V47.6413C64.1302 46.8947 64.4268 46.1786 64.9547 45.6506C65.4827 45.1227 66.1988 44.8261 66.9454 44.8261C67.692 44.8261 68.4081 45.1227 68.9361 45.6506C69.464 46.1786 69.7606 46.8947 69.7606 47.6413V53.6739C69.7606 53.8872 69.8454 54.0918 69.9962 54.2427C70.147 54.3935 70.3516 54.4783 70.565 54.4783C70.7783 54.4783 70.9829 54.3935 71.1337 54.2427C71.2846 54.0918 71.3693 53.8872 71.3693 53.6739V47.6413C71.3672 46.4687 70.9004 45.3447 70.0712 44.5155C69.242 43.6863 68.118 43.2195 66.9454 43.2174Z" fill="#6FABE6"/>
<path d="M69.7607 56.8913V58.5C69.7607 58.7133 69.8455 58.9179 69.9963 59.0688C70.1472 59.2196 70.3518 59.3044 70.5651 59.3044C70.7784 59.3044 70.983 59.2196 71.1339 59.0688C71.2847 58.9179 71.3694 58.7133 71.3694 58.5V56.8913C71.3694 56.678 71.2847 56.4734 71.1339 56.3225C70.983 56.1717 70.7784 56.087 70.5651 56.087C70.3518 56.087 70.1472 56.1717 69.9963 56.3225C69.8455 56.4734 69.7607 56.678 69.7607 56.8913Z" fill="#6FABE6"/>
<path d="M72.9785 58.5V60.1087C72.9785 60.322 73.0633 60.5266 73.2141 60.6775C73.3649 60.8283 73.5695 60.913 73.7829 60.913C73.9962 60.913 74.2008 60.8283 74.3516 60.6775C74.5025 60.5266 74.5872 60.322 74.5872 60.1087V58.5C74.5872 58.2867 74.5025 58.0821 74.3516 57.9312C74.2008 57.7804 73.9962 57.6956 73.7829 57.6956C73.5695 57.6956 73.3649 57.7804 73.2141 57.9312C73.0633 58.0821 72.9785 58.2867 72.9785 58.5Z" fill="#6FABE6"/>
<path d="M50.0544 40C48.0284 40.0021 46.0861 40.8079 44.6535 42.2404C43.221 43.673 42.4152 45.6154 42.4131 47.6413V53.6739C42.4131 53.8872 42.4978 54.0918 42.6487 54.2427C42.7995 54.3935 43.0041 54.4783 43.2174 54.4783C43.4308 54.4783 43.6353 54.3935 43.7862 54.2427C43.937 54.0918 44.0218 53.8872 44.0218 53.6739V47.6413C44.0218 46.0414 44.6574 44.5069 45.7887 43.3756C46.92 42.2443 48.4544 41.6087 50.0544 41.6087C51.6543 41.6087 53.1888 42.2443 54.3201 43.3756C55.4514 44.5069 56.087 46.0414 56.087 47.6413V48.8478C56.087 49.0612 56.1717 49.2657 56.3226 49.4166C56.4734 49.5674 56.678 49.6522 56.8913 49.6522C57.1047 49.6522 57.3093 49.5674 57.4601 49.4166C57.611 49.2657 57.6957 49.0612 57.6957 48.8478V47.6413C57.6936 45.6154 56.8878 43.673 55.4553 42.2404C54.0227 40.8079 52.0803 40.0021 50.0544 40Z" fill="#6FABE6"/>
<path d="M50.0548 43.2174C48.8821 43.2195 47.7581 43.6863 46.9289 44.5155C46.0998 45.3447 45.633 46.4687 45.6309 47.6413V53.6739C45.6309 53.8872 45.7156 54.0918 45.8664 54.2427C46.0173 54.3935 46.2219 54.4783 46.4352 54.4783C46.6485 54.4783 46.8531 54.3935 47.004 54.2427C47.1548 54.0918 47.2396 53.8872 47.2396 53.6739V47.6413C47.2396 46.8947 47.5362 46.1786 48.0641 45.6506C48.5921 45.1227 49.3081 44.8261 50.0548 44.8261C50.8014 44.8261 51.5175 45.1227 52.0454 45.6506C52.5734 46.1786 52.87 46.8947 52.87 47.6413V48.8478C52.87 49.0612 52.9547 49.2657 53.1056 49.4166C53.2564 49.5674 53.461 49.6522 53.6743 49.6522C53.8877 49.6522 54.0923 49.5674 54.2431 49.4166C54.3939 49.2657 54.4787 49.0612 54.4787 48.8478V47.6413C54.4766 46.4687 54.0098 45.3447 53.1806 44.5155C52.3514 43.6863 51.2274 43.2195 50.0548 43.2174Z" fill="#6FABE6"/>
<path d="M45.6309 56.8913V58.5C45.6309 58.7133 45.7156 58.9179 45.8664 59.0688C46.0173 59.2196 46.2219 59.3044 46.4352 59.3044C46.6485 59.3044 46.8531 59.2196 47.004 59.0688C47.1548 58.9179 47.2396 58.7133 47.2396 58.5V56.8913C47.2396 56.678 47.1548 56.4734 47.004 56.3225C46.8531 56.1717 46.6485 56.087 46.4352 56.087C46.2219 56.087 46.0173 56.1717 45.8664 56.3225C45.7156 56.4734 45.6309 56.678 45.6309 56.8913Z" fill="#6FABE6"/>
<path d="M42.4131 58.5V60.1087C42.4131 60.322 42.4978 60.5266 42.6487 60.6775C42.7995 60.8283 43.0041 60.913 43.2174 60.913C43.4308 60.913 43.6353 60.8283 43.7862 60.6775C43.937 60.5266 44.0218 60.322 44.0218 60.1087V58.5C44.0218 58.2867 43.937 58.0821 43.7862 57.9312C43.6353 57.7804 43.4308 57.6956 43.2174 57.6956C43.0041 57.6956 42.7995 57.7804 42.6487 57.9312C42.4978 58.0821 42.4131 58.2867 42.4131 58.5Z" fill="#6FABE6"/>
<path d="M76.1957 77H40.8043C40.591 77 40.3864 76.9152 40.2356 76.7644C40.0847 76.6136 40 76.409 40 76.1956C40 75.9823 40.0847 75.7777 40.2356 75.6269C40.3864 75.476 40.591 75.3913 40.8043 75.3913H76.1957C76.409 75.3913 76.6136 75.476 76.7644 75.6269C76.9153 75.7777 77 75.9823 77 76.1956C77 76.409 76.9153 76.6136 76.7644 76.7644C76.6136 76.9152 76.409 77 76.1957 77Z" fill="#A87E6B"/>
<path d="M303.52 72V61.72H300.4V59.16H303.52V55.88H300.4V53.32H303.52V43.44H307.68L311.48 53.32H316.2V43.44H319.36V53.32H322.48V55.88H319.36V59.16H322.48V61.72H319.36V72H315.16L311.36 61.72H306.64V72H303.52ZM306.56 53.32H308.24L306.56 48.36H306.4L306.56 53.32ZM306.64 59.16H310.4L309.2 55.88H306.56L306.64 59.16ZM313.6 59.16H316.28L316.2 55.88H312.4L313.6 59.16ZM316.2 66.36H316.36L316.24 61.72H314.56L316.2 66.36ZM339.726 69.88H341.846V72H339.726V69.88ZM346.676 72.2C345.596 72.2 344.769 71.8933 344.196 71.28C343.622 70.6667 343.336 69.8 343.336 68.68V61.32C343.336 60.2 343.622 59.3333 344.196 58.72C344.769 58.1067 345.596 57.8 346.676 57.8C347.756 57.8 348.582 58.1067 349.156 58.72C349.729 59.3333 350.016 60.2 350.016 61.32V68.68C350.016 69.8 349.729 70.6667 349.156 71.28C348.582 71.8933 347.756 72.2 346.676 72.2ZM346.676 70.2C347.436 70.2 347.816 69.74 347.816 68.82V61.18C347.816 60.26 347.436 59.8 346.676 59.8C345.916 59.8 345.536 60.26 345.536 61.18V68.82C345.536 69.74 345.916 70.2 346.676 70.2ZM354.684 72.2C353.604 72.2 352.777 71.8933 352.204 71.28C351.63 70.6667 351.344 69.8 351.344 68.68V61.32C351.344 60.2 351.63 59.3333 352.204 58.72C352.777 58.1067 353.604 57.8 354.684 57.8C355.764 57.8 356.59 58.1067 357.164 58.72C357.737 59.3333 358.024 60.2 358.024 61.32V68.68C358.024 69.8 357.737 70.6667 357.164 71.28C356.59 71.8933 355.764 72.2 354.684 72.2ZM354.684 70.2C355.444 70.2 355.824 69.74 355.824 68.82V61.18C355.824 60.26 355.444 59.8 354.684 59.8C353.924 59.8 353.544 60.26 353.544 61.18V68.82C353.544 69.74 353.924 70.2 354.684 70.2Z" fill="#0A403B" fill-opacity="0.3"/>
<path d="M330.891 72.4C328.731 72.4 327.077 71.7867 325.931 70.56C324.784 69.3333 324.211 67.6 324.211 65.36V50.64C324.211 48.4 324.784 46.6667 325.931 45.44C327.077 44.2133 328.731 43.6 330.891 43.6C333.051 43.6 334.704 44.2133 335.851 45.44C336.997 46.6667 337.571 48.4 337.571 50.64V65.36C337.571 67.6 336.997 69.3333 335.851 70.56C334.704 71.7867 333.051 72.4 330.891 72.4ZM330.891 68.4C332.411 68.4 333.171 67.48 333.171 65.64V50.36C333.171 48.52 332.411 47.6 330.891 47.6C329.371 47.6 328.611 48.52 328.611 50.36V65.64C328.611 67.48 329.371 68.4 330.891 68.4Z" fill="#0A403B"/>
<path d="M109.258 53.625V52.5078H115.562V53.625H113V64H111.828V53.625H109.258ZM120.273 55.2812C121.581 55.2812 122.664 55.7552 123.523 56.7031C124.305 57.5677 124.695 58.5911 124.695 59.7734C124.695 60.9609 124.281 62 123.453 62.8906C122.63 63.776 121.57 64.2188 120.273 64.2188C118.971 64.2188 117.906 63.776 117.078 62.8906C116.255 62 115.844 60.9609 115.844 59.7734C115.844 58.5964 116.234 57.5755 117.016 56.7109C117.875 55.7578 118.961 55.2812 120.273 55.2812ZM120.273 56.3516C119.367 56.3516 118.589 56.6875 117.938 57.3594C117.286 58.0312 116.961 58.8438 116.961 59.7969C116.961 60.4115 117.109 60.9844 117.406 61.5156C117.703 62.0469 118.104 62.4583 118.609 62.75C119.115 63.0365 119.669 63.1797 120.273 63.1797C120.878 63.1797 121.432 63.0365 121.938 62.75C122.443 62.4583 122.844 62.0469 123.141 61.5156C123.438 60.9844 123.586 60.4115 123.586 59.7969C123.586 58.8438 123.258 58.0312 122.602 57.3594C121.951 56.6875 121.174 56.3516 120.273 56.3516ZM127.688 52.3438H128.789V55.5H130.523V56.4375H128.789V64H127.688V56.4375H126.195V55.5H127.688V52.3438ZM140.625 55.5V64H139.547V62.5391C139.089 63.0964 138.573 63.5156 138 63.7969C137.432 64.0781 136.81 64.2188 136.133 64.2188C134.93 64.2188 133.901 63.7839 133.047 62.9141C132.198 62.0391 131.773 60.9766 131.773 59.7266C131.773 58.5026 132.203 57.4557 133.062 56.5859C133.922 55.7161 134.956 55.2812 136.164 55.2812C136.862 55.2812 137.492 55.4297 138.055 55.7266C138.622 56.0234 139.12 56.4688 139.547 57.0625V55.5H140.625ZM136.25 56.3359C135.641 56.3359 135.078 56.487 134.562 56.7891C134.047 57.0859 133.635 57.5052 133.328 58.0469C133.026 58.5885 132.875 59.1615 132.875 59.7656C132.875 60.3646 133.029 60.9375 133.336 61.4844C133.643 62.0312 134.055 62.4583 134.57 62.7656C135.091 63.0677 135.648 63.2188 136.242 63.2188C136.841 63.2188 137.409 63.0677 137.945 62.7656C138.482 62.4635 138.893 62.0547 139.18 61.5391C139.471 61.0234 139.617 60.4427 139.617 59.7969C139.617 58.8125 139.292 57.9896 138.641 57.3281C137.995 56.6667 137.198 56.3359 136.25 56.3359ZM142.93 52.2188H144.023V64H142.93V52.2188ZM151.117 52C151.367 52 151.581 52.0885 151.758 52.2656C151.935 52.4427 152.023 52.6562 152.023 52.9062C152.023 53.151 151.935 53.362 151.758 53.5391C151.581 53.7161 151.367 53.8047 151.117 53.8047C150.872 53.8047 150.661 53.7161 150.484 53.5391C150.307 53.362 150.219 53.151 150.219 52.9062C150.219 52.6562 150.307 52.4427 150.484 52.2656C150.661 52.0885 150.872 52 151.117 52ZM150.57 55.5H151.672V64H150.57V55.5ZM153.938 55.5H155.031V57.0234C155.469 56.4401 155.953 56.0052 156.484 55.7188C157.016 55.4271 157.594 55.2812 158.219 55.2812C158.854 55.2812 159.417 55.4427 159.906 55.7656C160.401 56.0885 160.766 56.5234 161 57.0703C161.234 57.6172 161.352 58.4688 161.352 59.625V64H160.266V59.9453C160.266 58.9661 160.224 58.3125 160.141 57.9844C160.01 57.4219 159.766 57 159.406 56.7188C159.047 56.4323 158.578 56.2891 158 56.2891C157.339 56.2891 156.745 56.5078 156.219 56.9453C155.698 57.3828 155.354 57.9245 155.188 58.5703C155.083 58.9922 155.031 59.763 155.031 60.8828V64H153.938V55.5ZM162.898 55.5H164.062L166.906 61.6875L169.727 55.5H170.898L167.008 64H166.812L162.898 55.5ZM179.734 61.1797L180.656 61.6641C180.354 62.2578 180.005 62.737 179.609 63.1016C179.214 63.4661 178.768 63.7448 178.273 63.9375C177.779 64.125 177.219 64.2188 176.594 64.2188C175.208 64.2188 174.125 63.7656 173.344 62.8594C172.562 61.9479 172.172 60.9193 172.172 59.7734C172.172 58.6953 172.503 57.7344 173.164 56.8906C174.003 55.8177 175.125 55.2812 176.531 55.2812C177.979 55.2812 179.135 55.8307 180 56.9297C180.615 57.7057 180.927 58.6745 180.938 59.8359H173.297C173.318 60.8255 173.633 61.638 174.242 62.2734C174.852 62.9036 175.604 63.2188 176.5 63.2188C176.932 63.2188 177.352 63.1432 177.758 62.9922C178.169 62.8411 178.518 62.6406 178.805 62.3906C179.091 62.1406 179.401 61.737 179.734 61.1797ZM179.734 58.8906C179.589 58.3073 179.375 57.8411 179.094 57.4922C178.818 57.1432 178.451 56.862 177.992 56.6484C177.534 56.4349 177.052 56.3281 176.547 56.3281C175.714 56.3281 174.997 56.5964 174.398 57.1328C173.961 57.5234 173.63 58.1094 173.406 58.8906H179.734ZM187.258 56.4297L186.555 57.1562C185.971 56.5885 185.401 56.3047 184.844 56.3047C184.49 56.3047 184.185 56.4219 183.93 56.6562C183.68 56.8906 183.555 57.1641 183.555 57.4766C183.555 57.7526 183.659 58.0156 183.867 58.2656C184.076 58.5208 184.513 58.8203 185.18 59.1641C185.992 59.5859 186.544 59.9922 186.836 60.3828C187.122 60.7786 187.266 61.224 187.266 61.7188C187.266 62.4167 187.021 63.0078 186.531 63.4922C186.042 63.9766 185.43 64.2188 184.695 64.2188C184.206 64.2188 183.737 64.112 183.289 63.8984C182.846 63.6849 182.479 63.3906 182.188 63.0156L182.875 62.2344C183.432 62.8646 184.023 63.1797 184.648 63.1797C185.086 63.1797 185.458 63.0391 185.766 62.7578C186.073 62.4766 186.227 62.1458 186.227 61.7656C186.227 61.4531 186.125 61.1745 185.922 60.9297C185.719 60.6901 185.26 60.388 184.547 60.0234C183.781 59.6276 183.26 59.237 182.984 58.8516C182.708 58.4661 182.57 58.026 182.57 57.5312C182.57 56.8854 182.789 56.349 183.227 55.9219C183.669 55.4948 184.227 55.2812 184.898 55.2812C185.68 55.2812 186.466 55.6641 187.258 56.4297ZM190.156 52.3438H191.258V55.5H192.992V56.4375H191.258V64H190.156V56.4375H188.664V55.5H190.156V52.3438ZM194.617 55.5H195.703V56.9688C196.083 56.4271 196.474 56.0312 196.875 55.7812C197.427 55.4479 198.008 55.2812 198.617 55.2812C199.029 55.2812 199.419 55.362 199.789 55.5234C200.159 55.6849 200.461 55.901 200.695 56.1719C200.93 56.4375 201.133 56.8203 201.305 57.3203C201.669 56.6536 202.125 56.1484 202.672 55.8047C203.219 55.4557 203.807 55.2812 204.438 55.2812C205.026 55.2812 205.544 55.4297 205.992 55.7266C206.445 56.0234 206.781 56.4375 207 56.9688C207.219 57.5 207.328 58.2969 207.328 59.3594V64H206.211V59.3594C206.211 58.4479 206.146 57.8229 206.016 57.4844C205.885 57.1406 205.661 56.8646 205.344 56.6562C205.031 56.4479 204.656 56.3438 204.219 56.3438C203.688 56.3438 203.201 56.5 202.758 56.8125C202.32 57.125 202 57.5417 201.797 58.0625C201.594 58.5833 201.492 59.4531 201.492 60.6719V64H200.406V59.6484C200.406 58.6224 200.341 57.9271 200.211 57.5625C200.086 57.1927 199.865 56.8984 199.547 56.6797C199.229 56.4557 198.852 56.3438 198.414 56.3438C197.909 56.3438 197.435 56.4974 196.992 56.8047C196.555 57.1068 196.229 57.5156 196.016 58.0312C195.807 58.5469 195.703 59.3359 195.703 60.3984V64H194.617V55.5ZM216.797 61.1797L217.719 61.6641C217.417 62.2578 217.068 62.737 216.672 63.1016C216.276 63.4661 215.831 63.7448 215.336 63.9375C214.841 64.125 214.281 64.2188 213.656 64.2188C212.271 64.2188 211.188 63.7656 210.406 62.8594C209.625 61.9479 209.234 60.9193 209.234 59.7734C209.234 58.6953 209.565 57.7344 210.227 56.8906C211.065 55.8177 212.188 55.2812 213.594 55.2812C215.042 55.2812 216.198 55.8307 217.062 56.9297C217.677 57.7057 217.99 58.6745 218 59.8359H210.359C210.38 60.8255 210.695 61.638 211.305 62.2734C211.914 62.9036 212.667 63.2188 213.562 63.2188C213.995 63.2188 214.414 63.1432 214.82 62.9922C215.232 62.8411 215.581 62.6406 215.867 62.3906C216.154 62.1406 216.464 61.737 216.797 61.1797ZM216.797 58.8906C216.651 58.3073 216.438 57.8411 216.156 57.4922C215.88 57.1432 215.513 56.862 215.055 56.6484C214.596 56.4349 214.115 56.3281 213.609 56.3281C212.776 56.3281 212.06 56.5964 211.461 57.1328C211.023 57.5234 210.693 58.1094 210.469 58.8906H216.797ZM220.047 55.5H221.141V57.0234C221.578 56.4401 222.062 56.0052 222.594 55.7188C223.125 55.4271 223.703 55.2812 224.328 55.2812C224.964 55.2812 225.526 55.4427 226.016 55.7656C226.51 56.0885 226.875 56.5234 227.109 57.0703C227.344 57.6172 227.461 58.4688 227.461 59.625V64H226.375V59.9453C226.375 58.9661 226.333 58.3125 226.25 57.9844C226.12 57.4219 225.875 57 225.516 56.7188C225.156 56.4323 224.688 56.2891 224.109 56.2891C223.448 56.2891 222.854 56.5078 222.328 56.9453C221.807 57.3828 221.464 57.9245 221.297 58.5703C221.193 58.9922 221.141 59.763 221.141 60.8828V64H220.047V55.5ZM230.766 52.3438H231.867V55.5H233.602V56.4375H231.867V64H230.766V56.4375H229.273V55.5H230.766V52.3438ZM239.508 56.4297L238.805 57.1562C238.221 56.5885 237.651 56.3047 237.094 56.3047C236.74 56.3047 236.435 56.4219 236.18 56.6562C235.93 56.8906 235.805 57.1641 235.805 57.4766C235.805 57.7526 235.909 58.0156 236.117 58.2656C236.326 58.5208 236.763 58.8203 237.43 59.1641C238.242 59.5859 238.794 59.9922 239.086 60.3828C239.372 60.7786 239.516 61.224 239.516 61.7188C239.516 62.4167 239.271 63.0078 238.781 63.4922C238.292 63.9766 237.68 64.2188 236.945 64.2188C236.456 64.2188 235.987 64.112 235.539 63.8984C235.096 63.6849 234.729 63.3906 234.438 63.0156L235.125 62.2344C235.682 62.8646 236.273 63.1797 236.898 63.1797C237.336 63.1797 237.708 63.0391 238.016 62.7578C238.323 62.4766 238.477 62.1458 238.477 61.7656C238.477 61.4531 238.375 61.1745 238.172 60.9297C237.969 60.6901 237.51 60.388 236.797 60.0234C236.031 59.6276 235.51 59.237 235.234 58.8516C234.958 58.4661 234.82 58.026 234.82 57.5312C234.82 56.8854 235.039 56.349 235.477 55.9219C235.919 55.4948 236.477 55.2812 237.148 55.2812C237.93 55.2812 238.716 55.6641 239.508 56.4297Z" fill="#0E4944"/>
</svg>
