<svg width="131" height="117" viewBox="0 0 131 117" fill="none" xmlns="http://www.w3.org/2000/svg">
<path d="M0.731448 85.0875V53.9638C0.728916 48.0973 2.75199 42.4099 6.45871 37.8628C10.1654 33.3158 15.3284 30.188 21.0751 29.0082C21.8255 28.8581 22.6048 29.0123 23.2415 29.4368C23.8783 29.8613 24.3203 30.5213 24.4704 31.2717C24.6205 32.0221 24.4663 32.8014 24.0418 33.4382C23.6173 34.0749 22.9572 34.517 22.2068 34.6671C17.7574 35.582 13.7577 37.9986 10.8781 41.5118C7.99847 45.025 6.41402 49.4213 6.39031 53.9638V85.0875C6.39031 85.8379 6.09221 86.5576 5.56159 87.0882C5.03097 87.6189 4.31129 87.917 3.56088 87.917C2.81047 87.917 2.09079 87.6189 1.56017 87.0882C1.02955 86.5576 0.731448 85.8379 0.731448 85.0875Z" fill="#A87E6B"/>
<path d="M130.884 36.3362C130.884 42.6176 122.057 45.3904 115.888 43.8342L111.078 42.6459C107.344 55.7018 100.926 67.8347 92.2344 78.2684C90.9046 79.8812 91.2724 76.0049 91.2724 102.064C94.0512 103.639 96.3421 105.949 97.8933 108.741C99.1129 111.043 99.7538 113.606 99.7607 116.211H88.443L79.9547 107.723C79.9547 82.5408 80.181 82.8238 79.2756 79.5982C64.4599 83.5524 48.8827 83.679 34.0047 79.9661C31.1753 83.5029 29.4776 84.3517 20.5366 90.7462V102.064C23.3154 103.639 25.6063 105.949 27.1575 108.741C28.3771 111.043 29.018 113.606 29.0249 116.211H17.7072L9.21889 107.723V85.0873C10.31 84.3603 11.2416 83.4185 11.9566 82.3194C12.6716 81.2203 13.155 79.987 13.3775 78.6948C13.5999 77.4026 13.5566 76.0786 13.2502 74.8037C12.9439 73.5288 12.3809 72.3297 11.5956 71.2797C8.42665 67.0922 9.21889 65.2813 9.21889 41.4858C9.2102 39.7442 9.55342 38.0188 10.228 36.4131C10.9025 34.8075 11.8945 33.3546 13.1443 32.1417C14.3942 30.9289 15.8762 29.981 17.5014 29.355C19.1266 28.729 20.8616 28.4377 22.6021 28.4987C26.3087 28.4987 50.0476 34.8649 84.5383 29.1212L91.2724 28.4987C88.8023 27.6742 86.6538 26.0942 85.1306 23.982C83.6074 21.8698 82.7866 19.3324 82.7841 16.7283V11.5221C88.3015 11.5221 92.6871 10.9279 96.9313 15.3136L102.59 11.5221H113.908C130.715 33.9312 130.884 33.3936 130.884 36.3362Z" fill="#A87E6B"/>
<path d="M130.885 36.3362C130.885 42.5327 122.397 45.2772 116.313 43.9191L111.079 42.6459C107.345 55.7021 100.927 67.8351 92.2348 78.2684C90.905 79.8812 91.2728 76.0049 91.2728 102.064C94.1462 103.677 96.4939 106.084 98.0351 108.996L97.1297 110.552H90.4522C89.8158 110.556 89.185 110.433 88.5963 110.192C88.0076 109.95 87.4727 109.593 87.0227 109.143C86.5726 108.693 86.2164 108.159 85.9746 107.57C85.7327 106.981 85.6102 106.35 85.6139 105.714C85.6139 85.1722 85.9252 83.0784 84.9349 79.5982C82.3318 80.249 82.2752 80.2773 79.5589 80.8149C78.7384 75.156 73.2493 65.1398 69.4579 68.9313C69.1927 69.1943 68.9822 69.5072 68.8385 69.852C68.6949 70.1968 68.6209 70.5667 68.6209 70.9402C68.6209 71.3137 68.6949 71.6835 68.8385 72.0283C68.9822 72.3731 69.1927 72.686 69.4579 72.9491C71.6218 75.1217 73.1569 77.8399 73.9001 80.8149C62.5624 83.1625 50.8759 83.2778 39.4942 81.1544C43.6986 75.826 45.9905 69.2393 46.0019 62.4519C46.0019 61.7015 45.7038 60.9818 45.1732 60.4512C44.6425 59.9205 43.9229 59.6225 43.1725 59.6225C42.422 59.6225 41.7024 59.9205 41.1717 60.4512C40.6411 60.9818 40.343 61.7015 40.343 62.4519C40.343 73.5433 34.0051 77.4762 34.0051 79.9661C31.1757 83.5029 29.478 84.3517 20.537 90.7462V102.064C23.4104 103.677 25.7582 106.084 27.2993 108.996L26.3939 110.552H19.7165C19.08 110.556 18.4492 110.433 17.8605 110.192C17.2718 109.95 16.7369 109.593 16.2869 109.143C15.8369 108.693 15.4806 108.159 15.2388 107.57C14.997 106.981 14.8744 106.35 14.8781 105.714V85.0873C16.1999 84.2042 17.2837 83.0091 18.0338 81.6076C18.7839 80.2061 19.1772 78.6414 19.1789 77.0517C19.1789 71.2231 14.8781 70.9402 14.8781 64.1778C14.8781 41.1463 13.6615 37.2982 18.6696 32.2901C20.4762 30.4905 22.7837 29.2776 25.2904 28.8099C56.103 34.4688 75.9656 29.97 91.2728 28.4987C88.8027 27.6742 86.6542 26.0942 85.131 23.982C83.6078 21.8698 82.7869 19.3324 82.7845 16.7283V11.5221C88.3019 11.5221 92.6875 10.9279 96.9316 15.3136L102.591 11.5221H113.908C130.715 33.9312 130.885 33.3936 130.885 36.3362Z" fill="#BE927C"/>
<path d="M79.9548 82.7092C79.9548 82.0584 79.785 81.436 79.6436 80.8135C79.7888 81.4379 79.8928 82.0711 79.9548 82.7092Z" fill="#A87E6B"/>
<path d="M116.315 43.9193L111.081 42.646C110.798 43.6929 110.458 44.7115 110.147 45.7301L106.242 41.8255C105.978 41.5617 105.769 41.2485 105.626 40.9038C105.484 40.5591 105.41 40.1897 105.41 39.8166C105.41 39.4435 105.484 39.0741 105.626 38.7294C105.769 38.3847 105.978 38.0715 106.242 37.8077C106.506 37.5439 106.819 37.3346 107.164 37.1918C107.509 37.0491 107.878 36.9756 108.251 36.9756C108.624 36.9756 108.994 37.0491 109.338 37.1918C109.683 37.3346 109.996 37.5439 110.26 37.8077C117.022 44.57 116.258 43.8627 116.315 43.9193Z" fill="#A87E6B"/>
<path d="M94.1043 20.01C93.5079 20.0062 92.928 19.8141 92.4474 19.461C91.9667 19.1079 91.6099 18.612 91.4279 18.0441C91.2459 17.4762 91.2481 16.8652 91.434 16.2986C91.6199 15.7319 91.9801 15.2385 92.4632 14.8888L112.269 0.741622C112.878 0.380838 113.601 0.261542 114.294 0.407286C114.986 0.55303 115.599 0.953222 116.012 1.52886C116.424 2.1045 116.605 2.81375 116.52 3.5166C116.435 4.21944 116.089 4.86481 115.551 5.3253C94.2741 20.5476 95.4058 20.01 94.1043 20.01Z" fill="#A07765"/>
</svg>
