<svg width="156" height="102" viewBox="0 0 156 102" fill="none" xmlns="http://www.w3.org/2000/svg">
<path d="M4.07303 40.8763C3.1781 40.9837 2.27716 40.7312 1.5684 40.1743C0.85965 39.6175 0.401145 38.8018 0.293752 37.9069C0.18636 37.012 0.438878 36.111 0.995755 35.4023C1.55263 34.6935 2.36825 34.235 3.26319 34.1276C6.99012 33.4984 10.4833 31.8915 13.3863 29.471C11.6795 28.7612 10.2124 27.5761 9.15962 26.0567C8.1068 24.5373 7.5125 22.7475 7.44739 20.9001C7.44108 19.5533 7.74376 18.2229 8.33216 17.0114C8.92056 15.7998 9.77899 14.7393 10.8415 13.9115C11.9039 13.0837 13.1421 12.5106 14.4607 12.2363C15.7794 11.962 17.1434 11.9938 18.4478 12.3293C19.7479 12.6528 20.9637 13.251 22.0132 14.0837C23.0628 14.9165 23.9218 15.9643 24.5325 17.1569C25.1431 18.3494 25.4912 19.6589 25.5534 20.9972C25.6155 22.3355 25.3903 23.6716 24.8928 24.9156C24.5024 25.8711 24.0632 26.8059 23.5768 27.7163L29.4145 31.0907C30.0901 31.582 30.5594 32.3065 30.7316 33.1239C30.9039 33.9413 30.7668 34.7935 30.347 35.5157C29.9271 36.2379 29.2543 36.7787 28.4587 37.0334C27.6631 37.2881 26.8013 37.2386 26.0401 36.8946L19.5276 33.1491C16.2361 36.5649 12.0498 38.9855 7.44739 40.134C6.35168 40.4988 5.2207 40.7477 4.07303 40.8763ZM14.1961 20.9001C14.1961 22.4861 15.5796 22.9248 17.7729 24.2745C18.6165 22.6886 19.1902 21.5413 18.5153 20.259C18.3408 19.7752 18.0043 19.3666 17.5628 19.1028C17.1212 18.8389 16.602 18.736 16.0933 18.8115C15.5845 18.887 15.1175 19.1363 14.7717 19.5171C14.4259 19.8978 14.2225 20.3865 14.1961 20.9001Z" fill="#EDB996"/>
<path d="M155.919 51.0001V61.1232C145.189 70.099 129.161 83.1578 114.482 84.7437L112.053 101.616H98.5553C96.9019 90.1427 96.7331 88.1181 95.8558 84.7437H47.7037C46.1013 90.2498 45.0501 95.9015 44.5655 101.616H31.0681C29.6574 88.368 26.8177 75.312 22.5985 62.6754C20.9989 57.8685 20.5652 52.7502 21.3331 47.7426C22.1009 42.7351 24.0484 37.9819 27.0147 33.8751C29.9811 29.7683 33.8814 26.4257 38.3939 24.1229C42.9063 21.8201 47.9016 20.6232 52.9677 20.6309H96.0245C99.1964 8.11205 108.003 4.06282 115.427 0.384766V20.6309C120.012 20.6529 124.5 21.9489 128.391 24.374C132.282 26.7992 135.423 30.2581 137.462 34.3646L142.422 44.2514L155.919 51.0001Z" fill="#F6CCAF"/>
<path d="M155.916 50.9988V61.1219C145.186 70.0977 129.158 83.1565 114.479 84.7424L113.028 94.8655C110.617 94.9006 108.272 94.0734 106.416 92.533C104.56 90.9926 103.315 88.8402 102.905 86.4633C102.905 85.721 102.669 85.0799 102.568 84.7424H95.819C94.378 78.0451 91.663 71.6871 87.8217 66.0147C87.2943 65.36 86.5415 64.9257 85.7106 64.7969C84.8798 64.6682 84.0308 64.8542 83.3299 65.3186C82.6291 65.7831 82.1269 66.4924 81.9216 67.3077C81.7164 68.1231 81.8229 68.9856 82.2203 69.7265C85.2601 74.3378 87.5388 79.4078 88.969 84.7424H54.6855C56.6399 79.2993 59.7742 74.3558 63.8638 70.2664C64.4992 69.631 64.8562 68.7692 64.8562 67.8706C64.8562 66.972 64.4992 66.1102 63.8638 65.4748C63.2284 64.8394 62.3666 64.4825 61.468 64.4825C60.5694 64.4825 59.7076 64.8394 59.0722 65.4748C51.2552 73.3785 46.4758 83.7857 45.5748 94.8655C43.1185 94.8896 40.7312 94.054 38.826 92.5035C33.3258 88.1168 35.4517 81.5368 29.5466 63.4165C27.8401 58.502 27.3489 53.2474 28.1149 48.1018C28.8808 42.9561 30.8812 38.0724 33.945 33.868C37.0088 29.6635 41.0449 26.2634 45.7086 23.958C50.3722 21.6527 55.5247 20.5107 60.7256 20.6296H102.77C103.655 17.1187 105.23 13.8189 107.402 10.9224C109.574 8.02584 112.301 5.59038 115.424 3.75781V20.6296C120.009 20.6516 124.497 21.9476 128.388 24.3727C132.279 26.7979 135.42 30.2568 137.459 34.3632L142.419 44.2501L155.916 50.9988Z" fill="#FFDEC7"/>
</svg>
