<svg width="106" height="106" viewBox="0 0 106 106" fill="none" xmlns="http://www.w3.org/2000/svg">
<path d="M2.61917 105.166C2.16655 105.169 1.7234 105.037 1.34622 104.787C0.96904 104.536 0.674916 104.18 0.501349 103.762C0.327782 103.344 0.282636 102.883 0.371667 102.44C0.460698 101.996 0.679872 101.589 1.00125 101.27L64.8069 37.4641C65.236 37.035 65.818 36.7939 66.4248 36.7939C67.0317 36.7939 67.6137 37.035 68.0428 37.4641C68.4719 37.8932 68.7129 38.4752 68.7129 39.082C68.7129 39.6889 68.4719 40.2709 68.0428 40.7C-0.0697793 108.79 4.00923 105.166 2.61917 105.166Z" fill="#FFCC66"/>
<path d="M61.6403 82.5373C57.367 86.8094 51.5719 89.2093 45.5294 89.2093C39.4869 89.2093 33.6918 86.8094 29.4185 82.5373L26.1826 79.3243C28.3009 77.2054 30.8162 75.525 33.5846 74.3793C36.353 73.2336 39.3202 72.6451 42.3163 72.6475C52.229 72.6475 57.1056 78.0026 61.6403 82.5373Z" fill="#FFDE76"/>
<path d="M32.8587 63.1922C32.861 66.1883 32.2725 69.1555 31.1269 71.9239C29.9812 74.6923 28.3008 77.2076 26.1819 79.3259L22.9688 76.09C18.6968 71.8167 16.2969 66.0216 16.2969 59.9791C16.2969 53.9366 18.6968 48.1415 22.9688 43.8682C27.2985 48.1978 32.8587 52.9833 32.8587 63.1922Z" fill="#FFDE76"/>
<path d="M71.3023 72.8768C67.8205 76.3616 63.3032 78.6243 58.4273 79.3258C56.3109 77.207 53.7977 75.5262 51.0313 74.3795C48.2649 73.2327 45.2996 72.6424 42.3049 72.6424C39.3103 72.6424 36.345 73.2327 33.5786 74.3795C30.8122 75.5262 28.299 77.207 26.1826 79.3258C28.3013 77.2094 29.9821 74.6962 31.1289 71.9298C32.2757 69.1634 32.866 66.1981 32.866 63.2034C32.866 60.2088 32.2757 57.2435 31.1289 54.4771C29.9821 51.7107 28.3013 49.1975 26.1826 47.0811C26.8841 42.2052 29.1468 37.6879 32.6315 34.2061L35.8674 37.4191C40.1325 41.6915 42.528 47.4817 42.528 53.5187C42.528 59.5556 40.1325 65.3458 35.8674 69.6182C40.1398 65.3531 45.93 62.9576 51.9669 62.9576C58.0039 62.9576 63.7941 65.3531 68.0665 69.6182L71.3023 72.8768Z" fill="#FFDE76"/>
<path d="M81.2369 33.9776C78.1987 33.942 75.1841 34.5144 72.3703 35.661C69.5565 36.8077 67.0005 38.5054 64.8525 40.6544C67.0016 38.5065 68.6993 35.9504 69.846 33.1367C70.9926 30.3229 71.565 27.3083 71.5293 24.2701C72.8575 19.6851 75.9311 15.804 80.0897 13.4605C84.2483 11.117 89.1602 10.4981 93.7702 11.7368C95.0088 16.3468 94.39 21.2587 92.0465 25.4173C89.703 29.5759 85.8219 32.6494 81.2369 33.9776Z" fill="#FFDE76"/>
<path d="M80.9641 63.2128C77.4879 66.7014 72.9666 68.9581 68.089 69.6389C63.8157 65.3669 58.0206 62.967 51.9781 62.967C45.9356 62.967 40.1405 65.3669 35.8672 69.6389C40.1327 65.3627 42.526 59.5679 42.5212 53.528C42.5554 50.5327 41.9836 47.5614 40.8401 44.7927C39.6966 42.0241 38.0051 39.5153 35.8672 37.4171C36.548 32.5395 38.8047 28.0182 42.2933 24.542C46.2356 28.4615 53.6872 34.8876 51.9553 47.0791C51.3922 51.4699 49.5089 55.5863 46.5546 58.8831C45.2329 60.3871 45.119 60.2732 46.5546 58.8831C50.9184 55.0381 56.5872 53.0071 62.3998 53.2063C68.2125 53.4054 73.729 55.8195 77.8194 59.9541L80.9641 63.2128Z" fill="#FFDE76"/>
<path d="M90.649 53.5282C87.1725 56.995 82.6758 59.2553 77.8195 59.9771C73.5462 55.7051 67.7511 53.3052 61.7086 53.3052C55.6661 53.3052 49.871 55.7051 45.5977 59.9771C49.8697 55.7038 52.2696 49.9087 52.2696 43.8662C52.2696 37.8237 49.8697 32.0286 45.5977 27.7553C46.3055 22.8747 48.5668 18.352 52.0466 14.8574L55.2597 18.0933C59.3422 22.182 61.7191 27.6688 61.9094 33.4436C62.0998 39.2184 60.0894 44.8498 56.2851 49.1985C54.9406 50.7253 54.8267 50.6114 56.2851 49.1985C60.6338 45.3942 66.2653 43.3838 72.04 43.5742C77.8148 43.7646 83.3017 46.1415 87.3904 50.224L90.649 53.5282Z" fill="#FFDE76"/>
<path d="M73.2609 68.2943C71.6093 68.9387 69.8888 69.3898 68.1336 69.6388C63.8612 65.3737 58.071 62.9783 52.0341 62.9783C45.9972 62.9783 40.207 65.3737 35.9346 69.6388C40.1996 65.3664 42.5951 59.5762 42.5951 53.5393C42.5951 47.5024 40.1996 41.7121 35.9346 37.4397C36.1462 35.6623 36.5748 33.9174 37.2107 32.2441L39.3755 34.5229C42.2669 37.5057 44.4407 41.1081 45.7318 45.0566C47.023 49.0051 47.3976 53.1958 46.8271 57.3106C46.8271 57.5385 46.5309 58.9286 46.5309 59.0197C46.5309 59.1109 47.9665 58.7235 48.2627 58.7235C52.3776 58.153 56.5683 58.5276 60.5168 59.8188C64.4652 61.1099 68.0676 63.2837 71.0505 66.1751L73.2609 68.2943Z" fill="#FFCC66"/>
<path d="M82.8328 58.6332C81.1947 59.2896 79.4792 59.7338 77.7284 59.9549C73.456 55.6898 67.6657 53.2943 61.6288 53.2943C55.5919 53.2943 49.8017 55.6898 45.5293 59.9549C49.7944 55.6825 52.1899 49.8923 52.1899 43.8554C52.1899 37.8184 49.7944 32.0282 45.5293 27.7558C45.7545 26.0057 46.1985 24.2908 46.851 22.6514C54.1203 29.8295 57.9486 37.3267 56.4674 47.7179C56.2851 49.0851 56.194 49.0396 56.194 49.2674C56.6977 49.1149 57.218 49.0231 57.7435 48.994C68.2487 47.5128 75.5407 51.3867 82.8328 58.6332Z" fill="#FFCC66"/>
<path d="M88.0049 30.3314C86.002 32.1201 83.5801 33.3742 80.9635 33.9775C74.9203 33.9788 69.1251 36.3805 64.8525 40.6543C69.1264 36.3818 71.5281 30.5866 71.5293 24.5434C72.1454 21.9315 73.3979 19.5125 75.1754 17.502C75.7819 19.7999 76.0883 22.1667 76.0869 24.5434C76.0419 25.1798 76.131 25.8187 76.3486 26.4185C76.5661 27.0183 76.9071 27.5658 77.3496 28.0255C77.7921 28.4852 78.3262 28.8469 78.9174 29.0871C79.5085 29.3273 80.1434 29.4407 80.7812 29.4199C83.2186 29.4068 85.6471 29.7133 88.0049 30.3314Z" fill="#FFCC66"/>
<path d="M100.312 43.8671C96.8175 47.3468 92.2948 49.6082 87.4142 50.316C87.4142 49.7235 80.8514 43.6392 71.3033 43.6392C65.2601 43.6405 59.4649 46.0422 55.1924 50.316C59.4662 46.0435 61.8679 40.2483 61.8692 34.2051C61.8407 28.1673 59.4431 22.3821 55.1924 18.0941C55.9002 13.2136 58.1616 8.6909 61.6413 5.19629C65.857 9.4576 71.4173 14.1747 71.5312 24.2696C71.6036 29.886 69.5991 35.3312 65.9026 39.5602C64.5126 41.0414 64.467 40.9958 65.9026 39.5602C70.1316 35.8637 75.5768 33.8593 81.1932 33.9316C91.0375 34.0911 95.8457 39.4007 100.312 43.8671Z" fill="#FFDE76"/>
<path d="M87.4142 50.3165C87.4142 49.7241 80.8514 43.6397 71.3033 43.6397C65.2601 43.641 59.4649 46.0427 55.1924 50.3165C59.4662 46.044 61.8679 40.2488 61.8692 34.2056C61.8407 28.1679 59.4431 22.3826 55.1924 18.0947C55.4437 16.3449 55.9027 14.6313 56.5596 12.9902C58.5422 14.9956 58.4282 14.8588 58.451 14.8816C60.9888 17.4177 63 20.4306 64.3688 23.7471C65.7376 27.0635 66.437 30.6178 66.4267 34.2056C66.4267 41.9534 63.5099 39.0822 71.3033 39.0822C79.4613 39.0822 87.5282 43.1384 90.9008 47.3541L92.5187 48.9493C90.8776 49.6063 89.164 50.0653 87.4142 50.3165Z" fill="#FFCC66"/>
<path d="M63.5996 8.59125C63.1419 8.61276 62.6884 8.49581 62.2982 8.25565C61.908 8.0155 61.5993 7.66331 61.4123 7.24503C61.2253 6.82675 61.1687 6.36182 61.25 5.91091C61.3312 5.46 61.5465 5.04404 61.8677 4.71734L65.491 1.04851C65.911 0.604303 66.4903 0.345145 67.1014 0.328051C67.7125 0.310957 68.3054 0.537327 68.7496 0.957363C69.1938 1.3774 69.453 1.95669 69.4701 2.56781C69.4872 3.17892 69.2608 3.7718 68.8408 4.21601C64.9897 8.15829 64.8301 8.59125 63.5996 8.59125Z" fill="#FFDE76"/>
<path d="M98.7399 44.483C98.2892 44.4811 97.8492 44.3456 97.4756 44.0937C97.1019 43.8417 96.8113 43.4846 96.6406 43.0675C96.4698 42.6505 96.4266 42.1921 96.5163 41.7504C96.6061 41.3088 96.8248 40.9037 97.1448 40.5863L101.292 36.5073C101.506 36.2978 101.759 36.1325 102.037 36.0209C102.315 35.9092 102.612 35.8534 102.911 35.8566C103.211 35.8597 103.507 35.9219 103.782 36.0394C104.058 36.1569 104.307 36.3275 104.517 36.5415C104.726 36.7554 104.891 37.0086 105.003 37.2864C105.115 37.5643 105.171 37.8614 105.167 38.1608C105.164 38.4602 105.102 38.7561 104.985 39.0315C104.867 39.3069 104.696 39.5565 104.482 39.7659C100.016 44.164 99.9705 44.483 98.7399 44.483Z" fill="#FFDE76"/>
<path d="M91.4912 16.2947C91.0386 16.2974 90.5955 16.1651 90.2183 15.9149C89.8411 15.6647 89.547 15.3078 89.3734 14.8898C89.1999 14.4718 89.1547 14.0115 89.2437 13.5678C89.3328 13.124 89.5519 12.7168 89.8733 12.398L101.267 1.00415C101.696 0.575051 102.278 0.333984 102.885 0.333984C103.492 0.333984 104.074 0.575051 104.503 1.00415C104.932 1.43325 105.173 2.01524 105.173 2.62208C105.173 3.22892 104.932 3.81091 104.503 4.24001C92.4483 16.2947 92.9269 16.2947 91.4912 16.2947Z" fill="#FFDE76"/>
</svg>
