<svg width="34" height="36" viewBox="0 0 34 36" fill="none" xmlns="http://www.w3.org/2000/svg">
<path d="M15.5352 0H18.4648C18.7253 0 18.8555 0.130208 18.8555 0.390625V34.7656C18.8555 35.026 18.7253 35.1562 18.4648 35.1562H15.5352C15.2747 35.1562 15.1445 35.026 15.1445 34.7656V0.390625C15.1445 0.130208 15.2747 0 15.5352 0Z" fill="#7E7E7E"/>
<path d="M0.59375 15.7227H33.4062C33.6667 15.7227 33.7969 15.8529 33.7969 16.1133V19.043C33.7969 19.3034 33.6667 19.4336 33.4062 19.4336H0.59375C0.333333 19.4336 0.203125 19.3034 0.203125 19.043V16.1133C0.203125 15.8529 0.333333 15.7227 0.59375 15.7227Z" fill="#7E7E7E"/>
</svg>
