<svg width="40" height="36" viewBox="0 0 40 36" fill="none" xmlns="http://www.w3.org/2000/svg">
<path d="M37.5 15.6655H7.85L16.925 4.76548C17.3493 4.25494 17.5535 3.59674 17.4926 2.93568C17.4316 2.27461 17.1105 1.66483 16.6 1.24048C16.0895 0.816138 15.4313 0.611983 14.7702 0.672932C14.1091 0.733882 13.4993 1.05494 13.075 1.56548L0.575 16.5655C0.490902 16.6848 0.415698 16.8101 0.35 16.9405C0.35 17.0655 0.35 17.1405 0.175 17.2655C0.0616841 17.5521 0.0023528 17.8573 0 18.1655C0.0023528 18.4737 0.0616841 18.7788 0.175 19.0655C0.175 19.1905 0.175 19.2655 0.35 19.3905C0.415698 19.5208 0.490902 19.6462 0.575 19.7655L13.075 34.7655C13.3101 35.0477 13.6044 35.2746 13.9371 35.4302C14.2698 35.5858 14.6327 35.6661 15 35.6655C15.5841 35.6666 16.1502 35.4632 16.6 35.0905C16.8531 34.8806 17.0624 34.6229 17.2158 34.332C17.3692 34.0411 17.4637 33.7229 17.4938 33.3954C17.524 33.068 17.4893 32.7378 17.3917 32.4238C17.2941 32.1098 17.1355 31.8181 16.925 31.5655L7.85 20.6655H37.5C38.163 20.6655 38.7989 20.4021 39.2678 19.9333C39.7366 19.4644 40 18.8285 40 18.1655C40 17.5024 39.7366 16.8666 39.2678 16.3977C38.7989 15.9289 38.163 15.6655 37.5 15.6655Z" fill="black" fill-opacity="0.5"/>
</svg>
