<svg width="71" height="66" viewBox="0 0 71 66" fill="none" xmlns="http://www.w3.org/2000/svg">
<path d="M35.5 0C15.8792 0 0 14.7594 0 33C0 51.2391 15.8775 66 35.5 66C55.0654 66 71 51.2627 71 33C71 14.7609 55.1225 0 35.5 0Z" fill="#7A86E8"/>
<path d="M35.5 0V66C55.0654 66 71 51.2627 71 33C71 14.7609 55.1225 0 35.5 0Z" fill="#4B5ADD"/>
<path d="M26.4968 37.5317C27.0922 36.6184 26.7785 35.4292 25.796 34.8758C24.8136 34.3224 23.5344 34.614 22.9391 35.5273C20.7655 38.8613 17.3065 42.2695 13.5013 43.5846C12.4246 43.9568 11.8761 45.0697 12.2765 46.0707C12.6768 47.0719 13.8744 47.5815 14.951 47.2093C19.6918 45.5712 23.8282 41.6251 26.4968 37.5317Z" fill="#E1E4F9"/>
<path d="M25.6508 29.9164C25.3092 30.9361 25.9215 32.0199 27.0184 32.3374C28.1152 32.6549 29.2812 32.0858 29.6229 31.0663C31.9469 24.1287 43.8542 26.5133 41.4257 34.8762C39.7511 40.6431 34.4928 48.2338 28.0294 54.2142C27.2151 54.9676 27.2121 56.1919 28.0226 56.9487C28.833 57.7054 30.1498 57.7085 30.9643 56.955C37.908 50.5302 43.5909 42.2593 45.4422 35.8842C46.6905 31.5849 45.2549 28.622 43.8308 26.8935C38.8067 20.795 28.1958 22.3194 25.6508 29.9164Z" fill="#E1E4F9"/>
<path d="M57.0422 17.488C46.1748 4.29724 24.4482 4.34055 13.7461 17.9452C11.256 21.1109 10.035 24.9588 9.03416 26.8874C8.53508 27.8493 8.9694 29.0051 10.004 29.469C11.0389 29.9328 12.2821 29.5292 12.7812 28.5674C14.6154 25.0322 15.5029 20.0858 22.0692 15.6232C37.9532 4.82756 61.2049 16.4831 58.0427 36.2823C57.874 37.3386 58.6584 38.3222 59.7947 38.4789C60.9279 38.6359 61.9886 37.9089 62.1578 36.8503C63.3701 29.2607 61.3481 22.7141 57.0422 17.488Z" fill="#E1E4F9"/>
<path d="M44.8368 50.238C43.8752 49.6534 42.5862 49.9047 41.9577 50.7986C41.0576 52.0789 40.1212 53.357 39.095 54.7062C38.1174 55.9916 39.1204 57.7562 40.7917 57.7562C41.4441 57.7562 42.0866 57.4717 42.4919 56.9388C43.5475 55.5507 44.5118 54.2345 45.4401 52.9145C46.0684 52.0205 45.7984 50.8222 44.8368 50.238Z" fill="#E1E4F9"/>
<path d="M45.7467 18.1742C44.7812 17.5953 43.4938 17.8536 42.8713 18.7512C42.2487 19.6486 42.5266 20.8453 43.492 21.4241C47.8276 24.0235 50.2821 28.4858 50.0577 33.3612C50.0072 34.457 50.9478 35.3775 52.1375 35.3775C53.2452 35.3775 54.1663 34.5653 54.2141 33.5267C54.5021 27.2648 51.3368 21.5256 45.7467 18.1742Z" fill="#E1E4F9"/>
<path d="M31.564 19.7791C33.5276 19.2561 35.5921 19.1234 37.6171 19.389C38.7537 19.5377 39.807 18.8023 39.9676 17.7448C40.1282 16.6874 39.3364 15.7092 38.1989 15.5599C35.6925 15.2308 33.0339 15.3651 30.4184 16.0616C29.314 16.3556 28.6753 17.4263 28.9916 18.4529C29.3079 19.4799 30.4601 20.0733 31.564 19.7791Z" fill="#E1E4F9"/>
<path d="M21.6799 28.7644C22.4924 26.3284 24.0196 24.1667 26.0964 22.5136C26.9691 21.8191 27.0708 20.5985 26.3236 19.7874C25.5764 18.9763 24.2632 18.8818 23.3908 19.5763C20.7171 21.7044 18.7514 24.4857 17.7064 27.6195C16.1013 32.4325 13.7088 35.2925 10.392 36.3631C9.30675 36.7133 8.73251 37.8152 9.10928 38.8239C9.48633 39.8335 10.672 40.3664 11.7565 40.0163C16.3453 38.535 19.684 34.7493 21.6799 28.7644Z" fill="#E1E4F9"/>
<path d="M37.5653 33.3689C37.9072 32.3494 37.2951 31.2653 36.1983 30.9477C35.1016 30.6294 33.9353 31.1989 33.5937 32.2183C29.8535 43.3755 21.5101 48.4303 19.042 49.7137C18.0394 50.2352 17.6813 51.4134 18.2421 52.3452C18.8024 53.2763 20.0691 53.6106 21.073 53.0888C28.0293 49.4714 34.5006 42.5114 37.5653 33.3689Z" fill="#E1E4F9"/>
<path d="M41.4256 34.8763C40.4701 38.1666 38.3468 42.0505 35.5 45.8904V52.2997C40.3065 46.8443 44.0143 40.8008 45.4421 35.8841C47.6194 28.3859 41.7952 23.0857 35.5 23.1247V26.9919C39.1289 26.9515 42.8704 29.9009 41.4256 34.8763Z" fill="#D6DAF6"/>
<path d="M35.5 7.65507V11.5223C48.5253 11.49 60.3469 21.8549 58.0426 36.2823C57.8739 37.3386 58.6583 38.3221 59.7946 38.4789C60.9278 38.6359 61.9885 37.9089 62.1577 36.8503C64.8203 20.1797 51.1714 7.61627 35.5 7.65507Z" fill="#D6DAF6"/>
<path d="M44.8364 50.238C43.8747 49.6534 42.5857 49.9046 41.9573 50.7986C41.0571 52.0789 40.1207 53.357 39.0945 54.7061C38.1169 55.9916 39.1199 57.7562 40.7912 57.7562C41.4436 57.7562 42.0861 57.4717 42.4914 56.9388C43.547 55.5507 44.5113 54.2345 45.4396 52.9145C46.0679 52.0205 45.7979 50.8222 44.8364 50.238Z" fill="#D6DAF6"/>
<path d="M45.7467 18.1742C44.7812 17.5953 43.4938 17.8536 42.8713 18.7512C42.2487 19.6486 42.5266 20.8453 43.492 21.4241C47.8276 24.0235 50.2821 28.4858 50.0577 33.3612C50.0072 34.457 50.9479 35.3775 52.1375 35.3775C53.2452 35.3775 54.1663 34.5653 54.2141 33.5267C54.5021 27.2648 51.3368 21.5256 45.7467 18.1742Z" fill="#D6DAF6"/>
<path d="M37.617 19.389C38.7535 19.5376 39.8069 18.8022 39.9675 17.7448C40.128 16.6874 39.3362 15.7091 38.1987 15.5598C37.3169 15.4441 36.4313 15.3866 35.5 15.3899V19.2571C36.2336 19.2535 36.9264 19.2984 37.617 19.389Z" fill="#D6DAF6"/>
<path d="M35.5 30.8629V38.2938C36.3017 36.7214 36.992 35.079 37.5654 33.3688C37.9896 32.1034 36.945 30.8116 35.5 30.8629Z" fill="#D6DAF6"/>
<path d="M50.0674 47.1797V38.9236C50.0674 36.7946 51.9307 35.0625 54.221 35.0625C56.5113 35.0625 58.3747 36.7946 58.3747 38.9236V40.7988C58.3747 41.8667 59.306 42.7324 60.4547 42.7324C61.6035 42.7324 62.5348 41.8667 62.5348 40.7988V38.9236C62.5348 34.6622 58.8052 31.1953 54.221 31.1953C49.6368 31.1953 45.9072 34.6622 45.9072 38.9236V47.1797H50.0674Z" fill="#3C3A41"/>
<path d="M54.2207 31.1953V35.0625C56.511 35.0625 58.3743 36.7946 58.3743 38.9236V40.7988C58.3743 41.8667 59.3057 42.7324 60.4544 42.7324C61.6032 42.7324 62.5345 41.8667 62.5345 40.7988V38.9236C62.5345 34.6622 58.8049 31.1953 54.2207 31.1953Z" fill="#2B292C"/>
<path d="M64.6211 65.8711H43.8203C42.6716 65.8711 41.7402 65.0054 41.7402 63.9375V48.4688C41.7402 47.4009 42.6716 46.5352 43.8203 46.5352H64.6211C65.7699 46.5352 66.7012 47.4009 66.7012 48.4688V63.9375C66.7012 65.0054 65.7699 65.8711 64.6211 65.8711Z" fill="#FEB655"/>
<path d="M64.6211 46.5352H54.2207V65.8711H64.6211C65.7699 65.8711 66.7012 65.0054 66.7012 63.9375V48.4688C66.7012 47.4009 65.7699 46.5352 64.6211 46.5352Z" fill="#FD9A2B"/>
<path d="M56.3008 58.1367H52.1406C50.9919 58.1367 50.0605 57.271 50.0605 56.2031C50.0605 55.1353 50.9919 54.2695 52.1406 54.2695H56.3008C57.4495 54.2695 58.3809 55.1353 58.3809 56.2031C58.3809 57.271 57.4495 58.1367 56.3008 58.1367Z" fill="#F0725F"/>
<path d="M56.3008 54.2695H54.2207V58.1367H56.3008C57.4495 58.1367 58.3809 57.271 58.3809 56.2031C58.3809 55.1353 57.4495 54.2695 56.3008 54.2695Z" fill="#EA3D2C"/>
</svg>
