<svg width="70" height="66" viewBox="0 0 70 66" fill="none" xmlns="http://www.w3.org/2000/svg">
<path d="M69.6153 28.6071C69.6153 30.8401 68.6662 32.9816 66.9768 34.5606C65.2874 36.1396 62.996 37.0266 60.6068 37.0266H9.55835C7.16914 37.0266 4.87778 36.1396 3.18835 34.5606C1.49892 32.9816 0.549805 30.8401 0.549805 28.6071C0.549805 26.3741 1.49892 24.2326 3.18835 22.6536C4.87778 21.0746 7.16914 20.1876 9.55835 20.1876H60.6068C62.996 20.1876 65.2874 21.0746 66.9768 22.6536C68.6662 24.2326 69.6153 26.3741 69.6153 28.6071Z" fill="#7C7D7D"/>
<path d="M67.6188 33.8833C65.9071 34.3604 69.7658 34.2201 14.0629 34.2201C12.3648 34.2186 10.7018 33.7685 9.26549 32.9218C7.82923 32.0751 6.67826 30.8662 5.94533 29.4346C5.21239 28.0029 4.92732 26.4068 5.12301 24.8303C5.31869 23.2538 5.98714 21.7611 7.0513 20.5243C8.76292 20.0472 4.90426 20.1875 60.6071 20.1875C62.3052 20.189 63.9683 20.6391 65.4046 21.4858C66.8408 22.3325 67.9918 23.5414 68.7247 24.973C69.4577 26.4047 69.7427 28.0008 69.5471 29.5773C69.3514 31.1538 68.6829 32.6465 67.6188 33.8833Z" fill="#919191"/>
<path d="M12.5614 28.6071C12.5625 29.112 12.4178 29.6078 12.1427 30.0424C11.8675 30.4769 11.472 30.834 10.9978 31.076C10.5237 31.318 9.98845 31.436 9.44856 31.4175C8.90866 31.399 8.38411 31.2448 7.93018 30.971C7.47625 30.6972 7.10977 30.314 6.86936 29.8618C6.62895 29.4096 6.52352 28.9052 6.56418 28.4017C6.60484 27.8982 6.79009 27.4143 7.1004 27.0009C7.41071 26.5876 7.83458 26.2602 8.32734 26.0531C8.78416 25.8612 9.28509 25.7791 9.78452 25.8144C10.284 25.8496 10.766 26.001 11.1868 26.2549C11.6077 26.5087 11.9539 26.8569 12.1939 27.2677C12.434 27.6785 12.5603 28.139 12.5614 28.6071Z" fill="#DAD7E5"/>
<path d="M12.2911 29.7577C11.7364 29.9882 11.12 30.0561 10.5232 29.9526C9.92634 29.849 9.3771 29.5788 8.94788 29.1777C8.51865 28.7765 8.22958 28.2632 8.1188 27.7054C8.00801 27.1476 8.0807 26.5715 8.32729 26.0531C8.88197 25.8226 9.49836 25.7547 10.0952 25.8582C10.692 25.9618 11.2412 26.2319 11.6705 26.6331C12.0997 27.0343 12.3888 27.5476 12.4995 28.1054C12.6103 28.6632 12.5376 29.2393 12.2911 29.7577Z" fill="#EDEBF2"/>
<path d="M38.0853 28.6071C38.0864 29.112 37.9418 29.6078 37.6666 30.0424C37.3914 30.4769 36.9959 30.834 36.5218 31.076C36.0476 31.318 35.5124 31.436 34.9725 31.4175C34.4326 31.399 33.908 31.2448 33.4541 30.971C33.0002 30.6972 32.6337 30.314 32.3933 29.8618C32.1529 29.4096 32.0474 28.9052 32.0881 28.4017C32.1288 27.8982 32.314 27.4143 32.6243 27.0009C32.9346 26.5876 33.3585 26.2602 33.8513 26.0531C34.3081 25.8612 34.809 25.7791 35.3084 25.8144C35.8079 25.8496 36.29 26.001 36.7108 26.2549C37.1316 26.5087 37.4778 26.8569 37.7179 27.2677C37.9579 27.6785 38.0842 28.139 38.0853 28.6071Z" fill="#DAD7E5"/>
<path d="M37.815 29.7577C37.2603 29.9882 36.6439 30.0561 36.0471 29.9526C35.4503 29.849 34.901 29.5788 34.4718 29.1777C34.0426 28.7765 33.7535 28.2632 33.6427 27.7054C33.5319 27.1476 33.6046 26.5715 33.8512 26.0531C34.4059 25.8226 35.0223 25.7547 35.6191 25.8582C36.2159 25.9618 36.7652 26.2319 37.1944 26.6331C37.6236 27.0343 37.9127 27.5476 38.0235 28.1054C38.1343 28.6632 38.0616 29.2393 37.815 29.7577Z" fill="#EDEBF2"/>
<path d="M63.6097 28.6071C63.6108 29.112 63.4662 29.6078 63.191 30.0424C62.9158 30.4769 62.5203 30.834 62.0462 31.076C61.572 31.318 61.0368 31.436 60.4969 31.4175C59.957 31.399 59.4324 31.2448 58.9785 30.971C58.5246 30.6972 58.1581 30.314 57.9177 29.8618C57.6773 29.4096 57.5719 28.9052 57.6125 28.4017C57.6532 27.8982 57.8384 27.4143 58.1487 27.0009C58.459 26.5876 58.8829 26.2602 59.3757 26.0531C59.8325 25.8612 60.3334 25.7791 60.8329 25.8144C61.3323 25.8496 61.8144 26.001 62.2352 26.2549C62.656 26.5087 63.0022 26.8569 63.2423 27.2677C63.4823 27.6785 63.6087 28.139 63.6097 28.6071Z" fill="#DAD7E5"/>
<path d="M63.3389 29.7577C62.7842 29.9882 62.1678 30.0561 61.571 29.9526C60.9742 29.849 60.425 29.5788 59.9957 29.1777C59.5665 28.7765 59.2774 28.2632 59.1666 27.7054C59.0559 27.1476 59.1286 26.5715 59.3751 26.0531C59.9298 25.8226 60.5462 25.7547 61.143 25.8582C61.7399 25.9618 62.2891 26.2319 62.7183 26.6331C63.1475 27.0343 63.4366 27.5476 63.5474 28.1054C63.6582 28.6632 63.5855 29.2393 63.3389 29.7577Z" fill="#EDEBF2"/>
<path d="M57.6038 11.768C56.5378 17.7459 56.6278 17.2126 56.5227 17.8441C56.4044 18.5056 56.0365 19.1057 55.4857 19.5355C54.9348 19.9654 54.2375 20.1967 53.5199 20.1875H16.5999C15.8823 20.1967 15.185 19.9654 14.6341 19.5355C14.0833 19.1057 13.7154 18.5056 13.597 17.8441L12.561 11.768H57.6038Z" fill="#A87E6B"/>
<path d="M57.604 11.768L56.5981 17.381H24.6628C22.9596 17.3829 21.3109 16.8197 20.0104 15.7918C18.7099 14.764 17.8419 13.338 17.561 11.768H57.604Z" fill="#BE927C"/>
<path d="M42.4393 11.768H27.7253C26.7794 7.74069 30.578 0.541992 35.0823 0.541992C39.5866 0.541992 43.3852 7.72666 42.4393 11.768Z" fill="#F6CCAF"/>
<path d="M42.455 8.96147H34.047C33.6073 8.96711 33.1716 8.88241 32.7707 8.71337C32.3699 8.54432 32.0137 8.29505 31.7272 7.98318C31.4408 7.67131 31.2312 7.30444 31.1131 6.90851C30.9951 6.51258 30.9715 6.09725 31.0441 5.69188C31.2287 4.05735 31.8424 2.49075 32.8308 1.1313C37.3501 -1.29633 41.6592 4.30266 42.455 8.96147Z" fill="#FFDEC7"/>
<path d="M27.726 11.768H15.7146C14.2582 5.56558 23.0716 -5.88498 29.0773 5.1446C27.8743 7.15841 27.4003 9.48175 27.726 11.768Z" fill="#F6CCAF"/>
<path d="M29.0765 5.14461C27.8736 7.15841 27.3996 9.48175 27.7252 11.768H24.7224C24.1218 8.8071 25.5482 5.14461 27.2298 2.54858C27.9615 3.33661 28.5822 4.20906 29.0765 5.14461Z" fill="#EDB996"/>
<path d="M54.4511 11.768H42.4397C42.7653 9.48177 42.2913 7.15843 41.0884 5.14462C47.0941 -5.88496 55.8924 5.57963 54.4511 11.768Z" fill="#F6CCAF"/>
<path d="M45.4725 11.768H42.4697C42.7862 9.47871 42.3017 7.15517 41.0884 5.14461C41.5921 4.20752 42.2229 3.335 42.9652 2.54858C44.9113 5.26045 45.7969 8.51673 45.4725 11.768Z" fill="#EDB996"/>
<path d="M54.4664 8.96143C45.4578 8.96143 45.8182 8.96143 45.4578 8.96143C45.1773 7.09807 44.5417 5.29681 43.5811 3.64309C43.8359 2.76145 44.258 1.9297 44.8272 1.18739C49.3615 -1.29637 53.6706 4.28859 54.4664 8.96143Z" fill="#FFDEC7"/>
<path d="M45.4727 8.96146C44.7084 8.81839 44.0335 8.40311 43.5908 7.80342C43.1481 7.20374 42.9723 6.46666 43.1005 5.74801C43.2356 5.03235 43.4008 4.34475 43.5959 3.64313C44.5572 5.2966 45.1928 7.09797 45.4727 8.96146Z" fill="#F6CCAF"/>
<path d="M24.5724 37.0266H9.55811V42.6396H24.5724V37.0266Z" fill="#C6C3D8"/>
<path d="M24.5724 39.8331V42.6396H12.561C12.561 41.8953 12.8774 41.1814 13.4405 40.6551C14.0037 40.1288 14.7675 39.8331 15.5639 39.8331H24.5724Z" fill="#DAD7E5"/>
<path d="M60.6065 37.0266H45.5923V42.6396H60.6065V37.0266Z" fill="#C6C3D8"/>
<path d="M60.6071 39.8331V42.6396H48.5957C48.5957 41.8953 48.9121 41.1814 49.4752 40.6551C50.0384 40.1288 50.8021 39.8331 51.5986 39.8331H60.6071Z" fill="#DAD7E5"/>
<path d="M23.0715 42.6396H11.0601V59.4787H23.0715V42.6396Z" fill="#C6C3D8"/>
<path d="M23.071 45.4461V59.4787H14.0625V53.6973C14.0623 52.5994 14.2964 51.5125 14.7513 50.5003C15.2062 49.4881 15.8727 48.5709 16.7116 47.8025C17.5506 47.034 18.5452 46.4298 19.6372 46.0252C20.7292 45.6206 21.8966 45.4237 23.071 45.4461Z" fill="#DAD7E5"/>
<path d="M59.1056 42.6396H47.0942V59.4787H59.1056V42.6396Z" fill="#C6C3D8"/>
<path d="M59.1052 45.4461V59.4787H50.0967V53.8656C50.0967 51.6326 51.0458 49.4911 52.7352 47.9121C54.4247 46.3332 56.716 45.4461 59.1052 45.4461Z" fill="#DAD7E5"/>
<path d="M69.6154 62.2851C69.6154 63.0295 69.2991 63.7433 68.7359 64.2696C68.1728 64.796 67.409 65.0916 66.6126 65.0916H3.55274C2.96067 65.0893 2.38255 64.9235 1.89105 64.6149C1.39955 64.3064 1.01661 63.8689 0.79037 63.3576C0.56413 62.8462 0.504688 62.2837 0.619516 61.7409C0.734343 61.198 1.01832 60.699 1.43573 60.3065C2.6669 59.1278 -2.22774 59.4786 66.6126 59.4786C67.409 59.4786 68.1728 59.7743 68.7359 60.3006C69.2991 60.827 69.6154 61.5408 69.6154 62.2851Z" fill="#7C7D7D"/>
<path d="M69.6154 62.2852H8.05705C7.26064 62.2852 6.49686 61.9895 5.93371 61.4632C5.37057 60.9368 5.0542 60.223 5.0542 59.4787H66.6126C67.409 59.4787 68.1728 59.7744 68.7359 60.3007C69.2991 60.827 69.6154 61.5408 69.6154 62.2852Z" fill="#919191"/>
</svg>
