<svg width="47" height="48" viewBox="0 0 47 48" fill="none" xmlns="http://www.w3.org/2000/svg">
<path d="M20.3997 28.3458C22.6138 28.3458 24.4154 26.5442 24.4154 24.3301V16.5966C24.4154 16.0216 23.9495 15.5557 23.3745 15.5557C22.7996 15.5557 22.3336 16.0216 22.3336 16.5966V24.3301C22.3336 25.3964 21.4666 26.2635 20.4003 26.2635C19.8253 26.2635 19.3594 26.7294 19.3594 27.3044C19.3589 27.8798 19.8248 28.3458 20.3997 28.3458Z" fill="#41EC7B"/>
<path d="M11.7012 17.3436V20.3179C11.7012 21.0158 12.2673 21.5819 12.9652 21.5819C13.6631 21.5819 14.2292 21.0158 14.2292 20.3179V17.3436C14.2292 16.6457 13.6631 16.0796 12.9652 16.0796C12.2673 16.0796 11.7012 16.6457 11.7012 17.3436Z" fill="#41EC7B"/>
<path d="M33.7855 21.5824C34.4834 21.5824 35.0495 21.0163 35.0495 20.3184V17.3441C35.0495 16.6462 34.4834 16.0801 33.7855 16.0801C33.0876 16.0801 32.5215 16.6462 32.5215 17.3441V20.3184C32.5215 21.0163 33.0876 21.5824 33.7855 21.5824Z" fill="#41EC7B"/>
<path d="M32.2928 33.5026C31.9254 33.0605 31.2691 32.9998 30.827 33.3677C26.3422 37.0954 19.8317 37.0954 15.3469 33.3677C14.9048 33.0003 14.2484 33.061 13.8811 33.5026C13.5137 33.9447 13.5739 34.6011 14.0165 34.9684C16.6447 37.153 19.8659 38.2447 23.0877 38.2447C26.309 38.2447 29.5308 37.1524 32.1589 34.9684C32.6 34.6011 32.6607 33.9447 32.2928 33.5026Z" fill="#41EC7B"/>
<path d="M1.0668 17.3003C1.64173 17.3003 2.10769 16.8344 2.10769 16.2595V11.0617C2.10769 6.30145 5.98068 2.42846 10.741 2.42846H15.9392C16.5141 2.42846 16.9801 1.9625 16.9801 1.38757C16.9801 0.812642 16.5141 0.34668 15.9392 0.34668H10.741C4.83238 0.34668 0.0253906 5.15367 0.0253906 11.0623V16.26C0.0259095 16.8344 0.491872 17.3003 1.0668 17.3003Z" fill="#41EC7B"/>
<path d="M45.6838 30.0903C45.1089 30.0903 44.6429 30.5563 44.6429 31.1312V36.3295C44.6429 41.0897 40.7699 44.9627 36.0096 44.9627H30.8114C30.2365 44.9627 29.7705 45.4287 29.7705 46.0036C29.7705 46.5786 30.2365 47.0445 30.8114 47.0445H36.0096C41.9182 47.0445 46.7252 42.2375 46.7252 36.3289V31.1312C46.7247 30.5563 46.2587 30.0903 45.6838 30.0903Z" fill="#41EC7B"/>
<path d="M15.9387 44.9627H10.7405C5.98016 44.9627 2.10717 41.0897 2.10717 36.3295V31.1312C2.10717 30.5563 1.64121 30.0903 1.06628 30.0903C0.491353 30.0903 0.0253906 30.5563 0.0253906 31.1312V36.3295C0.0253906 42.238 4.83238 47.045 10.741 47.045H15.9392C16.5141 47.045 16.9801 46.5791 16.9801 46.0041C16.9796 45.4287 16.5136 44.9627 15.9387 44.9627Z" fill="#41EC7B"/>
<path d="M36.0096 0.345703H30.8114C30.2365 0.345703 29.7705 0.811666 29.7705 1.38659C29.7705 1.96152 30.2365 2.42749 30.8114 2.42749H36.0096C40.7699 2.42749 44.6429 6.30048 44.6429 11.0608V16.2585C44.6429 16.8334 45.1089 17.2994 45.6838 17.2994C46.2587 17.2994 46.7247 16.8334 46.7247 16.2585V11.0613C46.7247 5.15269 41.9177 0.345703 36.0096 0.345703Z" fill="#41EC7B"/>
</svg>
