<svg width="70" height="65" viewBox="0 0 70 65" fill="none" xmlns="http://www.w3.org/2000/svg">
<path d="M43.5894 37.0054V42.2115L41.4273 44.583C40.5816 45.5073 39.5317 46.2494 38.3498 46.7582C37.1679 47.267 35.8821 47.5305 34.5808 47.5305C33.2796 47.5305 31.9937 47.267 30.8119 46.7582C29.63 46.2494 28.58 45.5073 27.7343 44.583L25.5723 42.2115V37.0054C26.6994 38.2 28.0857 39.1566 29.6389 39.8119C31.1921 40.4672 32.8767 40.8061 34.5808 40.8061C36.2849 40.8061 37.9696 40.4672 39.5228 39.8119C41.076 39.1566 42.4622 38.2 43.5894 37.0054Z" fill="#EDB996"/>
<path d="M41.4279 44.583C39.9845 46.154 37.9722 47.1728 35.7758 47.4446C33.5793 47.7164 31.3527 47.2222 29.5216 46.0564L28.5757 45.018C28.5815 44.5231 28.7199 44.0375 28.9783 43.6055C29.2367 43.1735 29.6068 42.809 30.0548 42.5452C30.5029 42.2814 31.0145 42.1267 31.543 42.0954C32.0714 42.0641 32.5999 42.1571 33.08 42.3658C34.4709 43.0731 36.0056 43.4987 37.5842 43.6147C43.2446 43.6147 45.812 39.7698 41.4279 44.583Z" fill="#F6CCAF"/>
<path d="M69.1139 60.5661V64.6636H0.0483399V60.5661C0.0481126 57.6632 1.01114 54.8317 2.80472 52.4618C4.5983 50.0918 7.13415 48.3001 10.0628 47.3334L25.5726 42.2115L27.7346 44.583C28.5803 45.5073 29.6302 46.2494 30.8121 46.7582C31.994 47.2671 33.2798 47.5305 34.5811 47.5305C35.8824 47.5305 37.1682 47.2671 38.3501 46.7582C39.532 46.2494 40.5819 45.5073 41.4276 44.583L43.5896 42.2115L59.0994 47.3334C62.0281 48.3001 64.5639 50.0918 66.3575 52.4618C68.1511 54.8317 69.1141 57.6632 69.1139 60.5661Z" fill="#DAD7E5"/>
<path d="M13.5614 46.1828V53.6201C12.2729 53.931 11.1315 54.633 10.3162 55.6159C9.50097 56.5988 9.05807 57.807 9.05708 59.0506V61.8572C2.40577 61.8572 3.86215 52.9325 8.57662 48.2175C10.4084 47.123 9.44745 47.544 13.5614 46.1828Z" fill="#EDEBF2"/>
<path d="M41.4276 44.583L43.5897 42.2115V53.4376H19.5669V44.1901L25.5726 42.2115L27.7346 44.583C28.5804 45.5073 29.6303 46.2494 30.8122 46.7582C31.9941 47.2671 33.2799 47.5305 34.5811 47.5305C35.8824 47.5305 37.1682 47.2671 38.3501 46.7582C39.532 46.2494 40.5819 45.5073 41.4276 44.583Z" fill="#EDEBF2"/>
<path d="M69.1137 60.5661V61.857H54.0995V59.0505C54.0985 57.8069 53.6556 56.5987 52.8403 55.6158C52.0251 54.6329 50.8836 53.9309 49.5952 53.6199V44.1901L59.0992 47.3334C62.0279 48.3 64.5638 50.0918 66.3574 52.4617C68.1509 54.8317 69.114 57.6632 69.1137 60.5661Z" fill="#EDEBF2"/>
<path d="M57.1023 59.0506V64.6637H12.0596V59.0506C12.0606 57.807 12.5035 56.5988 13.3187 55.6159C14.134 54.633 15.2754 53.931 16.5638 53.62V45.2005L22.5695 43.2219V53.4376H46.5923V43.2079L52.598 45.1865V53.606C53.8889 53.9175 55.0322 54.6217 55.8478 55.6074C56.6633 56.5932 57.1046 57.8046 57.1023 59.0506Z" fill="#DF8761"/>
<path d="M46.5924 22.566C46.5924 29.1472 47.3131 33.0483 43.5895 37.0055C42.4624 38.2 41.0761 39.1567 39.5229 39.812C37.9697 40.4673 36.2851 40.8062 34.581 40.8062C32.8769 40.8062 31.1922 40.4673 29.639 39.812C28.0858 39.1567 26.6996 38.2 25.5724 37.0055C21.8189 33.0202 22.5696 29.1332 22.5696 22.566H46.5924Z" fill="#F6CCAF"/>
<path d="M46.5921 25.3724C46.5921 29.7225 47.3879 35.6723 40.5864 39.3208C38.7738 39.5311 36.9337 39.3522 35.2061 38.7978C33.4785 38.2434 31.909 37.328 30.617 36.1214C33.1694 35.1952 33.0793 35.1952 33.3195 35.3496C37.3884 36.6125 37.2382 36.5985 37.5836 36.5985C37.8395 36.5978 38.091 36.5359 38.3142 36.4188C38.5373 36.3017 38.7247 36.1332 38.8586 35.9293C38.9925 35.7254 39.0684 35.493 39.0791 35.254C39.0898 35.015 39.035 34.7774 38.9198 34.5638L38.4244 33.6376C38.2056 33.2266 37.9024 32.8598 37.532 32.5583C37.1615 32.2568 36.7312 32.0265 36.2654 31.8806C35.7997 31.7346 35.3078 31.6759 34.8178 31.7077C34.3278 31.7395 33.8492 31.8612 33.4096 32.066C33.3071 32.1141 33.194 32.1392 33.0793 32.1392C32.9646 32.1392 32.8515 32.1141 32.749 32.066C32.0002 31.7227 31.1502 31.6232 30.334 31.7834C29.5179 31.9436 28.7824 32.3542 28.2447 32.95C27.3138 31.1258 26.3529 27.6878 27.9895 26.2004C29.2056 25.0076 28.9504 25.3724 46.5921 25.3724Z" fill="#FFDEC7"/>
<path d="M49.5956 28.179H46.5928V22.566H49.5956C50.392 22.566 51.1558 22.8617 51.719 23.388C52.2821 23.9143 52.5985 24.6282 52.5985 25.3725C52.5985 26.1168 52.2821 26.8307 51.719 27.357C51.1558 27.8833 50.392 28.179 49.5956 28.179Z" fill="#F6CCAF"/>
<path d="M19.5668 28.179H22.5697V22.566H19.5668C18.7704 22.566 18.0066 22.8617 17.4435 23.388C16.8803 23.9143 16.564 24.6282 16.564 25.3725C16.564 26.1168 16.8803 26.8307 17.4435 27.357C18.0066 27.8833 18.7704 28.179 19.5668 28.179Z" fill="#F6CCAF"/>
<path d="M55.6009 22.566H13.561C13.561 21.0773 14.1938 19.6496 15.3201 18.597C16.4464 17.5443 17.9739 16.9529 19.5667 16.9529H49.5952C51.188 16.9529 52.7156 17.5443 53.8419 18.597C54.9682 19.6496 55.6009 21.0773 55.6009 22.566Z" fill="#DF8761"/>
<path d="M54.7903 19.7594H20.1374C19.8587 19.7619 19.5836 19.7003 19.3365 19.5798C19.0894 19.4594 18.8778 19.2839 18.7205 19.0689C18.5632 18.8539 18.4649 18.606 18.4345 18.3471C18.404 18.0881 18.4423 17.8262 18.5459 17.5844C18.9513 16.6722 17.0445 16.9529 49.5954 16.9529C50.6485 16.9539 51.6829 17.2137 52.5947 17.7063C53.5065 18.1989 54.2637 18.907 54.7903 19.7594Z" fill="#F29B75"/>
<path d="M49.5954 14.1464V16.953H19.5669V14.1464C19.5669 10.4248 21.1487 6.85554 23.9645 4.22393C26.7802 1.59232 30.5991 0.113892 34.5811 0.113892C38.5632 0.113892 42.3821 1.59232 45.1978 4.22393C48.0135 6.85554 49.5954 10.4248 49.5954 14.1464Z" fill="#DF8761"/>
<path d="M49.5954 14.1464H27.4494C26.999 14.155 26.5524 14.0687 26.1425 13.894C25.7327 13.7193 25.3701 13.4606 25.0817 13.1372C24.7934 12.8138 24.5865 12.4338 24.4766 12.0256C24.3666 11.6173 24.3564 11.1911 24.4465 10.7786C25.1591 8.09016 26.7069 5.65888 28.8951 3.79104C31.0833 1.92321 33.814 0.702361 36.7432 0.282288C40.309 0.767239 43.5693 2.43457 45.9288 4.97988C48.2883 7.52519 49.5897 10.7787 49.5954 14.1464Z" fill="#F29B75"/>
<path d="M34.8209 33.9464C34.4756 33.8341 34.5206 33.9464 30.5569 35.1251C30.2745 35.2136 29.9703 35.2216 29.683 35.1481C29.3958 35.0746 29.1384 34.9229 28.9436 34.7123C28.7488 34.5017 28.6255 34.2417 28.5893 33.9654C28.553 33.689 28.6056 33.4089 28.7402 33.1606L29.2356 32.2344C29.4528 31.8221 29.7552 31.454 30.1254 31.1515C30.4957 30.8489 30.9263 30.6179 31.3926 30.4718C31.8588 30.3257 32.3514 30.2673 32.8419 30.3001C33.3324 30.3329 33.8111 30.4562 34.2504 30.6628C34.3529 30.7109 34.466 30.736 34.5807 30.736C34.6954 30.736 34.8085 30.7109 34.911 30.6628C35.3503 30.4562 35.829 30.3329 36.3195 30.3001C36.81 30.2673 37.3026 30.3257 37.7689 30.4718C38.2351 30.6179 38.6658 30.8489 39.036 31.1515C39.4062 31.454 39.7086 31.8221 39.9258 32.2344C40.3762 33.0623 41.0068 33.8762 40.211 34.7182C39.4153 35.5601 38.5295 35.0971 34.8209 33.9464Z" fill="#7C7D7D"/>
<path d="M52.5982 53.62V45.2005L46.5925 43.2219V53.4376H22.5697V43.2079L18.0654 44.6953V56.2441C18.0654 57.7328 18.6982 59.1605 19.8245 60.2131C20.9507 61.2658 22.4783 61.8571 24.0711 61.8571H57.1025V59.0506C57.1015 57.807 56.6586 56.5988 55.8433 55.6159C55.0281 54.633 53.8866 53.931 52.5982 53.62Z" fill="#F29B75"/>
</svg>
