<svg width="43" height="47" viewBox="0 0 43 47" fill="none" xmlns="http://www.w3.org/2000/svg">
<path d="M34.6988 5.85876C34.5151 5.85876 34.3315 5.81206 34.1708 5.71866C29.7633 3.40701 25.9527 2.42631 21.3845 2.42631C16.8393 2.42631 12.5237 3.52376 8.5983 5.71866C8.04736 6.02221 7.3587 5.81206 7.03732 5.25166C6.7389 4.69126 6.9455 3.96741 7.49643 3.66386C11.7662 1.30551 16.4491 0.0913086 21.3845 0.0913086C26.2741 0.0913086 30.5438 1.18876 35.2267 3.64051C35.8006 3.94406 36.0072 4.64456 35.7088 5.20496C35.5022 5.62526 35.112 5.85876 34.6988 5.85876ZM1.84936 18.1175C1.61981 18.1175 1.39025 18.0475 1.18365 17.9074C0.655676 17.5338 0.540898 16.8099 0.908187 16.2729C3.18079 13.0039 6.07319 10.4354 9.51652 8.63741C16.7246 4.85471 25.9527 4.83136 33.1837 8.61406C36.627 10.412 39.5194 12.9572 41.792 16.2028C42.1593 16.7165 42.0445 17.4637 41.5166 17.8373C40.9886 18.2109 40.277 18.0942 39.9097 17.5571C37.8437 14.615 35.2267 12.3034 32.1277 10.6922C25.5395 7.25976 17.1148 7.25976 10.5495 10.7156C7.42756 12.3501 4.81063 14.6851 2.74463 17.6272C2.56099 17.9541 2.21665 18.1175 1.84936 18.1175ZM16.1966 46.301C15.8982 46.301 15.5997 46.1842 15.3931 45.9507C13.396 43.9193 12.3171 42.6117 10.7791 39.7863C9.19514 36.9143 8.36874 33.4118 8.36874 29.6524C8.36874 22.7175 14.1995 17.0668 21.3616 17.0668C28.5237 17.0668 34.3544 22.7175 34.3544 29.6524C34.3544 30.3062 33.8494 30.8199 33.2066 30.8199C32.5639 30.8199 32.0589 30.3062 32.0589 29.6524C32.0589 24.0017 27.2612 19.4018 21.3616 19.4018C15.462 19.4018 10.6643 24.0017 10.6643 29.6524C10.6643 33.0148 11.3989 36.1204 12.7992 38.6422C14.2683 41.3274 15.2784 42.4716 17.0459 44.2929C17.4821 44.7599 17.4821 45.4837 17.0459 45.9507C16.7934 46.1842 16.495 46.301 16.1966 46.301ZM32.6557 41.9812C29.924 41.9812 27.5137 41.2807 25.5395 39.9031C22.1191 37.5447 20.0761 33.7153 20.0761 29.6524C20.0761 28.9986 20.5811 28.4849 21.2238 28.4849C21.8666 28.4849 22.3716 28.9986 22.3716 29.6524C22.3716 32.9448 24.0244 36.0503 26.825 37.965C28.4548 39.0858 30.3602 39.6229 32.6557 39.6229C33.2066 39.6229 34.1249 39.5528 35.0431 39.3894C35.6629 39.2726 36.2597 39.6929 36.3745 40.3467C36.4893 40.9772 36.0761 41.5843 35.4333 41.701C34.1249 41.9579 32.9771 41.9812 32.6557 41.9812ZM28.0416 46.7913C27.9498 46.7913 27.835 46.768 27.7432 46.7446C24.0933 45.7172 21.7059 44.3396 19.2038 41.8411C15.99 38.5955 14.2224 34.2757 14.2224 29.6524C14.2224 25.8697 17.3903 22.7875 21.2927 22.7875C25.1952 22.7875 28.363 25.8697 28.363 29.6524C28.363 32.1509 30.4979 34.1823 33.1378 34.1823C35.7777 34.1823 37.9125 32.1509 37.9125 29.6524C37.9125 20.8495 30.452 13.7044 21.2698 13.7044C14.7504 13.7044 8.78194 17.3937 6.09614 23.1144C5.20087 25.0058 4.74176 27.224 4.74176 29.6524C4.74176 31.4737 4.90245 34.3458 6.27979 38.0818C6.50934 38.6889 6.21092 39.366 5.61407 39.5762C5.01723 39.8097 4.35152 39.4828 4.14492 38.899C3.0201 35.8402 2.46916 32.8047 2.46916 29.6524C2.46916 26.8504 2.99714 24.3053 4.03014 22.087C7.08323 15.5724 13.8551 11.346 21.2698 11.346C31.7145 11.346 40.2081 19.5419 40.2081 29.6291C40.2081 33.4118 37.0402 36.494 33.1378 36.494C29.2353 36.494 26.0675 33.4118 26.0675 29.6291C26.0675 27.1306 23.9326 25.0992 21.2927 25.0992C18.6528 25.0992 16.518 27.1306 16.518 29.6291C16.518 33.6219 18.033 37.3579 20.8106 40.1599C22.9914 42.3548 25.0804 43.569 28.3171 44.4797C28.9369 44.6431 29.2812 45.2969 29.1206 45.904C29.0058 46.4411 28.5237 46.7913 28.0416 46.7913Z" fill="#B6B9FB"/>
</svg>
