<svg width="70" height="65" viewBox="0 0 70 65" fill="none" xmlns="http://www.w3.org/2000/svg">
<path d="M69.1139 42.4069V56.4395H0.0483398V42.4069H10.5583C10.9565 42.4069 11.3384 42.5548 11.62 42.8179C11.9015 43.0811 12.0597 43.438 12.0597 43.8102C12.0597 44.1824 12.2179 44.5393 12.4995 44.8024C12.7811 45.0656 13.163 45.2134 13.5612 45.2134C13.9594 45.2134 14.3413 45.3613 14.6228 45.6244C14.9044 45.8876 15.0626 46.2445 15.0626 46.6167C15.0659 47.3598 15.3845 48.0714 15.9484 48.5953C17.0745 49.6758 18.0504 49.4232 22.5697 49.4232C23.7643 49.4232 24.91 48.9797 25.7547 48.1902C26.5994 47.4007 27.074 46.3299 27.074 45.2134C27.0773 44.4703 27.3959 43.7588 27.9598 43.2349C29.1309 42.1123 29.3862 42.4069 40.5868 42.4069C40.985 42.4069 41.3669 42.5548 41.6485 42.8179C41.93 43.0811 42.0882 43.438 42.0882 43.8102C42.0882 44.1824 42.2464 44.5393 42.528 44.8024C42.8096 45.0656 43.1914 45.2134 43.5896 45.2134C43.9879 45.2134 44.3697 45.3613 44.6513 45.6244C44.9329 45.8876 45.0911 46.2445 45.0911 46.6167C45.0944 47.3598 45.413 48.0714 45.9769 48.5953C47.0129 49.5916 47.6885 49.4232 51.8475 49.4232C53.2412 49.4232 54.5778 48.9058 55.5633 47.9847C56.5488 47.0636 57.1025 45.8144 57.1025 44.5118C57.1025 43.9536 57.3397 43.4182 57.7621 43.0234C58.1845 42.6287 58.7573 42.4069 59.3546 42.4069H69.1139Z" fill="#A87E6B"/>
<path d="M69.1139 56.4395H0.0483398V64.859H69.1139V56.4395Z" fill="#DF8761"/>
<path d="M52.3273 22.7614L47.823 23.2245C47.3876 19.6462 47.823 23.0842 45.1655 0.954821L49.5947 0.463682C49.9886 0.424228 50.3833 0.531884 50.6926 0.76319C51.002 0.994496 51.201 1.3307 51.2463 1.69855C52.3874 10.8899 53.6636 21.3441 53.6486 21.1477C53.6803 21.3353 53.6708 21.5271 53.6209 21.7113C53.5709 21.8954 53.4814 22.0682 53.3579 22.2191C53.2343 22.37 53.0793 22.4959 52.9021 22.5891C52.725 22.6823 52.5294 22.7409 52.3273 22.7614Z" fill="#9DCC6B"/>
<path d="M47.869 23.1683L31.4435 24.8663L23.1556 18.6779L21.3389 3.32631L45.2115 0.898682C47.8991 23.449 47.4486 19.6602 47.869 23.1683Z" fill="#84B749"/>
<path d="M47.5687 20.6986C40.2718 21.4564 35.4072 22.7754 30.3023 18.9726C25.1975 15.1698 25.5729 11.0021 24.627 2.98953L45.2115 0.898682L47.5687 20.6986Z" fill="#9DCC6B"/>
<path d="M53.5288 20.0812L47.5231 20.6986L45.2109 0.898691L49.5951 0.463682C49.989 0.424228 50.3837 0.531884 50.693 0.76319C51.0024 0.994496 51.2014 1.3307 51.2467 1.69855L53.5288 20.0812Z" fill="#B5E08C"/>
<path d="M36.9235 7.32558C35.2719 7.50801 31.0979 9.20595 31.2781 10.7355C31.4583 12.265 35.9325 13.107 37.5841 12.9386C37.9784 12.8981 38.3604 12.7853 38.7081 12.6068C39.0558 12.4283 39.3625 12.1876 39.6107 11.8983C39.8589 11.609 40.0436 11.2769 40.1545 10.9209C40.2653 10.5649 40.3 10.1919 40.2566 9.82338C40.2133 9.45482 40.0926 9.09786 39.9017 8.77287C39.7107 8.44788 39.4531 8.16124 39.1436 7.9293C38.834 7.69735 38.4787 7.52466 38.0978 7.42108C37.7168 7.31749 37.3178 7.28504 36.9235 7.32558Z" fill="#FFDE76"/>
<path d="M38.7402 12.5737C39.2793 12.7573 39.7509 13.0814 40.0991 13.5076C40.4473 13.9339 40.6575 14.4445 40.7049 14.9789C40.7523 15.5133 40.6348 16.0493 40.3665 16.5233C40.0981 16.9973 39.6901 17.3895 39.1906 17.6535C37.6892 18.4113 33.29 19.2673 32.4793 17.9201C31.6685 16.573 34.4912 13.8367 36.0827 12.9386" fill="#FFDE76"/>
<path d="M18.6657 29.1322C19.2362 28.5569 20.1671 26.6344 19.5815 26.1152C18.996 25.596 17.0141 26.6765 16.4435 27.2518C16.2038 27.5308 16.0872 27.8848 16.1175 28.2415C16.1478 28.5982 16.3227 28.9306 16.6065 29.1707C16.8903 29.4109 17.2615 29.5406 17.6443 29.5335C18.027 29.5263 18.3924 29.3828 18.6657 29.1322Z" fill="#FFCC66"/>
<path d="M22.5697 43.8102C22.5697 43.0384 21.8941 41.0037 21.0683 41.0037C20.2425 41.0037 19.5669 43.0384 19.5669 43.8102C19.5669 44.1824 19.7251 44.5393 20.0067 44.8025C20.2882 45.0656 20.6701 45.2135 21.0683 45.2135C21.4665 45.2135 21.8484 45.0656 22.13 44.8025C22.4116 44.5393 22.5697 44.1824 22.5697 43.8102Z" fill="#FFCC66"/>
<path d="M28.245 31.6019C28.5152 30.8722 28.6053 28.7954 27.8246 28.5007C27.0438 28.206 25.6775 29.904 25.4073 30.6758C25.3422 30.8499 25.3145 31.0343 25.3257 31.2185C25.3369 31.4026 25.3867 31.5829 25.4725 31.7491C25.6457 32.0846 25.9543 32.3421 26.3306 32.4649C26.7069 32.5877 27.12 32.5658 27.479 32.4039C27.838 32.2421 28.1136 31.9536 28.245 31.6019Z" fill="#FFCC66"/>
<path d="M19.2367 37.2149C19.5069 36.4852 19.597 34.4084 18.8163 34.1137C18.0355 33.8191 16.6692 35.517 16.399 36.2888C16.3339 36.4629 16.3062 36.6473 16.3174 36.8315C16.3285 37.0157 16.3784 37.196 16.4642 37.3621C16.5499 37.5282 16.6698 37.677 16.8171 37.7998C16.9643 37.9226 17.136 38.0171 17.3223 38.0779C17.5087 38.1388 17.706 38.1647 17.903 38.1542C18.1001 38.1438 18.293 38.0971 18.4707 38.017C18.6485 37.9368 18.8076 37.8248 18.939 37.6872C19.0705 37.5495 19.1716 37.3891 19.2367 37.2149Z" fill="#FFCC66"/>
<path d="M69.114 56.4395V62.0525H10.5584C8.96562 62.0525 7.43805 61.4612 6.31176 60.4085C5.18548 59.3559 4.55273 57.9282 4.55273 56.4395H69.114Z" fill="#F29B75"/>
<path d="M69.114 42.4069V56.4395H4.55273V42.4069H10.5584C10.9566 42.4069 11.3385 42.5548 11.6201 42.8179C11.9017 43.0811 12.0599 43.438 12.0599 43.8102C12.0599 44.1824 12.218 44.5393 12.4996 44.8024C12.7812 45.0656 13.1631 45.2134 13.5613 45.2134C13.9595 45.2134 14.3414 45.3613 14.6229 45.6244C14.9045 45.8876 15.0627 46.2445 15.0627 46.6167C15.0661 47.3598 15.3846 48.0714 15.9485 48.5953C17.0746 49.6758 18.0505 49.4232 22.5698 49.4232C23.7644 49.4232 24.9101 48.9797 25.7548 48.1902C26.5995 47.4007 27.0741 46.3299 27.0741 45.2134C27.0775 44.4703 27.396 43.7588 27.9599 43.2349C29.1311 42.1123 29.3863 42.4069 40.5869 42.4069C40.9851 42.4069 41.367 42.5548 41.6486 42.8179C41.9302 43.0811 42.0883 43.438 42.0883 43.8102C42.0883 44.1824 42.2465 44.5393 42.5281 44.8024C42.8097 45.0656 43.1916 45.2134 43.5898 45.2134C43.988 45.2134 44.3699 45.3613 44.6514 45.6244C44.933 45.8876 45.0912 46.2445 45.0912 46.6167C45.0945 47.3598 45.4131 48.0714 45.977 48.5953C47.013 49.5916 47.6887 49.4232 51.8476 49.4232C53.2413 49.4232 54.5779 48.9058 55.5634 47.9847C56.5489 47.0636 57.1026 45.8144 57.1026 44.5118C57.1026 43.9536 57.3399 43.4182 57.7622 43.0234C58.1846 42.6287 58.7574 42.4069 59.3547 42.4069H69.114Z" fill="#BE927C"/>
<path d="M6.05408 63.4558H3.05123C2.65303 63.4558 2.27113 63.308 1.98956 63.0448C1.70799 62.7816 1.5498 62.4247 1.5498 62.0525C1.5498 61.6804 1.70799 61.3235 1.98956 61.0603C2.27113 60.7971 2.65303 60.6493 3.05123 60.6493H6.05408C6.45228 60.6493 6.83417 60.7971 7.11575 61.0603C7.39732 61.3235 7.5555 61.6804 7.5555 62.0525C7.5555 62.4247 7.39732 62.7816 7.11575 63.0448C6.83417 63.308 6.45228 63.4558 6.05408 63.4558Z" fill="#CC734C"/>
<path d="M27.0741 63.4558H24.0712C23.673 63.4558 23.2912 63.308 23.0096 63.0448C22.728 62.7816 22.5698 62.4247 22.5698 62.0525C22.5698 61.6804 22.728 61.3235 23.0096 61.0603C23.2912 60.7971 23.673 60.6493 24.0712 60.6493H27.0741C27.4723 60.6493 27.8542 60.7971 28.1358 61.0603C28.4173 61.3235 28.5755 61.6804 28.5755 62.0525C28.5755 62.4247 28.4173 62.7816 28.1358 63.0448C27.8542 63.308 27.4723 63.4558 27.0741 63.4558Z" fill="#CC734C"/>
<path d="M45.0912 63.4558H42.0883C41.6901 63.4558 41.3082 63.308 41.0267 63.0448C40.7451 62.7816 40.5869 62.4247 40.5869 62.0525C40.5869 61.6804 40.7451 61.3235 41.0267 61.0603C41.3082 60.7971 41.6901 60.6493 42.0883 60.6493H45.0912C45.4894 60.6493 45.8713 60.7971 46.1529 61.0603C46.4344 61.3235 46.5926 61.6804 46.5926 62.0525C46.5926 62.4247 46.4344 62.7816 46.1529 63.0448C45.8713 63.308 45.4894 63.4558 45.0912 63.4558Z" fill="#CC734C"/>
<path d="M66.1112 63.4558H63.1084C62.7102 63.4558 62.3283 63.308 62.0467 63.0448C61.7651 62.7816 61.6069 62.4247 61.6069 62.0525C61.6069 61.6804 61.7651 61.3235 62.0467 61.0603C62.3283 60.7971 62.7102 60.6493 63.1084 60.6493H66.1112C66.5094 60.6493 66.8913 60.7971 67.1729 61.0603C67.4544 61.3235 67.6126 61.6804 67.6126 62.0525C67.6126 62.4247 67.4544 62.7816 67.1729 63.0448C66.8913 63.308 66.5094 63.4558 66.1112 63.4558Z" fill="#CC734C"/>
</svg>
