<svg width="47" height="38" viewBox="0 0 47 38" fill="none" xmlns="http://www.w3.org/2000/svg">
<path d="M29.8539 4.48499H17.3252V33.5149H29.8539V4.48499Z" fill="#FF5F00"/>
<path d="M18.1207 19C18.1207 13.1017 20.2685 7.87019 23.5697 4.48507C21.1435 2.02317 18.081 0.535767 14.74 0.535767C6.82497 0.535767 0.421387 8.7934 0.421387 19C0.421387 29.2067 6.82497 37.4643 14.74 37.4643C18.081 37.4643 21.1435 35.9769 23.5697 33.515C20.2685 30.1812 18.1207 24.8983 18.1207 19Z" fill="#EB001B"/>
<path d="M46.7578 19C46.7578 29.2067 40.3542 37.4643 32.4392 37.4643C29.0982 37.4643 26.0356 35.9769 23.6094 33.515C26.9504 30.1299 29.0584 24.8984 29.0584 19C29.0584 13.1017 26.9106 7.87019 23.6094 4.48508C26.0356 2.02317 29.0982 0.535767 32.4392 0.535767C40.3542 0.535767 46.7578 8.84469 46.7578 19Z" fill="#F79E1B"/>
</svg>
