<svg width="70" height="65" viewBox="0 0 70 65" fill="none" xmlns="http://www.w3.org/2000/svg">
<path d="M69.0335 57.0072C69.0335 62.073 63.7034 66.2547 54.5898 62.7325C50.2056 60.9925 48.5841 58.8595 41.9928 52.6572C41.4336 52.1313 41.1196 51.42 41.1196 50.6786C41.1196 49.9371 41.4336 49.2258 41.9928 48.7L52.6379 38.7649C53.2006 38.2422 53.9616 37.9488 54.7549 37.9488C55.5483 37.9488 56.3093 38.2422 56.872 38.7649C63.5383 44.8972 69.0335 48.5877 69.0335 57.0072Z" fill="#7C7D7D"/>
<path d="M69.0335 57.0072C69.0372 58.1796 68.7221 59.3337 68.1177 60.361C67.0185 60.9259 65.7837 61.2205 64.5293 61.217C55.5207 61.217 51.602 56.1092 45.0107 49.8506C44.4932 49.3638 44.1845 48.7165 44.143 48.0313C44.1015 47.3461 44.3301 46.6704 44.7855 46.132C44.9957 45.8935 44.2 46.6512 52.653 38.7509C53.2156 38.2282 53.9767 37.9348 54.77 37.9348C55.5633 37.9348 56.3244 38.2282 56.887 38.7509C63.5383 44.8972 69.0335 48.5877 69.0335 57.0072Z" fill="#919191"/>
<path d="M56.7366 12.945L28.0594 39.7612C27.7767 40.0255 27.3932 40.1739 26.9934 40.1739C26.5936 40.1739 26.2101 40.0255 25.9274 39.7612C25.6447 39.497 25.4858 39.1386 25.4858 38.7649C25.4858 38.3912 25.6447 38.0329 25.9274 37.7686L54.6196 10.9665C54.9068 10.7366 55.2763 10.6164 55.6542 10.6301C56.0321 10.6437 56.3905 10.7901 56.6579 11.04C56.9253 11.2899 57.0819 11.625 57.0965 11.9781C57.1111 12.3313 56.9826 12.6766 56.7366 12.945Z" fill="#DF8761"/>
<path d="M27.5938 54.2008C16.4833 64.5708 17.3691 64.0236 16.4833 64.0236C16.1851 64.0252 15.8931 63.9438 15.6446 63.7897C15.3961 63.6356 15.2023 63.4158 15.0879 63.1584C14.9736 62.901 14.9438 62.6176 15.0025 62.3443C15.0611 62.071 15.2055 61.8203 15.4173 61.624L25.4918 52.2362C25.781 52.0335 26.1386 51.9352 26.4991 51.9591C26.8596 51.983 27.1988 52.1277 27.4544 52.3666C27.7099 52.6054 27.8647 52.9224 27.8904 53.2593C27.916 53.5963 27.8107 53.9305 27.5938 54.2008Z" fill="#DAD7E5"/>
<path d="M13.0153 40.2524L2.50536 49.5981C2.21308 49.8235 1.84043 49.9373 1.46215 49.9166C1.08387 49.8959 0.727936 49.7423 0.465754 49.4866C0.203572 49.2309 0.054531 48.8921 0.0485284 48.5379C0.0425258 48.1838 0.180005 47.8407 0.433389 47.5774C9.44194 39.5508 6.93456 41.7679 10.9434 38.2177C11.2321 37.9609 11.6181 37.8218 12.0165 37.831C12.4149 37.8402 12.7931 37.997 13.0679 38.2668C13.3426 38.5366 13.4915 38.8974 13.4816 39.2698C13.4717 39.6421 13.304 39.9956 13.0153 40.2524Z" fill="#DAD7E5"/>
<path d="M19.051 48.1808C9.14162 57.4422 9.84729 57.0072 8.97646 57.0072C8.67825 57.0089 8.38626 56.9274 8.13775 56.7734C7.88923 56.6193 7.69544 56.3995 7.58108 56.1421C7.46673 55.8847 7.43698 55.6013 7.49564 55.328C7.5543 55.0547 7.69871 54.8039 7.91045 54.6077L16.919 46.1881C17.2017 45.9239 17.5852 45.7755 17.985 45.7755C18.3848 45.7755 18.7683 45.9239 19.051 46.1881C19.3337 46.4524 19.4926 46.8108 19.4926 47.1845C19.4926 47.5581 19.3337 47.9165 19.051 48.1808Z" fill="#DAD7E5"/>
<path d="M13.0152 40.2524L10.0124 42.8765L7.94043 40.8839L10.9433 38.2177C11.232 37.9609 11.618 37.8218 12.0164 37.831C12.4148 37.8402 12.793 37.997 13.0678 38.2668C13.3426 38.5366 13.4914 38.8974 13.4815 39.2698C13.4717 39.6421 13.3039 39.9956 13.0152 40.2524Z" fill="#C6C3D8"/>
<path d="M19.0507 48.1808L17.3841 49.7384L15.2671 47.7317L16.9187 46.1881C17.2014 45.9239 17.5848 45.7755 17.9847 45.7755C18.3845 45.7755 18.768 45.9239 19.0507 46.1881C19.3334 46.4524 19.4922 46.8108 19.4922 47.1845C19.4922 47.5581 19.3334 47.9165 19.0507 48.1808Z" fill="#C6C3D8"/>
<path d="M27.5944 54.2008L24.8918 56.7266L22.7598 54.7621L25.4924 52.2362C25.7815 52.0335 26.1391 51.9352 26.4996 51.9591C26.8602 51.983 27.1993 52.1277 27.4549 52.3666C27.7104 52.6054 27.8652 52.9224 27.8909 53.2593C27.9165 53.5963 27.8112 53.9305 27.5944 54.2008Z" fill="#C6C3D8"/>
<path d="M29.2005 52.7975L27.0685 54.7901L10.0874 38.9334L12.2044 36.9548C12.4833 36.6938 12.8145 36.4868 13.179 36.3456C13.5436 36.2043 13.9343 36.1317 14.3289 36.1317C14.7235 36.1317 15.1143 36.2043 15.4788 36.3456C15.8434 36.4868 16.1746 36.6938 16.4534 36.9548L19.6365 39.9297L20.7025 38.9334C21.5563 38.1897 22.6857 37.7849 23.8526 37.8042C25.0195 37.8234 26.1329 38.2652 26.9581 39.0365C27.7834 39.8078 28.2561 40.8484 28.2767 41.939C28.2973 43.0296 27.8641 44.0851 27.0685 44.8832L26.0025 45.8795L29.2005 48.8684C29.7507 49.393 30.0589 50.0983 30.0589 50.833C30.0589 51.5676 29.7507 52.2729 29.2005 52.7975Z" fill="#919191"/>
<path d="M29.0654 48.7421C28.534 49.2339 27.8164 49.5099 27.0685 49.5099C26.3206 49.5099 25.603 49.2339 25.0716 48.7421C11.1834 35.7479 12.5948 36.9547 12.2044 36.9547L10.0874 38.9333L27.0685 54.8182L29.2005 52.7975C29.4849 52.527 29.7078 52.2056 29.8556 51.8524C30.0033 51.4993 30.073 51.1218 30.0604 50.7428C30.0478 50.3638 29.9531 49.9911 29.7821 49.6472C29.6111 49.3033 29.3673 48.9954 29.0654 48.7421Z" fill="#7C7D7D"/>
<path d="M54.8149 3.02404L65.2348 12.7626C65.8785 12.3303 66.4678 11.8313 66.9915 11.2752C67.5417 10.7506 67.8499 10.0452 67.8499 9.31062C67.8499 8.57601 67.5417 7.87069 66.9915 7.34607L60.6104 1.42433C60.0491 0.910103 59.2945 0.62207 58.5085 0.62207C57.7224 0.62207 56.9678 0.910103 56.4065 1.42433C55.8058 1.89263 55.2711 2.43015 54.8149 3.02404Z" fill="#DF8761"/>
<path d="M32.9902 31.1832L30.8774 33.1578L32.9902 35.1324L35.1029 33.1578L32.9902 31.1832Z" fill="#CC734C"/>
<path d="M52.1881 53.0641C44.0203 45.4304 44.6809 46.2162 44.9962 45.8935L46.873 44.1394L54.3051 51.1557C54.49 51.4286 54.5685 51.7529 54.5273 52.0737C54.4861 52.3945 54.3278 52.6921 54.0789 52.9164C53.8301 53.1407 53.5061 53.2779 53.1616 53.3048C52.8171 53.3317 52.4733 53.2467 52.1881 53.0641Z" fill="#7C7D7D"/>
<path d="M54.7551 52.0818C53.8243 52.0818 56.6169 54.3972 12.2648 12.945C12.0189 12.6766 11.8903 12.3313 11.9049 11.9781C11.9195 11.625 12.0762 11.2899 12.3436 11.04C12.611 10.7901 12.9694 10.6437 13.3473 10.6301C13.7252 10.6164 14.0946 10.7366 14.3818 10.9665L55.8061 49.6823C56.017 49.8777 56.1611 50.1272 56.2202 50.3991C56.2793 50.6711 56.2509 50.9534 56.1384 51.2102C56.0259 51.467 55.8344 51.6869 55.5882 51.8421C55.342 51.9972 55.0521 52.0807 54.7551 52.0818Z" fill="#DF8761"/>
<path d="M54.2897 2.88372C54.414 2.71429 54.5766 2.57244 54.766 2.46817C54.9554 2.36391 55.1669 2.29978 55.3857 2.28032C56.3617 2.19612 56.0314 2.16806 65.5954 11.1068C65.751 11.2523 65.8704 11.4281 65.9452 11.6215C66.02 11.815 66.0483 12.0214 66.0283 12.2263C66.0082 12.4311 65.9402 12.6294 65.8291 12.8069C65.718 12.9845 65.5664 13.137 65.3852 13.2538C57.1424 18.6563 48.5092 10.5876 54.2897 2.88372ZM55.7911 5.98491C55.3607 6.79784 55.2138 7.71648 55.3712 8.61151C55.5286 9.50654 55.9824 10.3329 56.6686 10.9743C57.3549 11.6157 58.239 12.0397 59.1967 12.1869C60.1543 12.334 61.1372 12.1967 62.007 11.7944L55.7911 5.98491Z" fill="#374F68"/>
<path d="M14.1863 3.02404L3.76642 12.7626C3.12272 12.3303 2.53342 11.8313 2.00975 11.2752C1.45955 10.7506 1.15137 10.0452 1.15137 9.31062C1.15137 8.57601 1.45955 7.87069 2.00975 7.34607L8.39081 1.42433C8.95213 0.910103 9.7068 0.62207 10.4928 0.62207C11.2788 0.62207 12.0335 0.910103 12.5948 1.42433C13.1954 1.89263 13.7302 2.43015 14.1863 3.02404Z" fill="#DF8761"/>
<path d="M3.61635 13.2538C3.43507 13.1376 3.28329 12.9857 3.17173 12.8086C3.06017 12.6316 2.99156 12.4339 2.97073 12.2294C2.97073 11.2892 2.88065 11.612 12.4147 2.68727C12.5704 2.5419 12.7584 2.43032 12.9654 2.36041C13.1724 2.2905 13.3933 2.26398 13.6125 2.28272C13.8317 2.30147 14.0438 2.36502 14.2338 2.46888C14.4237 2.57273 14.587 2.71436 14.7119 2.88372C20.4023 10.4753 11.9793 18.7405 3.61635 13.2538ZM6.93449 11.8505C7.81037 12.2657 8.80464 12.4105 9.77414 12.2639C10.7436 12.1173 11.6384 11.6869 12.3295 11.0348C13.0206 10.3826 13.4724 9.54228 13.6199 8.6348C13.7675 7.72732 13.6031 6.79949 13.1504 5.98492L6.93449 11.8505Z" fill="#374F68"/>
</svg>
