<svg width="71" height="66" viewBox="0 0 71 66" fill="none" xmlns="http://www.w3.org/2000/svg">
<path d="M35.5 11.1376C35.2058 11.1376 34.9236 11.0289 34.7156 10.8355C34.5075 10.6421 34.3906 10.3798 34.3906 10.1063V4.95007C34.3906 4.67657 34.5075 4.41427 34.7156 4.22087C34.9236 4.02747 35.2058 3.91882 35.5 3.91882C35.7942 3.91882 36.0764 4.02747 36.2844 4.22087C36.4925 4.41427 36.6094 4.67657 36.6094 4.95007V10.1063C36.6094 10.3798 36.4925 10.6421 36.2844 10.8355C36.0764 11.0289 35.7942 11.1376 35.5 11.1376Z" fill="url(#paint0_linear)"/>
<path d="M22.6311 14.3344C22.43 14.3407 22.2309 14.296 22.055 14.2052C21.8791 14.1144 21.7331 13.9808 21.6326 13.8188L18.9701 9.38439C18.8665 9.26958 18.791 9.13514 18.7489 8.99043C18.7068 8.84573 18.6992 8.69424 18.7265 8.54651C18.7539 8.39878 18.8155 8.25837 18.9072 8.13506C18.9989 8.01174 19.1184 7.90849 19.2573 7.83249C19.3963 7.75649 19.5515 7.70957 19.712 7.69499C19.8725 7.68042 20.0344 7.69855 20.1866 7.74811C20.3388 7.79767 20.4775 7.87747 20.5932 7.98197C20.7088 8.08646 20.7985 8.21312 20.8561 8.35314L23.6295 12.7875C23.7069 12.9083 23.7569 13.0426 23.7764 13.1821C23.796 13.3215 23.7846 13.4632 23.743 13.5985C23.7015 13.7337 23.6306 13.8596 23.5348 13.9684C23.4389 14.0772 23.3202 14.1667 23.1858 14.2313L22.6311 14.3344Z" fill="url(#paint1_linear)"/>
<path d="M13.2013 23.1001H12.6467L7.87634 20.4188C7.72572 20.3653 7.58946 20.2819 7.47705 20.1744C7.36465 20.0669 7.27879 19.938 7.22548 19.7965C7.17216 19.6551 7.15266 19.5045 7.16834 19.3553C7.18402 19.2061 7.23449 19.0619 7.31625 18.9327C7.39801 18.8035 7.50909 18.6924 7.64174 18.6072C7.7744 18.522 7.92545 18.4646 8.08437 18.4392C8.24328 18.4138 8.40625 18.4209 8.56192 18.46C8.71759 18.4991 8.86221 18.5693 8.98572 18.6657L13.756 21.2438C13.989 21.3473 14.1759 21.523 14.2845 21.7408C14.3931 21.9586 14.4165 22.2047 14.3508 22.4369C14.2851 22.669 14.1343 22.8725 13.9245 23.0124C13.7147 23.1523 13.4589 23.2198 13.2013 23.2032V23.1001Z" fill="url(#paint2_linear)"/>
<path d="M57.7983 23.0999C57.5407 23.1165 57.285 23.049 57.0751 22.9091C56.8653 22.7693 56.7145 22.5657 56.6488 22.3336C56.5831 22.1015 56.6066 21.8553 56.7151 21.6375C56.8237 21.4197 57.0106 21.244 57.2436 21.1405L62.0139 18.5624C62.1374 18.466 62.2821 18.3959 62.4377 18.3568C62.5934 18.3176 62.7564 18.3105 62.9153 18.336C63.0742 18.3614 63.2253 18.4187 63.3579 18.5039C63.4906 18.5891 63.6016 18.7002 63.6834 18.8294C63.7652 18.9586 63.8156 19.1028 63.8313 19.252C63.847 19.4012 63.8275 19.5518 63.7742 19.6932C63.7209 19.8347 63.635 19.9637 63.5226 20.0711C63.4102 20.1786 63.2739 20.262 63.1233 20.3155L58.353 22.8937L57.7983 23.0999Z" fill="url(#paint3_linear)"/>
<path d="M48.3685 14.3344H47.8138C47.6794 14.2698 47.5607 14.1803 47.4648 14.0715C47.369 13.9627 47.2981 13.8368 47.2566 13.7016C47.215 13.5663 47.2036 13.4246 47.2231 13.2852C47.2427 13.1457 47.2927 13.0114 47.3701 12.8906L50.1435 8.45623C50.2011 8.31622 50.2908 8.18955 50.4064 8.08506C50.5221 7.98057 50.6608 7.90076 50.813 7.8512C50.9652 7.80164 51.1271 7.78352 51.2876 7.79809C51.4481 7.81266 51.6032 7.85959 51.7422 7.93559C51.8812 8.01159 52.0007 8.11484 52.0924 8.23815C52.1841 8.36147 52.2457 8.50188 52.2731 8.64961C52.3004 8.79733 52.2928 8.94882 52.2507 9.09353C52.2086 9.23823 52.1331 9.37267 52.0295 9.48748L49.256 13.9219C49.1527 14.0499 49.0187 14.1539 48.8646 14.2255C48.7106 14.2971 48.5407 14.3344 48.3685 14.3344Z" fill="url(#paint4_linear)"/>
<path d="M35.5 14.4375C31.3311 14.4375 27.2559 15.5867 23.7896 17.7396C20.3234 19.8926 17.6217 22.9528 16.0264 26.533C14.431 30.1133 14.0136 34.053 14.8269 37.8538C15.6402 41.6546 17.6477 45.1459 20.5955 47.8861C23.5434 50.6264 27.2991 52.4925 31.3879 53.2485C35.4766 54.0045 39.7147 53.6165 43.5663 52.1335C47.4178 50.6505 50.7097 48.1391 53.0258 44.917C55.3419 41.6948 56.5781 37.9065 56.5781 34.0312C56.5781 28.8347 54.3574 23.8509 50.4045 20.1764C46.4516 16.5018 41.0903 14.4375 35.5 14.4375Z" fill="url(#paint5_linear)"/>
<path d="M9.98428 61.4624C14.9938 51.6166 23.2041 43.4825 33.4557 38.2088C43.7073 32.9351 55.4821 30.7884 67.1171 32.0718C67.3917 32.0975 67.6461 32.2173 67.8308 32.408C68.0154 32.5987 68.1169 32.8465 68.1155 33.1031L67.6718 61.8749C67.6718 62.1484 67.5549 62.4107 67.3469 62.6041C67.1388 62.7975 66.8566 62.9062 66.5624 62.9062H10.9827C10.8001 62.9034 10.621 62.8587 10.4614 62.7761C10.3018 62.6935 10.1666 62.5756 10.0678 62.4327C9.96901 62.2899 9.9097 62.1266 9.89514 61.9573C9.88057 61.788 9.91119 61.618 9.98428 61.4624Z" fill="url(#paint6_linear)"/>
<path d="M22.9641 61.2562C27.6945 54.5198 34.3366 49.1306 42.1563 45.6843C49.9303 42.3966 58.5238 41.1484 67.0063 42.075C67.2809 42.1006 67.5353 42.2205 67.7199 42.4112C67.9045 42.6019 68.0061 42.8497 68.0047 43.1062V61.875C68.0047 62.1485 67.8878 62.4108 67.6798 62.6042C67.4717 62.7976 67.1895 62.9062 66.8953 62.9062H23.8516C23.6455 62.9062 23.4436 62.8529 23.2683 62.7522C23.0931 62.6515 22.9514 62.5074 22.8593 62.3362C22.7672 62.1649 22.7282 61.9731 22.7467 61.7824C22.7652 61.5916 22.8405 61.4094 22.9641 61.2562Z" fill="url(#paint7_linear)"/>
<path d="M37.6078 61.153C40.2934 58.7192 43.4077 56.7311 46.8156 55.2749C51.257 53.3256 56.104 52.3048 61.0156 52.2843L65.564 52.5937L67.0062 52.7999C67.2808 52.8256 67.5352 52.9455 67.7199 53.1361C67.9045 53.3268 68.006 53.5746 68.0046 53.8312V61.8749C68.0046 62.1484 67.8877 62.4107 67.6797 62.6041C67.4717 62.7975 67.1895 62.9062 66.8953 62.9062H38.3843C38.1672 62.9033 37.9557 62.8413 37.7761 62.7278C37.5966 62.6143 37.4568 62.4543 37.3741 62.2677C37.2914 62.081 37.2695 61.8759 37.311 61.6778C37.3525 61.4796 37.4557 61.2972 37.6078 61.153Z" fill="url(#paint8_linear)"/>
<path d="M61.4594 61.4624C55.771 50.476 46.1676 41.6582 34.2797 36.5062C24.9156 32.5215 14.559 30.9882 4.32658 32.0718C4.05198 32.0975 3.79753 32.2173 3.61291 32.408C3.42829 32.5987 3.32676 32.8465 3.32814 33.103L3.77189 61.8749C3.77189 62.1484 3.88877 62.4107 4.09682 62.6041C4.30487 62.7975 4.58704 62.9062 4.88126 62.9062H60.4609C60.6436 62.9034 60.8227 62.8587 60.9823 62.7761C61.1419 62.6935 61.2771 62.5756 61.3759 62.4327C61.4747 62.2899 61.534 62.1266 61.5485 61.9573C61.5631 61.788 61.5325 61.618 61.4594 61.4624Z" fill="url(#paint9_linear)"/>
<path d="M48.4797 61.2562C43.7493 54.5198 37.1072 49.1306 29.2875 45.6843C21.4802 42.3778 12.8455 41.1292 4.32658 42.0749C4.05198 42.1006 3.79753 42.2204 3.61291 42.4111C3.42829 42.6018 3.32676 42.8496 3.32814 43.1062V61.8749C3.32814 62.1484 3.44502 62.4107 3.65307 62.6041C3.86112 62.7975 4.14329 62.9062 4.43751 62.9062H47.4813C47.6873 62.9062 47.8892 62.8528 48.0645 62.7522C48.2397 62.6515 48.3814 62.5074 48.4735 62.3361C48.5657 62.1648 48.6047 61.9731 48.5862 61.7823C48.5677 61.5916 48.4924 61.4094 48.3688 61.2562H48.4797Z" fill="url(#paint10_linear)"/>
<path d="M33.836 61.153C31.1503 58.7192 28.036 56.7311 24.6281 55.2749C20.1867 53.3256 15.3397 52.3048 10.4281 52.2843L5.76876 52.5937L4.32658 52.7999C4.05198 52.8256 3.79753 52.9455 3.61291 53.1361C3.42829 53.3268 3.32676 53.5746 3.32814 53.8312V61.8749C3.32814 62.1484 3.44502 62.4107 3.65307 62.6041C3.86112 62.7975 4.14329 62.9062 4.43751 62.9062H33.0594C33.2765 62.9033 33.488 62.8413 33.6676 62.7278C33.8471 62.6143 33.9869 62.4543 34.0696 62.2677C34.1523 62.081 34.1742 61.8759 34.1327 61.6778C34.0912 61.4796 33.988 61.2972 33.836 61.153Z" fill="url(#paint11_linear)"/>
<defs>
<linearGradient id="paint0_linear" x1="34.3906" y1="7.56945" x2="36.6094" y2="7.56945" gradientUnits="userSpaceOnUse">
<stop stop-color="#FFDF2D"/>
<stop offset="0.66" stop-color="#FF8C1B"/>
</linearGradient>
<linearGradient id="paint1_linear" x1="104.584" y1="79.3217" x2="127.423" y2="79.3217" gradientUnits="userSpaceOnUse">
<stop stop-color="#FFDF2D"/>
<stop offset="0.66" stop-color="#FF8C1B"/>
</linearGradient>
<linearGradient id="paint2_linear" x1="54.9877" y1="114.864" x2="100.645" y2="114.864" gradientUnits="userSpaceOnUse">
<stop stop-color="#FFDF2D"/>
<stop offset="0.66" stop-color="#FF8C1B"/>
</linearGradient>
<linearGradient id="paint3_linear" x1="425.483" y1="114.761" x2="471.141" y2="114.761" gradientUnits="userSpaceOnUse">
<stop stop-color="#FFDF2D"/>
<stop offset="0.66" stop-color="#FF8C1B"/>
</linearGradient>
<linearGradient id="paint4_linear" x1="263.319" y1="78.3068" x2="286.158" y2="78.3068" gradientUnits="userSpaceOnUse">
<stop stop-color="#FFDF2D"/>
<stop offset="0.66" stop-color="#FF8C1B"/>
</linearGradient>
<linearGradient id="paint5_linear" x1="1363.42" y1="563.063" x2="1363.42" y2="2052.19" gradientUnits="userSpaceOnUse">
<stop stop-color="#FFDF2D"/>
<stop offset="0.66" stop-color="#FF8C1B"/>
</linearGradient>
<linearGradient id="paint6_linear" x1="38.9501" y1="31.7109" x2="38.9501" y2="62.8856" gradientUnits="userSpaceOnUse">
<stop stop-color="#A5FF91"/>
<stop offset="0.48" stop-color="#5ED100"/>
<stop offset="1" stop-color="#0C7F00"/>
</linearGradient>
<linearGradient id="paint7_linear" x1="-6521.77" y1="898.332" x2="-6521.77" y2="1330.62" gradientUnits="userSpaceOnUse">
<stop stop-color="#A5FF91"/>
<stop offset="0.48" stop-color="#5ED100"/>
<stop offset="1" stop-color="#0C7F00"/>
</linearGradient>
<linearGradient id="paint8_linear" x1="-4604.23" y1="591.344" x2="-4604.23" y2="700.112" gradientUnits="userSpaceOnUse">
<stop stop-color="#A5FF91"/>
<stop offset="0.48" stop-color="#5ED100"/>
<stop offset="1" stop-color="#0C7F00"/>
</linearGradient>
<linearGradient id="paint9_linear" x1="1705.21" y1="990.284" x2="1705.21" y2="1932.62" gradientUnits="userSpaceOnUse">
<stop stop-color="#A5FF91"/>
<stop offset="0.48" stop-color="#5ED100"/>
<stop offset="1" stop-color="#0C7F00"/>
</linearGradient>
<linearGradient id="paint10_linear" x1="1062.92" y1="898.715" x2="1062.92" y2="1331.21" gradientUnits="userSpaceOnUse">
<stop stop-color="#A5FF91"/>
<stop offset="0.48" stop-color="#5ED100"/>
<stop offset="1" stop-color="#0C7F00"/>
</linearGradient>
<linearGradient id="paint11_linear" x1="523.655" y1="591.344" x2="523.655" y2="700.112" gradientUnits="userSpaceOnUse">
<stop stop-color="#A5FF91"/>
<stop offset="0.48" stop-color="#5ED100"/>
<stop offset="1" stop-color="#0C7F00"/>
</linearGradient>
</defs>
</svg>
