<svg width="50" height="40" viewBox="0 0 50 40" fill="none" xmlns="http://www.w3.org/2000/svg">
<path d="M45.833 3.33337H4.16634C3.61381 3.33337 3.0839 3.50897 2.6932 3.82153C2.3025 4.13409 2.08301 4.55801 2.08301 5.00004V18.3334C2.08301 18.7754 2.3025 19.1993 2.6932 19.5119C3.0839 19.8244 3.61381 20 4.16634 20H10.4163V35C10.4163 35.4421 10.6358 35.866 11.0265 36.1786C11.4172 36.4911 11.9471 36.6667 12.4997 36.6667H37.4997C38.0522 36.6667 38.5821 36.4911 38.9728 36.1786C39.3635 35.866 39.583 35.4421 39.583 35V20H45.833C46.3855 20 46.9154 19.8244 47.3061 19.5119C47.6968 19.1993 47.9163 18.7754 47.9163 18.3334V5.00004C47.9163 4.55801 47.6968 4.13409 47.3061 3.82153C46.9154 3.50897 46.3855 3.33337 45.833 3.33337ZM14.583 33.3334V30C15.6881 30 16.7479 30.3512 17.5293 30.9764C18.3107 31.6015 18.7497 32.4493 18.7497 33.3334H14.583ZM35.4163 33.3334H31.2497C31.2497 32.4493 31.6887 31.6015 32.4701 30.9764C33.2515 30.3512 34.3113 30 35.4163 30V33.3334ZM35.4163 26.6667C33.2062 26.6667 31.0866 27.3691 29.5238 28.6193C27.961 29.8696 27.083 31.5653 27.083 33.3334H22.9163C22.9163 31.5653 22.0384 29.8696 20.4756 28.6193C18.9128 27.3691 16.7931 26.6667 14.583 26.6667V13.3334H35.4163V26.6667ZM43.7497 16.6667H39.583V11.6667C39.583 11.2247 39.3635 10.8008 38.9728 10.4882C38.5821 10.1756 38.0522 10 37.4997 10H12.4997C11.9471 10 11.4172 10.1756 11.0265 10.4882C10.6358 10.8008 10.4163 11.2247 10.4163 11.6667V16.6667H6.24967V6.66671H43.7497V16.6667ZM24.9997 25C26.2358 25 27.4442 24.7068 28.472 24.1574C29.4998 23.608 30.3009 22.8271 30.7739 21.9135C31.247 20.9998 31.3707 19.9945 31.1296 19.0246C30.8884 18.0547 30.2932 17.1638 29.4191 16.4645C28.545 15.7652 27.4314 15.289 26.219 15.0961C25.0066 14.9032 23.7499 15.0022 22.6079 15.3806C21.4659 15.7591 20.4897 16.3999 19.803 17.2222C19.1162 18.0444 18.7497 19.0111 18.7497 20C18.7497 21.3261 19.4082 22.5979 20.5803 23.5356C21.7524 24.4733 23.3421 25 24.9997 25ZM24.9997 18.3334C25.4117 18.3334 25.8145 18.4311 26.1571 18.6143C26.4997 18.7974 26.7667 19.0577 26.9244 19.3622C27.0821 19.6668 27.1234 20.0019 27.043 20.3252C26.9626 20.6485 26.7642 20.9455 26.4728 21.1786C26.1814 21.4116 25.8102 21.5704 25.4061 21.6347C25.002 21.699 24.5831 21.666 24.2024 21.5398C23.8217 21.4137 23.4964 21.2001 23.2674 20.926C23.0385 20.6519 22.9163 20.3297 22.9163 20C22.9163 19.558 23.1358 19.1341 23.5265 18.8215C23.9172 18.509 24.4471 18.3334 24.9997 18.3334Z" fill="black"/>
</svg>
