<svg width="19" height="21" viewBox="0 0 19 21" fill="none" xmlns="http://www.w3.org/2000/svg">
<path d="M18.6987 17.4115C18.6613 17.327 18.6076 17.2507 18.5407 17.187C18.4739 17.1232 18.3951 17.0733 18.3089 17.04C18.2227 17.0067 18.1308 16.9907 18.0385 16.9929C17.9461 16.9951 17.8551 17.0155 17.7706 17.0529C17.6862 17.0903 17.6099 17.144 17.5461 17.2108C17.4824 17.2777 17.4324 17.3565 17.3991 17.4427C17.3659 17.5288 17.3499 17.6207 17.3521 17.7131C17.3543 17.8054 17.3747 17.8965 17.4121 17.9809C17.4754 18.1483 17.4725 18.3336 17.404 18.4989C17.3354 18.6642 17.2064 18.7972 17.0433 18.8707C16.8801 18.9442 16.6951 18.9527 16.5258 18.8945C16.3566 18.8363 16.2159 18.7158 16.1325 18.5575L12.9898 11.5268C13.1655 11.4424 13.3413 11.344 13.5241 11.2667L14.2623 10.9362L16.2661 15.4288C16.3034 15.5133 16.3571 15.5897 16.4239 15.6534C16.4908 15.7172 16.5696 15.7672 16.6558 15.8005C16.742 15.8338 16.8339 15.8498 16.9262 15.8475C17.0186 15.8453 17.1096 15.8248 17.1941 15.7874C17.2786 15.75 17.355 15.6964 17.4187 15.6295C17.4825 15.5627 17.5325 15.4839 17.5658 15.3977C17.5991 15.3115 17.6151 15.2196 17.6128 15.1272C17.6106 15.0348 17.5901 14.9438 17.5527 14.8593L11.8508 2.00024C11.6817 1.61738 11.4025 1.29348 11.0488 1.06976C10.6951 0.846048 10.2828 0.732627 9.86442 0.743934C9.44604 0.755242 9.04048 0.890767 8.69935 1.13326C8.35822 1.37576 8.09695 1.71426 7.94879 2.1057C7.75155 2.62775 7.76925 3.20669 7.998 3.71572L8.51124 4.86875C8.3636 4.91093 8.21595 4.96718 8.06128 5.00233L1.03061 6.83031C0.867091 6.87318 0.724495 6.97354 0.628945 7.11299C0.533395 7.25244 0.491289 7.42165 0.51034 7.58962C0.871114 10.8313 2.22685 13.8817 4.39127 16.3217C4.50368 16.4484 4.65803 16.5302 4.82594 16.5522C4.99386 16.5741 5.16406 16.5347 5.30526 16.4412L11.3587 12.4408C11.4852 12.3564 11.6258 12.2791 11.7524 12.2017L14.8459 19.1269C15.0117 19.4994 15.2819 19.8158 15.6238 20.0379C15.9656 20.26 16.3646 20.3783 16.7723 20.3784C17.068 20.3802 17.3607 20.3178 17.63 20.1956C18.1408 19.968 18.5404 19.5469 18.7408 19.0248C18.9412 18.5027 18.926 17.9224 18.6987 17.4115ZM12.9476 9.96598L12.4203 10.2331L10.3955 5.67025C10.5783 5.59291 10.7681 5.52963 10.9439 5.45229L11.6891 5.12185L13.6928 9.61445L12.9476 9.96598ZM9.25649 3.14624C9.22072 3.06048 9.2023 2.96848 9.2023 2.87555C9.2023 2.78263 9.22072 2.69063 9.25649 2.60487C9.30946 2.47592 9.39957 2.36563 9.51537 2.28801C9.63117 2.21039 9.76742 2.16895 9.90683 2.16895C10.0462 2.16895 10.1825 2.21039 10.2983 2.28801C10.4141 2.36563 10.5042 2.47592 10.5572 2.60487L11.1477 3.85633L10.4095 4.18677C10.2267 4.27114 10.0369 4.33442 9.8541 4.40473L9.25649 3.14624ZM10.5853 11.2948L7.47773 13.3477C6.64081 12.4381 5.97828 11.3824 5.52321 10.2331C5.43181 10.0293 5.3615 9.81834 5.2912 9.62148C5.22089 9.42462 5.15761 9.19261 5.10137 8.98169C5.04512 8.81174 4.92617 8.66965 4.76876 8.58439C4.61136 8.49914 4.42736 8.47713 4.25429 8.52286C4.08122 8.5686 3.93211 8.67863 3.83737 8.83051C3.74263 8.9824 3.7094 9.16471 3.74445 9.34025C3.80069 9.57227 3.87803 9.81834 3.95537 10.0433C4.03271 10.2683 4.1241 10.5073 4.2155 10.7464C4.72348 11.9715 5.43678 13.1009 6.3247 14.086L5.05215 14.9296C4.1831 13.853 3.47281 12.6573 2.94295 11.3791C2.49538 10.3061 2.18134 9.18217 2.00787 8.03255L8.39875 6.37331L9.03854 6.16239L11.1477 10.9081C10.979 11.0276 10.7751 11.1401 10.5853 11.2948Z" fill="#41EC7B"/>
</svg>
