<svg width="19" height="19" viewBox="0 0 19 19" fill="none" xmlns="http://www.w3.org/2000/svg">
<path d="M17.7033 4.99808L9.82826 0.404327C9.7285 0.346729 9.61533 0.316406 9.50014 0.316406C9.38494 0.316406 9.27178 0.346729 9.17201 0.404327L1.29701 4.99808C1.17383 5.07115 1.07794 5.18252 1.02397 5.31519C0.969993 5.44785 0.960904 5.59453 0.998085 5.73285C1.03527 5.87116 1.11668 5.99352 1.22989 6.08124C1.34311 6.16897 1.48192 6.21724 1.62514 6.2187H4.90639V8.48276C4.89662 9.61093 5.31391 10.7011 6.07451 11.5343C5.01511 11.7139 4.05333 12.2623 3.3592 13.0825C2.66507 13.9028 2.2833 14.942 2.28139 16.0165V18.0312C2.28139 18.2052 2.35053 18.3722 2.4736 18.4952C2.59667 18.6183 2.76359 18.6875 2.93764 18.6875H6.21889C6.39294 18.6875 6.55986 18.6183 6.68293 18.4952C6.806 18.3722 6.87514 18.2052 6.87514 18.0312V12.7812H12.1251V17.375H8.84389C8.66984 17.375 8.50292 17.4441 8.37985 17.5672C8.25678 17.6902 8.18764 17.8572 8.18764 18.0312C8.18764 18.2052 8.25678 18.3722 8.37985 18.4952C8.50292 18.6183 8.66984 18.6875 8.84389 18.6875H16.0626C16.2367 18.6875 16.4036 18.6183 16.5267 18.4952C16.6497 18.3722 16.7189 18.2052 16.7189 18.0312V16.0165C16.717 14.942 16.3352 13.9028 15.6411 13.0825C14.9469 12.2623 13.9852 11.7139 12.9258 11.5343C13.6864 10.7011 14.1037 9.61093 14.0939 8.48276V6.2187H17.3751C17.5184 6.21724 17.6572 6.16897 17.7704 6.08124C17.8836 5.99352 17.965 5.87116 18.0022 5.73285C18.0394 5.59453 18.0303 5.44785 17.9763 5.31519C17.9223 5.18252 17.8264 5.07115 17.7033 4.99808ZM3.59389 16.0165C3.59473 15.3826 3.78176 14.7629 4.13177 14.2344C4.48178 13.7059 4.97933 13.2919 5.56264 13.0437V17.375H3.59389V16.0165ZM15.4064 16.0165V17.375H13.4376V13.0437C14.0209 13.2919 14.5185 13.7059 14.8685 14.2344C15.2185 14.7629 15.4056 15.3826 15.4064 16.0165ZM8.18764 4.9062C8.01359 4.9062 7.84667 4.97534 7.7236 5.09841C7.60053 5.22148 7.53139 5.3884 7.53139 5.56245C7.53139 5.7365 7.60053 5.90342 7.7236 6.02649C7.84667 6.14956 8.01359 6.2187 8.18764 6.2187H12.7814V8.48276C12.8264 9.22614 12.5757 9.95718 12.084 10.5165C11.5923 11.0758 10.8994 11.4181 10.1564 11.4687H8.84389C8.10087 11.4181 7.40798 11.0758 6.91626 10.5165C6.42454 9.95718 6.17387 9.22614 6.21889 8.48276V5.56245C6.21889 5.3884 6.14975 5.22148 6.02668 5.09841C5.90361 4.97534 5.73669 4.9062 5.56264 4.9062H4.05326L9.50014 1.72995L14.947 4.9062H8.18764Z" fill="#41EC7B"/>
</svg>
